<svg width="24" height="24" viewBox="0 0 24 24" fill="none" xmlns="http://www.w3.org/2000/svg">
<path d="M20.973 17.697C20.973 18.021 20.901 18.354 20.748 18.678C20.595 19.002 20.397 19.308 20.136 19.596C19.695 20.082 19.209 20.433 18.66 20.658C18.12 20.883 17.535 21 16.905 21C15.987 21 15.006 20.784 13.971 20.343C12.936 19.902 11.901 19.308 10.875 18.561C9.84 17.805 8.859 16.968 7.923 16.041C6.996 15.105 6.159 14.124 5.412 13.098C4.674 12.072 4.08 11.046 3.648 10.029C3.216 9.003 3 8.022 3 7.086C3 6.474 3.108 5.889 3.324 5.349C3.54 4.8 3.882 4.296 4.359 3.846C4.935 3.279 5.565 3 6.231 3C6.483 3 6.735 3.054 6.96 3.162C7.194 3.27 7.401 3.432 7.563 3.666L9.651 6.609C9.813 6.834 9.93 7.041 10.011 7.239C10.092 7.428 10.137 7.617 10.137 7.788C10.137 8.004 10.074 8.22 9.948 8.427C9.831 8.634 9.66 8.85 9.444 9.066L8.76 9.777C8.661 9.876 8.616 9.993 8.616 10.137C8.616 10.209 8.625 10.272 8.643 10.344C8.67 10.416 8.697 10.47 8.715 10.524C8.877 10.821 9.156 11.208 9.552 11.676C9.957 12.144 10.389 12.621 10.857 13.098C11.343 13.575 11.811 14.016 12.288 14.421C12.756 14.817 13.143 15.087 13.449 15.249C13.494 15.267 13.548 15.294 13.611 15.321C13.683 15.348 13.755 15.357 13.836 15.357C13.989 15.357 14.106 15.303 14.205 15.204L14.889 14.529C15.114 14.304 15.33 14.133 15.537 14.025C15.744 13.899 15.951 13.836 16.176 13.836C16.347 13.836 16.527 13.872 16.725 13.953C16.923 14.034 17.13 14.151 17.355 14.304L20.334 16.419C20.568 16.581 20.73 16.77 20.829 16.995C20.919 17.22 20.973 17.445 20.973 17.697Z" stroke="#E3E4E8" stroke-width="1.5" stroke-miterlimit="10"/>
</svg>
