<svg width="124" height="129" viewBox="0 0 124 129" fill="none" xmlns="http://www.w3.org/2000/svg">
<path d="M120.05 0H105.315C103.313 0 101.692 1.69 101.692 3.7785V7.55699H72.0388C70.538 3.1684 66.5539 0 61.8365 0C57.119 0 53.1349 3.1684 51.6342 7.55699H21.9809V3.7785C21.9809 1.69 20.3604 0 18.3577 0H3.62323C1.62055 0 0 1.69 0 3.7785V18.8925C0 20.981 1.62055 22.671 3.62323 22.671H18.3577C20.3604 22.671 21.9809 20.981 21.9809 18.8925V15.0636H36.8613C24.287 23.2556 15.9958 37.6439 15.0048 53.7592C10.6574 55.2431 7.48801 59.4635 7.48801 64.4864C7.48801 70.737 12.3639 75.8218 18.3577 75.8218C24.3515 75.8218 29.2274 70.737 29.2274 64.4864C29.2274 59.665 26.3141 55.5658 22.237 53.93C23.4732 35.9632 35.4946 20.82 52.2163 16.4994C54.0248 20.1462 57.6352 22.671 61.8365 22.671C66.0377 22.671 69.6482 20.1462 71.4566 16.4994C88.1783 20.8198 100.2 35.963 101.436 53.9297C97.3589 55.5658 94.4456 59.665 94.4456 64.4864C94.4456 70.737 99.3215 75.8218 105.315 75.8218C111.309 75.8218 116.185 70.737 116.185 64.4864C116.185 59.4635 113.016 55.2431 108.668 53.7592C107.677 37.6439 99.386 23.306 86.8117 15.114H101.692V18.8925C101.692 20.981 103.313 22.671 105.315 22.671H120.05C122.052 22.671 123.673 20.981 123.673 18.8925V3.7785C123.673 1.69 122.052 0 120.05 0Z" fill="#427CE3"/>
<path d="M86.4898 124.308C84.5946 118.26 79.1347 113.629 72.7095 113.629H50.9701C44.5449 113.629 39.0849 118.26 37.1897 124.308C36.4591 126.64 38.3612 128.995 40.7139 128.995H82.9656C85.3181 128.995 87.2205 126.64 86.4898 124.308Z" fill="#427CE3"/>
<path d="M93.837 77.4984L65.4599 33.1084V68.9547C69.6681 70.5198 72.7063 74.6746 72.7063 79.5942C72.7063 85.8449 67.8304 90.9297 61.8367 90.9297C55.8429 90.9297 50.967 85.8449 50.967 79.5942C50.967 74.6746 54.0052 70.5198 58.2134 68.9547V33.1084L29.8363 77.4984C28.8773 78.9965 29.0684 80.9928 30.2892 82.2659C36.9407 89.2024 41.1924 98.1386 42.8333 107.724C45.3502 106.659 48.0877 106.044 50.967 106.044H72.7063C75.5856 106.044 78.3231 106.659 80.84 107.724C82.4809 98.1376 86.7326 89.2024 93.3841 82.2659C94.6049 80.9928 94.796 78.9965 93.837 77.4984Z" fill="#427CE3"/>
</svg>
