<svg width="42" height="43" viewBox="0 0 42 43" fill="none" xmlns="http://www.w3.org/2000/svg">
<path d="M16.5577 1.33292C16.3136 0.918921 15.9067 0.669922 15.4684 0.669922H1.31244C0.587972 0.669922 0 1.34192 0 2.16992V41.1698C0 41.9978 0.808461 42.6698 1.53293 42.6698C2.06578 42.6698 2.54613 42.3008 2.74824 41.7368L16.6837 2.73691C16.8491 2.27192 16.8018 1.74692 16.5577 1.33292ZM2.62488 34.1468V3.66991H13.5155L2.62488 34.1468Z" fill="white"/>
<path d="M40.6898 0.669922H26.3186C25.8776 0.669922 25.4681 0.921921 25.224 1.34192C24.9852 1.75892 24.9405 2.28992 25.1085 2.75191L39.4797 41.7518C39.6871 42.3158 40.1701 42.6698 40.6898 42.6698C40.7738 42.6698 40.8604 42.6608 40.9496 42.6398C41.5612 42.4988 42.0022 41.8838 42.0022 41.1698V2.16992C42.0022 1.34192 41.4142 0.669922 40.6898 0.669922ZM39.3773 33.7418L28.2951 3.66991H39.3773V33.7418Z" fill="white"/>
<path d="M31.7704 40.5723L22.1843 15.3964C21.9743 14.8444 21.4546 14.3584 20.969 14.4964C20.4414 14.5024 19.9689 14.8684 19.7668 15.4264L13.4304 32.9973C13.265 33.4623 13.3096 33.9873 13.5537 34.4043C13.7978 34.8213 14.2073 35.0703 14.6457 35.0703H20.8614L23.4075 41.7693C23.6175 42.3183 24.09 42.6723 24.6123 42.6723H30.5682C31.0091 42.6723 31.4239 42.4173 31.6654 41.9943C31.9095 41.5683 31.9462 41.0343 31.7704 40.5723ZM25.4733 39.6723L22.9298 32.9733C22.7198 32.4243 22.2473 32.0703 21.725 32.0703H16.6065L21.0136 19.8453L28.5654 39.6723H25.4733Z" fill="white"/>
</svg>
