<svg width="24" height="24" viewBox="0 0 24 24" fill="none" xmlns="http://www.w3.org/2000/svg">
<path d="M20.4496 20.4498H16.8933V14.8806C16.8933 13.5524 16.8697 11.8435 15.0436 11.8435C13.1915 11.8435 12.9077 13.2899 12.9077 14.7848V20.4498H9.35258V8.99676H12.767V10.5614H12.8143C13.5109 9.37167 14.8047 8.66088 16.1825 8.71174C19.7873 8.71174 20.4508 11.083 20.4508 14.1662L20.4496 20.4498ZM5.33977 7.4309C4.19967 7.4309 3.27601 6.50723 3.27601 5.36714C3.27601 4.22704 4.19967 3.30337 5.33977 3.30337C6.47987 3.30337 7.40354 4.22704 7.40354 5.36714C7.40354 6.50723 6.47987 7.4309 5.33977 7.4309ZM7.11733 20.4498H3.55748V8.99676H7.11733V20.4498ZM22.2224 0.00134422H1.77046C0.804218 -0.00929985 0.0118267 0.765352 0 1.7316V22.2675C0.0118267 23.235 0.804218 24.0096 1.77046 23.999H22.2224C23.1911 24.0108 23.987 23.2362 24 22.2675V1.73041C23.9858 0.761803 23.1899 -0.0128479 22.2224 0.000161489" fill="#427CE3"/>
</svg>
