<svg width="31" height="20" viewBox="0 0 31 20" fill="none" xmlns="http://www.w3.org/2000/svg">
<path d="M8.87483 0.03125C9.73922 0.03125 10.538 0.0999376 11.2711 0.306C12.0024 0.443375 12.6043 0.729899 13.1387 1.07334C13.6749 1.41874 14.0705 1.90936 14.3406 2.53932C14.6031 3.16732 14.7456 3.93466 14.7456 4.77068C14.7456 5.74408 14.5468 6.5801 14.078 7.2081C13.6749 7.8361 13.0168 8.39738 12.2086 8.81146C13.3449 9.15686 14.2093 9.78486 14.7362 10.6209C15.2631 11.4569 15.6006 12.499 15.6006 13.6883C15.6006 14.6617 15.4037 15.4977 15.0662 16.1963C14.7295 16.8996 14.2243 17.4993 13.5999 17.9371C12.9999 18.359 12.2668 18.7025 11.468 18.9105C10.6856 19.1268 9.88089 19.2427 9.07171 19.2559L0.148438 19.2696V0.03125H8.87483ZM8.34045 7.83807C9.07171 7.83807 9.67172 7.632 10.1349 7.27875C10.5961 6.9255 10.8005 6.30339 10.8005 5.53802C10.8005 5.11412 10.7349 4.70199 10.6036 4.42528C10.4615 4.14483 10.2554 3.9055 10.0036 3.7286C9.7316 3.57336 9.44085 3.45719 9.13921 3.3832C8.80921 3.31451 8.4717 3.31451 8.07607 3.31451H4.21726V7.84788C4.21726 7.83807 8.34045 7.83807 8.34045 7.83807ZM8.53733 16.0668C8.94046 16.0668 9.33609 15.9981 9.6736 15.9294C10.0036 15.8608 10.3411 15.7214 10.6036 15.5055C10.8661 15.2897 11.0724 15.0836 11.2711 14.7402C11.4024 14.3948 11.5336 13.9728 11.5336 13.4822C11.5336 12.5088 11.2711 11.8102 10.7349 11.3195C10.2005 10.8976 9.46734 10.6915 8.60295 10.6915H4.21726V16.057H8.5392L8.53733 16.0668ZM21.3963 15.9981C21.9326 16.5574 22.7294 16.8342 23.7926 16.8342C24.5238 16.8342 25.1914 16.6261 25.7276 16.2729C26.262 15.8509 26.5901 15.4369 26.7214 15.0169H29.9839C29.4477 16.687 28.6489 17.8762 27.5876 18.6436C26.5264 19.3403 25.257 19.7544 23.7251 19.7544C22.7455 19.7589 21.774 19.5691 20.8619 19.195C20.0411 18.8757 19.3086 18.3484 18.73 17.6604C18.1128 17.0188 17.6546 16.2293 17.395 15.3603C17.0668 14.4556 16.9262 13.4822 16.9262 12.3616C16.9262 11.3195 17.0575 10.3363 17.395 9.43161C17.7325 8.52886 18.1937 7.75957 18.7956 7.06288C19.3956 6.43488 20.1288 5.87361 20.9275 5.52821C21.8182 5.15705 22.7683 4.96722 23.727 4.96889C24.8632 4.96889 25.8589 5.17496 26.7233 5.66558C27.5858 6.15621 28.2552 6.70963 28.7895 7.54565C29.3239 8.31103 29.7196 9.21574 29.9914 10.1911C30.1227 11.1645 30.1883 12.1457 30.1227 13.2585H20.4663C20.4663 14.3967 20.86 15.4369 21.3963 15.9981ZM25.5964 8.67409C25.1276 8.18347 24.3926 7.90675 23.5282 7.90675C22.9282 7.90675 22.4669 8.04413 22.0638 8.25215C21.6607 8.45822 21.3963 8.74278 21.1338 9.01753C20.8887 9.28689 20.7256 9.62636 20.665 9.99289C20.5975 10.3363 20.5338 10.6209 20.5338 10.8956H26.5264C26.3951 9.86336 26.0595 9.16471 25.5964 8.67409ZM19.7331 1.3579H27.192V3.23601H19.7331V1.3579Z" fill="white"/>
</svg>
