<svg width="13" height="17" viewBox="0 0 13 17" fill="none" xmlns="http://www.w3.org/2000/svg">
<path d="M5.91558 0.226246L0.228079 5.63539C0.0800754 5.78113 -0.00182037 5.97632 3.08435e-05 6.17893C0.00188206 6.38154 0.087332 6.57535 0.237976 6.71862C0.38862 6.86189 0.592405 6.94316 0.80544 6.94492C1.01847 6.94668 1.22371 6.8688 1.37695 6.72804L5.67752 2.63795L5.67752 16.2273C5.67752 16.4322 5.76312 16.6288 5.91549 16.7737C6.06786 16.9186 6.27453 17 6.49002 17C6.7055 17 6.91217 16.9186 7.06454 16.7737C7.21691 16.6288 7.30252 16.4322 7.30252 16.2273L7.30252 2.63795L11.6031 6.72804C11.678 6.80184 11.7677 6.86071 11.8668 6.90121C11.9659 6.94171 12.0726 6.96302 12.1804 6.96392C12.2883 6.96481 12.3953 6.94525 12.4952 6.9064C12.595 6.86755 12.6857 6.81017 12.762 6.73761C12.8383 6.66506 12.8986 6.57878 12.9395 6.48382C12.9803 6.38885 13.0009 6.2871 13 6.1845C12.999 6.08189 12.9766 5.98049 12.934 5.88622C12.8915 5.79194 12.8296 5.70667 12.752 5.63539L7.06445 0.226246C6.91209 0.0813809 6.70546 7.99618e-08 6.49002 7.73927e-08C6.27457 7.48235e-08 6.06794 0.0813809 5.91558 0.226246Z" fill="#2D6EE0"/>
</svg>
