<svg width="13" height="17" viewBox="0 0 13 17" fill="none" xmlns="http://www.w3.org/2000/svg">
<path d="M7.08442 16.7738L12.7719 11.3646C12.9199 11.2189 13.0018 11.0237 13 10.8211C12.9981 10.6185 12.9127 10.4246 12.762 10.2814C12.6114 10.1381 12.4076 10.0568 12.1946 10.0551C11.9815 10.0533 11.7763 10.1312 11.623 10.272L7.32248 14.362L7.32248 0.772735C7.32248 0.567793 7.23688 0.371244 7.08451 0.226328C6.93214 0.0814126 6.72547 -2.74268e-07 6.50998 -2.83688e-07C6.2945 -2.93107e-07 6.08783 0.0814126 5.93546 0.226328C5.78309 0.371244 5.69748 0.567792 5.69748 0.772734L5.69748 14.362L1.39692 10.272C1.32197 10.1982 1.23232 10.1393 1.13319 10.0988C1.03406 10.0583 0.927443 10.037 0.819561 10.0361C0.711677 10.0352 0.604688 10.0547 0.504836 10.0936C0.404982 10.1325 0.314264 10.1898 0.237977 10.2624C0.161688 10.3349 0.101357 10.4212 0.0605035 10.5162C0.0196509 10.6111 -0.000906459 10.7129 3.09985e-05 10.8155C0.000968456 10.9181 0.0233827 11.0195 0.0659652 11.1138C0.108548 11.2081 0.170444 11.2933 0.248046 11.3646L5.93555 16.7738C6.08791 16.9186 6.29454 17 6.50998 17C6.72543 17 6.93205 16.9186 7.08442 16.7738Z" fill="#2D6EE0"/>
</svg>
