<svg width="24" height="24" viewBox="0 0 24 24" fill="none" xmlns="http://www.w3.org/2000/svg">
<path d="M23.6195 6.834L22.2675 4.008C21.9185 3.278 21.2775 2.712 20.5095 2.456L14.2125 0.357C12.7845 -0.119 11.2125 -0.119 9.78452 0.357L3.48852 2.456C2.71952 2.712 2.07852 3.279 1.72952 4.01L0.443519 6.717C-0.0334806 7.509 -0.123481 8.459 0.196519 9.326C0.505519 10.166 1.16052 10.816 1.99852 11.122L1.99352 17.436C1.99152 19.594 3.36552 21.502 5.41152 22.184L9.77652 23.639C10.4905 23.877 11.2405 23.996 11.9905 23.996C12.7405 23.996 13.4905 23.877 14.2045 23.639L18.5735 22.182C20.6165 21.501 21.9905 19.597 21.9925 17.443L21.9975 11.123C22.8435 10.826 23.5055 10.177 23.8165 9.333C24.1335 8.475 24.0455 7.534 23.6195 6.834ZM10.4175 2.255C11.4375 1.915 12.5605 1.915 13.5795 2.255L17.8275 3.671L12.0055 5.621L6.17152 3.671L10.4175 2.255ZM2.20252 7.664L3.52952 4.882C3.57752 4.907 10.5865 7.255 10.5865 7.255L8.96552 10.513C8.72652 10.911 8.23052 11.095 7.79252 10.947L2.71152 9.254C2.41452 9.155 2.18152 8.929 2.07252 8.635C1.96352 8.341 1.99452 8.019 2.20152 7.665L2.20252 7.664ZM6.04352 20.287C4.81552 19.878 3.99152 18.733 3.99252 17.439L3.99752 11.791L7.15952 12.845C8.50352 13.293 9.95152 12.758 10.7185 11.474L10.9965 10.917L10.9915 21.898C10.7945 21.858 10.6005 21.807 10.4105 21.743L6.04452 20.288L6.04352 20.287ZM17.9405 20.286L13.5705 21.743C13.3805 21.806 13.1865 21.858 12.9895 21.898L12.9945 10.903L13.3135 11.543C13.8695 12.471 14.8455 13.002 15.8745 13.002C16.1935 13.002 16.5175 12.951 16.8345 12.845L19.9955 11.792L19.9905 17.443C19.9905 18.735 19.1645 19.878 17.9385 20.287L17.9405 20.286ZM21.9405 8.642C21.8355 8.927 21.6095 9.146 21.3215 9.242L16.2035 10.948C15.7655 11.095 15.2695 10.913 15.0675 10.583L13.4125 7.26C13.4125 7.26 20.4185 4.909 20.4665 4.883L21.8595 7.784C22.0165 8.045 22.0455 8.358 21.9405 8.643V8.642Z" fill="#574966"/>
</svg>
