<svg width="24" height="22" viewBox="0 0 24 22" fill="none" xmlns="http://www.w3.org/2000/svg">
<path d="M19 0H5C3.67441 0.00158786 2.40356 0.528882 1.46622 1.46622C0.528882 2.40356 0.00158786 3.67441 0 5L0 17C0.00158786 18.3256 0.528882 19.5964 1.46622 20.5338C2.40356 21.4711 3.67441 21.9984 5 22H19C20.3256 21.9984 21.5964 21.4711 22.5338 20.5338C23.4711 19.5964 23.9984 18.3256 24 17V5C23.9984 3.67441 23.4711 2.40356 22.5338 1.46622C21.5964 0.528882 20.3256 0.00158786 19 0ZM5 2H19C19.7956 2 20.5587 2.31607 21.1213 2.87868C21.6839 3.44129 22 4.20435 22 5V6H2V5C2 4.20435 2.31607 3.44129 2.87868 2.87868C3.44129 2.31607 4.20435 2 5 2ZM19 20H5C4.20435 20 3.44129 19.6839 2.87868 19.1213C2.31607 18.5587 2 17.7956 2 17V8H22V17C22 17.7956 21.6839 18.5587 21.1213 19.1213C20.5587 19.6839 19.7956 20 19 20ZM19 12C19 12.2652 18.8946 12.5196 18.7071 12.7071C18.5196 12.8946 18.2652 13 18 13H6C5.73478 13 5.48043 12.8946 5.29289 12.7071C5.10536 12.5196 5 12.2652 5 12C5 11.7348 5.10536 11.4804 5.29289 11.2929C5.48043 11.1054 5.73478 11 6 11H18C18.2652 11 18.5196 11.1054 18.7071 11.2929C18.8946 11.4804 19 11.7348 19 12ZM15 16C15 16.2652 14.8946 16.5196 14.7071 16.7071C14.5196 16.8946 14.2652 17 14 17H6C5.73478 17 5.48043 16.8946 5.29289 16.7071C5.10536 16.5196 5 16.2652 5 16C5 15.7348 5.10536 15.4804 5.29289 15.2929C5.48043 15.1054 5.73478 15 6 15H14C14.2652 15 14.5196 15.1054 14.7071 15.2929C14.8946 15.4804 15 15.7348 15 16ZM3 4C3 3.80222 3.05865 3.60888 3.16853 3.44443C3.27841 3.27998 3.43459 3.15181 3.61732 3.07612C3.80004 3.00043 4.00111 2.98063 4.19509 3.01921C4.38907 3.0578 4.56725 3.15304 4.70711 3.29289C4.84696 3.43275 4.9422 3.61093 4.98079 3.80491C5.01937 3.99889 4.99957 4.19996 4.92388 4.38268C4.84819 4.56541 4.72002 4.72159 4.55557 4.83147C4.39112 4.94135 4.19778 5 4 5C3.73478 5 3.48043 4.89464 3.29289 4.70711C3.10536 4.51957 3 4.26522 3 4ZM6 4C6 3.80222 6.05865 3.60888 6.16853 3.44443C6.27841 3.27998 6.43459 3.15181 6.61732 3.07612C6.80004 3.00043 7.00111 2.98063 7.19509 3.01921C7.38907 3.0578 7.56725 3.15304 7.70711 3.29289C7.84696 3.43275 7.9422 3.61093 7.98079 3.80491C8.01937 3.99889 7.99957 4.19996 7.92388 4.38268C7.84819 4.56541 7.72002 4.72159 7.55557 4.83147C7.39112 4.94135 7.19778 5 7 5C6.73478 5 6.48043 4.89464 6.29289 4.70711C6.10536 4.51957 6 4.26522 6 4ZM9 4C9 3.80222 9.05865 3.60888 9.16853 3.44443C9.27841 3.27998 9.43459 3.15181 9.61732 3.07612C9.80004 3.00043 10.0011 2.98063 10.1951 3.01921C10.3891 3.0578 10.5673 3.15304 10.7071 3.29289C10.847 3.43275 10.9422 3.61093 10.9808 3.80491C11.0194 3.99889 10.9996 4.19996 10.9239 4.38268C10.8482 4.56541 10.72 4.72159 10.5556 4.83147C10.3911 4.94135 10.1978 5 10 5C9.73478 5 9.48043 4.89464 9.29289 4.70711C9.10536 4.51957 9 4.26522 9 4Z" fill="#574966"/>
</svg>
