<svg width="14" height="12" viewBox="0 0 14 12" fill="none" xmlns="http://www.w3.org/2000/svg">
<path d="M1.21425 6.97106L10.9112 6.97106L7.72092 10.1614C7.63003 10.2515 7.55789 10.3588 7.50866 10.4769C7.45943 10.5951 7.43408 10.7218 7.43408 10.8498C7.43408 10.9779 7.45943 11.1046 7.50866 11.2228C7.55789 11.3409 7.63003 11.4482 7.72092 11.5383C7.9026 11.7189 8.14837 11.8203 8.40455 11.8203C8.66073 11.8203 8.90651 11.7189 9.08819 11.5383L13.2482 7.36863C13.6124 7.0066 13.8181 6.51489 13.8203 6.00136C13.8156 5.4912 13.61 5.00345 13.2482 4.64379L9.08819 0.474088C8.99778 0.384312 8.89057 0.313223 8.77268 0.264881C8.6548 0.216537 8.52854 0.191887 8.40113 0.192338C8.27371 0.192788 8.14764 0.21833 8.03009 0.267505C7.91255 0.316679 7.80585 0.388525 7.71607 0.478939C7.62629 0.569352 7.55521 0.676563 7.50686 0.794449C7.45852 0.912336 7.43387 1.03859 7.43432 1.166C7.43477 1.29342 7.46031 1.41949 7.50949 1.53703C7.55866 1.65458 7.63051 1.76128 7.72092 1.85106L10.9112 5.03167L1.21425 5.03166C0.957073 5.03166 0.710426 5.13383 0.528572 5.31568C0.346718 5.49754 0.244555 5.74418 0.244555 6.00136C0.244555 6.25854 0.346718 6.50519 0.528572 6.68704C0.710426 6.86889 0.957073 6.97106 1.21425 6.97106Z" fill="#DBC5FF"/>
</svg>
