<svg width="17" height="14" viewBox="0 0 17 14" fill="none" xmlns="http://www.w3.org/2000/svg">
<path d="M1.62251 8.19764L12.6971 8.19765L9.05359 11.8412C8.94979 11.9442 8.8674 12.0666 8.81117 12.2016C8.75495 12.3365 8.726 12.4813 8.726 12.6275C8.726 12.7737 8.75495 12.9184 8.81117 13.0534C8.8674 13.1884 8.94979 13.3108 9.05359 13.4138C9.26108 13.6201 9.54177 13.7358 9.83435 13.7358C10.1269 13.7358 10.4076 13.6201 10.6151 13.4138L15.3661 8.65171C15.7821 8.23823 16.0171 7.67667 16.0195 7.09018C16.0141 6.50754 15.7794 5.95049 15.3661 5.53973L10.6151 0.777641C10.5119 0.67511 10.3894 0.593921 10.2548 0.53871C10.1201 0.483499 9.97595 0.455347 9.83044 0.455861C9.68492 0.456375 9.54093 0.485546 9.40669 0.541707C9.27245 0.597868 9.15058 0.679922 9.04805 0.78318C8.94552 0.886438 8.86433 1.00888 8.80912 1.14352C8.75391 1.27815 8.72576 1.42234 8.72627 1.56786C8.72679 1.71337 8.75596 1.85736 8.81212 1.9916C8.86828 2.12584 8.95033 2.24771 9.05359 2.35024L12.6971 5.98272L1.62251 5.98272C1.32879 5.98272 1.0471 6.0994 0.839414 6.30709C0.631724 6.51478 0.515047 6.79646 0.515047 7.09018C0.515047 7.3839 0.631724 7.66559 0.839414 7.87328C1.0471 8.08097 1.32879 8.19764 1.62251 8.19764Z" fill="#8CCFC5"/>
</svg>
