<svg width="16" height="12" viewBox="0 0 16 12" fill="none" xmlns="http://www.w3.org/2000/svg">
<path d="M8.84378 0.445118C9.04381 0.245149 9.31507 0.132813 9.59792 0.132813C9.88076 0.132813 10.152 0.245149 10.352 0.445118L15.1521 5.24512C15.352 5.44515 15.4644 5.71641 15.4644 5.99925C15.4644 6.28209 15.352 6.55335 15.1521 6.75338L10.352 11.5534C10.1509 11.7477 9.88143 11.8552 9.60176 11.8528C9.32208 11.8503 9.05455 11.7382 8.85678 11.5404C8.65901 11.3426 8.54683 11.0751 8.5444 10.7954C8.54197 10.5157 8.64948 10.2463 8.84378 10.0451L11.7313 7.06592L1.59792 7.06592C1.31502 7.06592 1.04371 6.95354 0.843669 6.7535C0.643631 6.55346 0.53125 6.28215 0.53125 5.99925C0.53125 5.71635 0.643631 5.44504 0.843669 5.245C1.04371 5.04497 1.31502 4.93258 1.59792 4.93258L11.7313 4.93258L8.84378 1.95338C8.64382 1.75336 8.53148 1.48209 8.53148 1.19925C8.53148 0.916409 8.64382 0.645147 8.84378 0.445118Z" fill="#1F0D33"/>
</svg>
