<svg width="14" height="12" viewBox="0 0 14 12" fill="none" xmlns="http://www.w3.org/2000/svg">
<path d="M1.49341 6.93092L10.7863 6.93092L7.72897 9.9883C7.64186 10.0747 7.57273 10.1775 7.52555 10.2907C7.47837 10.404 7.45408 10.5254 7.45408 10.6481C7.45408 10.7708 7.47837 10.8922 7.52555 11.0055C7.57273 11.1187 7.64186 11.2215 7.72897 11.3079C7.90308 11.481 8.13861 11.5781 8.38412 11.5781C8.62962 11.5781 8.86515 11.481 9.03927 11.3079L13.0259 7.31193C13.375 6.96498 13.5721 6.49376 13.5742 6.00163C13.5697 5.51273 13.3727 5.04529 13.0259 4.70062L9.03927 0.70466C8.95262 0.618624 8.84988 0.550498 8.73691 0.504169C8.62393 0.45784 8.50294 0.434217 8.38083 0.434649C8.25873 0.43508 8.1379 0.459558 8.02526 0.506684C7.91262 0.553811 7.81036 0.622662 7.72432 0.709308C7.63828 0.795953 7.57016 0.898697 7.52383 1.01167C7.4775 1.12465 7.45388 1.24564 7.45431 1.36774C7.45474 1.48985 7.47922 1.61067 7.52634 1.72332C7.57347 1.83596 7.64232 1.93822 7.72897 2.02426L10.7863 5.07234L1.49341 5.07234C1.24695 5.07234 1.01058 5.17024 0.836299 5.34452C0.662023 5.5188 0.564117 5.75517 0.564117 6.00163C0.564117 6.24809 0.662023 6.48446 0.836299 6.65874C1.01058 6.83302 1.24695 6.93092 1.49341 6.93092Z" fill="#E18F8E"/>
</svg>
