<svg width="12" height="11" viewBox="0 0 12 11" fill="none" xmlns="http://www.w3.org/2000/svg">
<path d="M1.33269 6.38323L9.41211 6.38323L6.75398 9.04136C6.67826 9.11647 6.61815 9.20583 6.57713 9.30429C6.53611 9.40274 6.51499 9.50834 6.51499 9.615C6.51499 9.72166 6.53611 9.82726 6.57713 9.92572C6.61815 10.0242 6.67826 10.1135 6.75398 10.1886C6.90536 10.3391 7.11013 10.4236 7.32358 10.4236C7.53703 10.4236 7.7418 10.3391 7.89318 10.1886L11.3593 6.71449C11.6627 6.41284 11.8341 6.00316 11.8359 5.57529C11.832 5.15023 11.6607 4.74384 11.3593 4.44417L7.89318 0.970021C7.81785 0.89522 7.72852 0.83599 7.6303 0.795711C7.53208 0.755432 7.42689 0.734893 7.32073 0.735269C7.21457 0.735644 7.10952 0.756925 7.01158 0.797897C6.91365 0.838869 6.82474 0.89873 6.74994 0.974061C6.67514 1.04939 6.61591 1.13872 6.57563 1.23694C6.53535 1.33516 6.51482 1.44036 6.51519 1.54652C6.51557 1.65268 6.53685 1.75772 6.57782 1.85566C6.61879 1.95359 6.67865 2.0425 6.75398 2.1173L9.41211 4.76735L1.33269 4.76735C1.11841 4.76735 0.912908 4.85247 0.76139 5.00399C0.609871 5.15551 0.524749 5.36101 0.524749 5.57529C0.524749 5.78957 0.609871 5.99507 0.76139 6.14659C0.912908 6.29811 1.11841 6.38323 1.33269 6.38323Z" fill="white"/>
</svg>
