<svg width="16" height="14" viewBox="0 0 16 14" fill="none" xmlns="http://www.w3.org/2000/svg">
<path d="M1.18501 8.19862L12.2596 8.19862L8.61609 11.8422C8.51229 11.9451 8.4299 12.0676 8.37367 12.2026C8.31745 12.3375 8.2885 12.4823 8.2885 12.6285C8.2885 12.7747 8.31745 12.9194 8.37367 13.0544C8.4299 13.1893 8.51229 13.3118 8.61609 13.4148C8.82358 13.621 9.10427 13.7368 9.39685 13.7368C9.68942 13.7368 9.97011 13.621 10.1776 13.4148L14.9286 8.65268C15.3446 8.23921 15.5796 7.67765 15.582 7.09116C15.5766 6.50852 15.3419 5.95147 14.9286 5.54071L10.1776 0.778617C10.0744 0.676087 9.95191 0.594898 9.81728 0.539687C9.68264 0.484476 9.53845 0.456323 9.39293 0.456837C9.24742 0.457351 9.10343 0.486523 8.96919 0.542684C8.83495 0.598845 8.71308 0.680898 8.61055 0.784156C8.50802 0.887414 8.42683 1.00986 8.37162 1.14449C8.31641 1.27913 8.28826 1.42332 8.28877 1.56883C8.28928 1.71435 8.31845 1.85834 8.37462 1.99258C8.43078 2.12682 8.51283 2.24868 8.61609 2.35122L12.2596 5.9837L1.18501 5.98369C0.89129 5.98369 0.609603 6.10037 0.401912 6.30806C0.194223 6.51575 0.0775448 6.79744 0.0775448 7.09116C0.0775448 7.38488 0.194223 7.66656 0.401912 7.87425C0.609602 8.08194 0.89129 8.19862 1.18501 8.19862Z" fill="#508AD3"/>
</svg>
