<svg width="20" height="20" viewBox="0 0 20 20" fill="none" xmlns="http://www.w3.org/2000/svg">
<g clip-path="url(#clip0_4134_4013)">
<path d="M15.8333 0.835938H4.16667C3.062 0.837261 2.00296 1.27667 1.22185 2.05779C0.440735 2.8389 0.00132321 3.89794 0 5.0026L0 11.6693C0.00132321 12.7739 0.440735 13.833 1.22185 14.6141C2.00296 15.3952 3.062 15.8346 4.16667 15.8359H9.16667V17.5026H5.83333C5.61232 17.5026 5.40036 17.5904 5.24408 17.7467C5.0878 17.903 5 18.1149 5 18.3359C5 18.557 5.0878 18.7689 5.24408 18.9252C5.40036 19.0815 5.61232 19.1693 5.83333 19.1693H14.1667C14.3877 19.1693 14.5996 19.0815 14.7559 18.9252C14.9122 18.7689 15 18.557 15 18.3359C15 18.1149 14.9122 17.903 14.7559 17.7467C14.5996 17.5904 14.3877 17.5026 14.1667 17.5026H10.8333V15.8359H15.8333C16.938 15.8346 17.997 15.3952 18.7782 14.6141C19.5593 13.833 19.9987 12.7739 20 11.6693V5.0026C19.9987 3.89794 19.5593 2.8389 18.7782 2.05779C17.997 1.27667 16.938 0.837261 15.8333 0.835938ZM4.16667 2.5026H15.8333C16.4964 2.5026 17.1323 2.766 17.6011 3.23484C18.0699 3.70368 18.3333 4.33956 18.3333 5.0026V10.8359H1.66667V5.0026C1.66667 4.33956 1.93006 3.70368 2.3989 3.23484C2.86774 2.766 3.50363 2.5026 4.16667 2.5026ZM15.8333 14.1693H4.16667C3.65145 14.1671 3.14948 14.0059 2.72942 13.7075C2.30936 13.4092 1.99174 12.9884 1.82 12.5026H18.18C18.0083 12.9884 17.6906 13.4092 17.2706 13.7075C16.8505 14.0059 16.3486 14.1671 15.8333 14.1693Z" fill="#F2F2F2"/>
</g>
<defs>
<clipPath id="clip0_4134_4013">
<rect width="20" height="20" fill="white"/>
</clipPath>
</defs>
</svg>
