<svg width="45" height="43" viewBox="0 0 45 43" fill="none" xmlns="http://www.w3.org/2000/svg">
<path d="M44.0656 11.7519C44.0656 11.7398 44.0596 11.7307 44.0596 11.7201C44.0761 11.2536 43.9872 10.7826 43.7718 10.3524L39.7102 2.22839C39.2297 1.26817 38.2655 0.669922 37.1944 0.669922H6.87272C5.80159 0.669922 4.83742 1.26817 4.35684 2.22839L0.295277 10.3509C0.0798453 10.7811 -0.0090391 11.2506 0.00753257 11.7171C0.00753257 11.7292 0 11.7398 0 11.7519C0 11.7579 0.00301299 11.764 0.00301299 11.7701C0.0301303 12.282 0.188314 12.7848 0.486604 13.224L19.7143 41.4416C20.24 42.211 21.1063 42.6699 22.0328 42.6699C22.9593 42.6699 23.8255 42.211 24.3513 41.4401L43.579 13.224C43.8773 12.7863 44.0354 12.282 44.0626 11.7701C44.0626 11.7625 44.0656 11.7579 44.0656 11.7519ZM38.026 3.07806L41.8902 10.8053H30.409L28.4671 2.56311H37.1929C37.5484 2.56311 37.8678 2.76 38.026 3.07806ZM22.0328 39.1774L15.6 12.6985H28.4641L22.0328 39.1774ZM26.5312 2.56311L28.4731 10.8053H15.5939L17.5358 2.56311H26.5312ZM6.03962 3.07806C6.1978 2.76 6.51719 2.56311 6.87272 2.56311H15.5985L13.6566 10.8053H2.17541L6.03962 3.07806ZM2.41193 12.6985H13.6626L19.895 38.3535L2.41193 12.6985ZM24.172 38.3519L30.403 12.6985H41.6536L24.172 38.3519Z" fill="white"/>
</svg>
