<svg width="211" height="591" viewBox="0 0 211 591" fill="none" xmlns="http://www.w3.org/2000/svg">
<g opacity="0.39">
<path d="M139.873 233.781C139.51 232.482 139.441 231.121 139.67 229.793C140.144 224.68 140.194 219.537 139.818 214.416C139.715 213.717 139.775 213.004 139.994 212.331C140.835 210.406 143.298 211.044 144.713 211.839C146.542 212.87 147.931 214.523 148.622 216.491C148.254 216.176 147.868 215.882 147.466 215.611C148.814 217.757 149.866 220.072 150.596 222.494C150.563 224.626 150.249 226.745 149.662 228.797C149.662 228.797 150.734 228.225 150.896 227.579C150.426 229.178 149.709 230.694 148.77 232.075C148.01 233.2 146.95 234.095 145.707 234.659C144.464 235.223 143.088 235.435 141.731 235.271C141.319 235.199 140.932 235.025 140.607 234.764C140.282 234.503 140.03 234.165 139.873 233.781Z" fill="#CBCBCB"/>
<path d="M53.6799 188.777C44.4219 184.309 33.8885 186.835 30.1529 194.42C26.4173 202.005 30.8941 211.777 40.152 216.245C49.41 220.714 59.9433 218.187 63.679 210.602C67.4146 203.017 62.9378 193.246 53.6799 188.777Z" fill="white"/>
<path d="M93.1943 166.783C85.3292 160.745 74.8607 161.076 69.8123 167.52C64.7638 173.965 67.0472 184.085 74.9123 190.122C82.7774 196.16 93.2459 195.83 98.2943 189.385C103.343 182.94 101.059 172.821 93.1943 166.783Z" fill="white"/>
<path d="M68.6124 223.302C68.6124 223.302 67.6345 233.922 85.3133 239.864C91.2531 241.972 96.5806 245.489 100.83 250.107C104.138 253.466 107.214 255.641 112.166 255.113C114.84 254.932 117.337 253.729 119.131 251.758C125.968 243.892 119.84 232.249 119.855 223.383C119.869 214.518 126.047 202.883 119.223 195.007C117.442 193.022 114.945 191.809 112.269 191.63C107.343 191.086 104.235 193.239 100.916 196.599C96.6481 201.197 91.3103 204.692 85.3668 206.781C67.6688 212.667 68.6124 223.302 68.6124 223.302Z" fill="white"/>
<path d="M63.6975 235.998C59.9865 228.401 49.4613 225.841 40.189 230.28C30.9166 234.719 26.4083 244.476 30.1194 252.073C33.8305 259.67 44.3556 262.23 53.6279 257.79C62.9003 253.351 67.4086 243.594 63.6975 235.998Z" fill="white"/>
<path d="M99.0763 258.303C94.0613 251.852 83.6141 251.485 75.7417 257.482C67.8694 263.48 65.553 273.572 70.568 280.023C75.583 286.474 86.0303 286.841 93.9026 280.843C101.775 274.845 104.091 264.754 99.0763 258.303Z" fill="white"/>
<path d="M69.6352 279.077C69.6352 279.077 80.1766 280.74 86.4753 278.092C92.7741 275.444 95.5186 269.278 98.1863 257.295C98.1863 257.295 105.562 266.379 95.9122 277.241C86.2621 288.103 73.4453 284.303 69.6352 279.077Z" fill="#D2D2D2"/>
<path d="M32.7103 255.686C32.7103 255.686 43.56 257.166 51.4618 253.411C59.3636 249.655 63.5137 242.711 64.2121 237.371C64.2121 237.371 68.1853 248.352 56.1995 256.332C44.2136 264.313 34.3947 257.676 32.7103 255.686Z" fill="#D2D2D2"/>
<path d="M43.455 217.53C46.2227 217.24 48.96 216.714 51.6366 215.958C54.3193 215.202 56.7965 213.86 58.8859 212.031C61.8205 209.056 63.7874 205.279 64.5327 201.187C65.1019 203.371 65.1132 205.661 64.5656 207.851C64.018 210.04 62.9288 212.061 61.396 213.73C59.3905 215.801 56.8643 217.305 54.0769 218.09C51.2895 218.874 48.3415 218.909 45.5357 218.192C45.1786 218.106 44.8338 218.008 44.4891 217.898C44.1615 217.733 43.814 217.609 43.455 217.53Z" fill="#D2D2D2"/>
<path d="M82.3546 193.819C82.3546 193.819 94.1077 192.703 100.774 183.8C100.774 183.8 100.383 189.555 93.7006 193.044C90.1418 194.668 86.105 194.943 82.3546 193.819Z" fill="#D2D2D2"/>
<path d="M88.0621 240.888C93.8618 242.116 99.8828 243.675 104.336 247.559C105.548 248.827 106.925 249.928 108.432 250.834C109.451 251.312 110.578 251.52 111.703 251.438C112.828 251.357 113.912 250.988 114.85 250.368C117.539 248.556 118.444 245.021 118.387 241.838C118.308 237.448 116.861 233.19 116.573 228.812C116.092 221.238 119.061 213.914 122.311 207.018C120.424 214.668 119.89 222.585 120.734 230.416C121.354 235.099 122.64 239.772 122.066 244.453C121.832 247.046 120.815 249.509 119.148 251.521C118.139 252.612 116.923 253.496 115.569 254.122C114.216 254.747 112.751 255.102 111.258 255.167C109.755 255.25 108.249 255.032 106.833 254.527C105.416 254.022 104.116 253.24 103.01 252.228C98.5471 247.82 93.522 244.008 88.0621 240.888Z" fill="#D2D2D2"/>
<path d="M80.6921 260.407C78.9449 259.066 75.8996 260.058 73.8902 262.623C71.8808 265.188 71.6683 268.355 73.4155 269.696C75.1627 271.038 78.208 270.045 80.2174 267.48C82.2267 264.915 82.4393 261.748 80.6921 260.407Z" fill="#BDBDBD"/>
<path d="M77.4975 168.174C76.2664 167.229 74.1194 167.929 72.702 169.739C71.2846 171.548 71.1336 173.781 72.3647 174.726C73.5958 175.671 75.7428 174.971 77.1602 173.161C78.5776 171.352 78.7286 169.119 77.4975 168.174Z" fill="#BDBDBD"/>
<path d="M77.6877 215.493C76.2079 214.779 74.1406 215.962 73.0703 218.135C72 220.308 72.332 222.649 73.8118 223.363C75.2916 224.077 77.3589 222.895 78.4292 220.721C79.4995 218.548 79.1675 216.207 77.6877 215.493Z" fill="#BDBDBD"/>
<path d="M44.7803 237.774C43.6779 235.876 40.48 235.65 37.6377 237.269C34.7954 238.888 33.3849 241.738 34.4873 243.635C35.5897 245.532 38.7876 245.758 41.6299 244.14C44.4723 242.521 45.8827 239.671 44.7803 237.774Z" fill="#BDBDBD"/>
<path d="M39.1443 202.315C36.9613 201.262 34.6115 201.585 33.896 203.038C33.1805 204.491 34.3701 206.523 36.5531 207.577C38.7362 208.63 41.0859 208.307 41.8014 206.854C42.5169 205.401 41.3273 203.369 39.1443 202.315Z" fill="#BDBDBD"/>
<path d="M57.5402 268.521C57.5402 268.521 60.4618 290.024 81.0685 290.776C101.675 291.528 120.246 264.291 120.246 264.291C120.246 264.291 180.42 263.728 194.146 268.737L187.615 270.495C187.615 270.495 210.301 272.568 235.5 274.754C233.294 275.836 231.05 276.881 228.806 277.914C221.04 281.56 214.099 285.695 205.01 284.485C205.096 284.485 232.643 289.529 236.054 290.156L236.374 290.632L156.065 280.493L123.305 276.917L104.99 290.546L88.2892 296.934L72.7181 297.677L64.9762 293.897L57.1441 284.983L53.4643 275.295L46.7979 276.808L35.7137 275.571L25.2637 270.677L21.5788 264.135L18.0299 257.35L15.1202 243.76C15.1202 243.76 22.7496 271.417 57.5402 268.521Z" fill="#CBCBCB"/>
<path d="M319.547 292.526C309.841 292.254 300.135 291.873 290.429 291.529C280.723 291.184 271.017 290.766 261.311 290.373L262.35 287.935L269.201 294.043L273.162 297.537L267.891 296.688C262.029 295.752 256.291 294.474 250.565 293.124C244.84 291.773 239.176 290.265 233.5 288.682L235.722 285.686L238.18 289.19L241.301 293.707L235.872 292.235C231.37 291.034 226.808 290.07 222.203 289.347C217.561 288.56 212.869 287.93 208.176 287.301C198.792 286.067 189.358 285.125 179.924 284.135C170.49 283.144 161.044 282.324 151.597 281.517C142.15 280.709 132.679 279.889 123.269 279.179L125.192 278.536C119.464 283.313 113.305 287.561 106.793 291.225C105.19 292.162 103.514 293.001 101.862 293.864C100.21 294.727 98.4963 295.505 96.7215 296.16L94.0837 297.205L91.3723 298.091L90.0043 298.528L88.5995 298.855L85.79 299.509L82.8824 299.882C82.402 299.881 81.9213 300.027 81.4286 300.051L79.9504 300.048C78.9616 300.102 77.9705 300.1 76.9818 300.044L74.0261 299.661C70.0678 298.923 66.3354 297.289 63.1201 294.888C59.9958 292.472 57.3914 289.462 55.4603 286.035C54.5065 284.368 53.6856 282.63 53.0051 280.836C52.304 279.017 51.755 277.144 51.3635 275.236L54.3172 276.863C52.5824 277.469 50.7908 277.904 48.9691 278.159C47.1962 278.427 45.4032 278.542 43.6103 278.504C39.9836 278.467 36.4021 277.704 33.0811 276.261C29.76 274.818 26.7679 272.725 24.2846 270.108C21.8781 267.562 19.8579 264.684 18.2872 261.563C16.6958 258.471 15.509 255.191 14.7554 251.802C13.9163 248.441 13.5652 244.979 13.7127 241.52C13.8579 236.29 15.332 231.18 17.9987 226.662C18.8897 225.127 19.9541 223.697 21.1714 222.399L21.1686 224.082C18.9978 221.365 17.3342 218.286 16.2561 214.99C15.1736 211.747 14.5733 208.365 14.4739 204.951C14.4806 198.166 16.1214 191.48 19.2602 185.448C20.7632 182.38 22.7652 179.578 25.1862 177.153C26.4158 175.959 27.7535 174.879 29.1825 173.928C30.632 173.006 32.1678 172.224 33.7685 171.594C36.9612 170.403 40.3379 169.769 43.7491 169.719C47.1763 169.602 50.6008 170.019 53.8971 170.955L52.8861 171.514C53.7912 167.99 55.1201 164.586 56.8443 161.375C58.5387 158.099 60.8371 155.166 63.6208 152.727C66.4972 150.244 70.0539 148.662 73.8397 148.183C77.5346 147.849 81.2567 147.957 84.9254 148.505C92.1969 149.712 99.1976 152.175 105.608 155.782C111.96 159.335 117.991 163.425 123.634 168.004L123.4 167.845L128.766 170.927L127.534 170.657C134.286 170.033 141.086 169.459 147.776 168.933L168.09 167.38L188.344 165.888C190.056 165.744 191.682 165.686 193.271 165.529C194.861 165.373 196.536 165.181 198.2 164.915C201.421 164.414 204.601 163.677 207.713 162.711L215.304 160.284L209.974 166.056L207.765 168.418L206.145 165.013L234.551 163.961L248.755 163.508L262.958 163.189C272.431 162.972 281.904 162.743 291.376 162.636C300.849 162.529 310.322 162.325 319.795 162.291C319.826 162.289 319.858 162.294 319.888 162.305C319.918 162.316 319.945 162.333 319.968 162.355C319.991 162.376 320.009 162.403 320.022 162.432C320.034 162.461 320.041 162.492 320.041 162.523C320.044 162.586 320.023 162.648 319.981 162.695C319.94 162.743 319.882 162.773 319.818 162.779C310.357 163.422 300.908 163.968 291.484 164.49C282.06 165.012 272.575 165.521 263.15 166.006L248.959 166.727L234.78 167.558L206.446 169.087L201.518 169.347L204.838 165.694L207.01 163.259L209.234 166.591C205.898 167.648 202.488 168.458 199.031 169.014C197.318 169.304 195.593 169.533 193.868 169.701C192.143 169.869 190.382 169.964 188.719 170.12L168.502 171.697L148.286 173.165C141.547 173.618 134.735 174.119 128.058 174.511L127.393 174.51L126.888 174.204L121.621 170.964L121.474 170.879L121.388 170.806C115.978 166.209 110.178 162.083 104.051 158.474C98.0243 154.849 91.4048 152.293 84.4904 150.919C81.0492 150.311 77.5483 150.1 74.0581 150.293C70.6452 150.619 67.415 151.972 64.801 154.168C62.1458 156.421 59.9361 159.143 58.2841 162.194C56.5783 165.268 55.2733 168.544 54.4005 171.943L54.1899 172.736L53.3896 172.503C47.1269 170.583 40.3972 170.778 34.2589 173.058C32.7656 173.665 31.3333 174.41 29.9809 175.282C28.6583 176.19 27.42 177.212 26.2806 178.337C24.0186 180.652 22.1431 183.308 20.7248 186.206C17.7499 191.987 16.2668 198.407 16.408 204.893C16.5704 208.091 17.2086 211.248 18.3021 214.261C18.8487 215.759 19.5136 217.211 20.2906 218.606C21.0514 219.967 21.9402 221.255 22.9451 222.451L23.6828 223.281L22.9054 224.146C21.8831 225.317 20.993 226.596 20.2508 227.959C19.4703 229.34 18.8166 230.788 18.2976 232.284C17.2475 235.284 16.7096 238.436 16.7058 241.611C16.6548 244.795 17.0644 247.97 17.9224 251.039C18.7072 254.125 19.8819 257.102 21.4187 259.897C22.9101 262.675 24.7839 265.235 26.9865 267.503C29.1633 269.692 31.7504 271.44 34.603 272.649C37.4664 273.813 40.5337 274.406 43.6292 274.395C45.1895 274.395 46.7471 274.267 48.286 274.012C49.7811 273.769 51.2498 273.387 52.6731 272.873L55.1381 271.974L55.6883 274.499C56.0655 276.124 56.5653 277.719 57.1834 279.27C57.81 280.843 58.5613 282.365 59.4303 283.822C61.0809 286.713 63.306 289.242 65.9714 291.258C68.62 293.19 71.682 294.492 74.9204 295.065L77.3835 295.362C78.2041 295.404 79.0264 295.406 79.8471 295.365L81.0789 295.367C81.4977 295.368 81.9167 295.259 82.311 295.199L84.7751 294.849C91.6587 293.25 98.2355 290.559 104.25 286.88C110.387 283.287 116.204 279.184 121.639 274.616L122.49 273.886L123.561 273.973C133.061 274.671 142.545 275.438 152.012 276.274C161.479 277.11 170.95 278.064 180.425 279.136C189.896 280.187 199.342 281.348 208.75 282.741C213.467 283.468 218.184 284.183 222.888 285.081C227.667 285.906 232.398 286.984 237.06 288.31L234.752 291.355L232.405 287.815L229.382 283.249L234.627 284.819C240.204 286.486 245.831 288.056 251.47 289.552C257.11 291.049 262.749 292.509 268.413 293.591L267.103 296.235L260.437 289.981L257.547 287.269L261.476 287.556C271.157 288.266 280.85 288.928 290.53 289.712C300.211 290.495 309.892 291.194 319.573 292.014C319.605 292.017 319.636 292.026 319.665 292.041C319.694 292.057 319.719 292.077 319.74 292.102C319.76 292.127 319.776 292.156 319.785 292.187C319.794 292.218 319.797 292.25 319.794 292.282C319.798 292.315 319.794 292.349 319.783 292.38C319.772 292.411 319.754 292.44 319.73 292.463C319.706 292.487 319.678 292.505 319.646 292.515C319.614 292.526 319.58 292.53 319.547 292.526Z" fill="white"/>
</g>
<g opacity="0.39">
<path d="M171.727 394.498C171.454 393.521 171.402 392.497 171.574 391.497C171.931 387.651 171.968 383.781 171.686 379.928C171.608 379.402 171.653 378.865 171.818 378.36C172.451 376.911 174.303 377.391 175.368 377.989C176.744 378.765 177.79 380.008 178.31 381.489C178.033 381.252 177.742 381.031 177.44 380.827C178.454 382.442 179.246 384.184 179.795 386.006C179.77 387.61 179.534 389.204 179.092 390.748C179.092 390.748 179.899 390.318 180.02 389.832C179.667 391.035 179.127 392.176 178.421 393.215C177.849 394.061 177.051 394.734 176.116 395.159C175.181 395.583 174.146 395.743 173.125 395.619C172.815 395.565 172.524 395.434 172.279 395.238C172.035 395.042 171.845 394.787 171.727 394.498Z" fill="#CBCBCB"/>
<path d="M106.875 360.637C99.9098 357.275 91.9846 359.175 89.1739 364.882C86.3633 370.589 89.7316 377.941 96.6972 381.303C103.663 384.665 111.588 382.764 114.399 377.057C117.209 371.35 113.841 363.999 106.875 360.637Z" fill="white"/>
<path d="M136.607 344.081C130.689 339.539 122.813 339.787 119.014 344.636C115.216 349.485 116.934 357.099 122.852 361.642C128.769 366.185 136.646 365.936 140.444 361.087C144.242 356.238 142.524 348.624 136.607 344.081Z" fill="white"/>
<path d="M118.111 386.611C118.111 386.611 117.375 394.602 130.677 399.072C135.146 400.659 139.154 403.305 142.351 406.779C144.84 409.306 147.154 410.943 150.881 410.545C152.892 410.409 154.771 409.504 156.121 408.022C161.265 402.103 156.655 393.343 156.665 386.673C156.676 380.002 161.324 371.248 156.19 365.322C154.85 363.829 152.971 362.916 150.958 362.781C147.251 362.372 144.913 363.992 142.416 366.52C139.205 369.979 135.189 372.609 130.717 374.181C117.401 378.61 118.111 386.611 118.111 386.611Z" fill="white"/>
<path d="M114.412 396.165C111.62 390.449 103.701 388.523 96.7247 391.863C89.7482 395.203 86.3562 402.544 89.1484 408.26C91.9406 413.976 99.8596 415.902 106.836 412.562C113.813 409.222 117.205 401.881 114.412 396.165Z" fill="white"/>
<path d="M141.031 412.94C137.258 408.087 129.398 407.81 123.475 412.323C117.552 416.836 115.809 424.428 119.582 429.282C123.355 434.136 131.216 434.412 137.139 429.899C143.062 425.387 144.805 417.794 141.031 412.94Z" fill="white"/>
<path d="M118.88 428.579C118.88 428.579 126.812 429.83 131.551 427.838C136.29 425.845 138.355 421.206 140.362 412.19C140.362 412.19 145.912 419.025 138.651 427.197C131.39 435.37 121.747 432.51 118.88 428.579Z" fill="#D2D2D2"/>
<path d="M91.0992 410.97C91.0992 410.97 99.2624 412.084 105.208 409.259C111.153 406.433 114.275 401.208 114.801 397.191C114.801 397.191 117.79 405.453 108.772 411.457C99.7542 417.461 92.3665 412.468 91.0992 410.97Z" fill="#D2D2D2"/>
<path d="M99.1821 382.264C101.264 382.045 103.324 381.65 105.338 381.081C107.356 380.512 109.22 379.503 110.792 378.126C113 375.888 114.48 373.046 115.041 369.968C115.469 371.611 115.478 373.334 115.066 374.981C114.654 376.629 113.834 378.149 112.681 379.405C111.172 380.963 109.271 382.095 107.174 382.685C105.077 383.275 102.859 383.302 100.748 382.762C100.479 382.697 100.22 382.624 99.9601 382.541C99.7136 382.416 99.4522 382.323 99.1821 382.264Z" fill="#D2D2D2"/>
<path d="M128.451 364.423C128.451 364.423 137.294 363.584 142.309 356.885C142.309 356.885 142.015 361.215 136.988 363.84C134.31 365.062 131.273 365.269 128.451 364.423Z" fill="#D2D2D2"/>
<path d="M132.745 399.841C137.109 400.765 141.639 401.937 144.989 404.86C145.901 405.814 146.937 406.642 148.071 407.324C148.838 407.684 149.686 407.84 150.532 407.779C151.379 407.718 152.194 407.44 152.9 406.974C154.923 405.61 155.604 402.95 155.561 400.556C155.502 397.253 154.413 394.049 154.196 390.755C153.835 385.057 156.068 379.546 158.514 374.357C157.094 380.113 156.692 386.07 157.327 391.962C157.794 395.486 158.761 399.001 158.329 402.523C158.153 404.474 157.388 406.327 156.133 407.841C155.374 408.662 154.46 409.327 153.441 409.798C152.423 410.268 151.32 410.536 150.197 410.584C149.066 410.646 147.934 410.483 146.868 410.103C145.801 409.723 144.823 409.134 143.992 408.373C140.634 405.056 136.853 402.188 132.745 399.841Z" fill="#D2D2D2"/>
<path d="M127.2 414.527C125.885 413.518 123.594 414.265 122.082 416.195C120.571 418.125 120.411 420.507 121.725 421.517C123.04 422.526 125.331 421.779 126.843 419.849C128.355 417.919 128.515 415.536 127.2 414.527Z" fill="#BDBDBD"/>
<path d="M124.795 345.126C123.869 344.415 122.253 344.942 121.187 346.304C120.121 347.665 120.007 349.345 120.933 350.056C121.859 350.767 123.475 350.24 124.541 348.879C125.608 347.517 125.721 345.837 124.795 345.126Z" fill="#BDBDBD"/>
<path d="M124.939 380.731C123.826 380.193 122.271 381.083 121.465 382.718C120.66 384.353 120.91 386.115 122.023 386.652C123.136 387.189 124.692 386.299 125.497 384.664C126.302 383.029 126.053 381.268 124.939 380.731Z" fill="#BDBDBD"/>
<path d="M100.18 397.497C99.3506 396.07 96.9446 395.9 94.806 397.118C92.6674 398.336 91.6062 400.48 92.4356 401.907C93.2651 403.335 95.6711 403.505 97.8097 402.287C99.9483 401.069 101.009 398.925 100.18 397.497Z" fill="#BDBDBD"/>
<path d="M95.9384 370.817C94.296 370.024 92.528 370.268 91.9897 371.361C91.4513 372.454 92.3464 373.983 93.9889 374.776C95.6314 375.568 97.3993 375.325 97.9377 374.232C98.476 373.139 97.5809 371.61 95.9384 370.817Z" fill="#BDBDBD"/>
<path d="M109.781 420.632C109.781 420.632 111.979 436.811 127.483 437.376C142.988 437.942 156.96 417.449 156.96 417.449C156.96 417.449 202.234 417.026 212.562 420.795L207.648 422.117C207.648 422.117 224.717 423.676 243.677 425.321C242.016 426.135 240.328 426.921 238.64 427.699C232.797 430.442 227.574 433.553 220.736 432.643C220.801 432.643 241.527 436.438 244.094 436.91L244.334 437.268L183.91 429.64L159.261 426.949L145.482 437.203L132.916 442.009L121.201 442.569L115.376 439.724L109.483 433.017L106.714 425.728L101.698 426.867L93.3587 425.936L85.4961 422.254L82.7237 417.332L80.0535 412.226L77.8643 402.002C77.8643 402.002 83.6046 422.811 109.781 420.632Z" fill="#CBCBCB"/>
<path d="M306.912 438.693C299.61 438.489 292.307 438.202 285.004 437.943C277.702 437.683 270.399 437.369 263.096 437.073L263.878 435.239L269.032 439.835L272.013 442.464L268.047 441.824C263.636 441.12 259.319 440.159 255.011 439.143C250.703 438.127 246.442 436.992 242.171 435.801L243.843 433.547L245.692 436.183L248.041 439.581L243.956 438.474C240.569 437.57 237.136 436.845 233.672 436.302C230.179 435.709 226.648 435.235 223.118 434.762C216.057 433.833 208.959 433.125 201.861 432.379C194.763 431.634 187.656 431.017 180.548 430.41C173.441 429.802 166.314 429.185 159.235 428.651L160.681 428.167C156.371 431.762 151.737 434.957 146.838 437.715C145.632 438.419 144.371 439.05 143.128 439.7C141.885 440.349 140.595 440.934 139.26 441.428L137.275 442.213L135.235 442.88L134.206 443.209L133.149 443.455L131.035 443.947L128.848 444.228C128.486 444.227 128.125 444.337 127.754 444.355L126.642 444.353C125.898 444.393 125.152 444.392 124.408 444.349L122.184 444.061C119.206 443.506 116.398 442.277 113.979 440.47C111.628 438.653 109.668 436.388 108.215 433.809C107.498 432.555 106.88 431.247 106.368 429.898C105.841 428.529 105.428 427.12 105.133 425.684L107.355 426.908C106.05 427.365 104.702 427.691 103.332 427.884C101.998 428.085 100.649 428.172 99.2996 428.143C96.5709 428.115 93.8762 427.541 91.3775 426.455C88.8787 425.37 86.6275 423.795 84.7591 421.826C82.9484 419.911 81.4284 417.745 80.2467 415.397C79.0493 413.07 78.1564 410.602 77.5894 408.053C76.958 405.524 76.6938 402.919 76.8049 400.317C76.9141 396.381 78.0232 392.537 80.0296 389.138C80.7 387.983 81.5008 386.906 82.4167 385.93L82.4146 387.196C80.7813 385.152 79.5297 382.835 78.7185 380.355C77.904 377.915 77.4524 375.371 77.3776 372.802C77.3826 367.697 78.6171 362.667 80.9787 358.128C82.1096 355.82 83.6159 353.712 85.4374 351.887C86.3626 350.989 87.3691 350.177 88.4442 349.46C89.5348 348.767 90.6903 348.179 91.8947 347.704C94.2969 346.809 96.8375 346.332 99.404 346.294C101.983 346.206 104.559 346.519 107.039 347.224L106.279 347.645C106.96 344.993 107.959 342.432 109.257 340.016C110.532 337.551 112.261 335.345 114.355 333.51C116.52 331.641 119.196 330.451 122.044 330.09C124.824 329.839 127.624 329.92 130.385 330.333C135.856 331.241 141.123 333.094 145.946 335.807C150.726 338.481 155.263 341.558 159.509 345.004L159.333 344.884L163.37 347.203L162.443 346.999C167.523 346.53 172.64 346.098 177.673 345.702L192.958 344.534L208.196 343.411C209.484 343.303 210.708 343.259 211.904 343.142C213.099 343.024 214.36 342.88 215.611 342.68C218.035 342.303 220.428 341.748 222.769 341.021L228.481 339.195L224.47 343.538L222.808 345.315L221.589 342.753L242.962 341.962L253.649 341.621L264.335 341.381C271.463 341.218 278.59 341.045 285.717 340.965C292.844 340.884 299.972 340.731 307.099 340.705C307.123 340.704 307.146 340.708 307.169 340.716C307.191 340.724 307.212 340.737 307.229 340.753C307.246 340.769 307.26 340.789 307.27 340.811C307.279 340.833 307.284 340.856 307.284 340.88C307.286 340.927 307.27 340.973 307.239 341.009C307.208 341.045 307.164 341.068 307.117 341.072C299.998 341.556 292.889 341.967 285.798 342.36C278.708 342.752 271.571 343.135 264.48 343.5L253.802 344.043L243.134 344.668L221.816 345.818L218.108 346.014L220.606 343.266L222.24 341.433L223.914 343.941C221.404 344.736 218.838 345.345 216.237 345.763C214.948 345.982 213.65 346.154 212.353 346.28C211.055 346.407 209.729 346.478 208.478 346.595L193.267 347.782L178.057 348.887C172.987 349.227 167.861 349.605 162.837 349.899L162.337 349.899L161.957 349.669L157.995 347.231L157.883 347.167L157.819 347.111C153.749 343.653 149.384 340.549 144.775 337.833C140.24 335.106 135.26 333.182 130.057 332.149C127.468 331.691 124.834 331.533 122.208 331.678C119.64 331.924 117.21 332.941 115.243 334.594C113.246 336.289 111.583 338.336 110.34 340.632C109.057 342.945 108.075 345.41 107.418 347.967L107.26 348.564L106.657 348.388C101.945 346.944 96.8821 347.091 92.2636 348.806C91.1401 349.263 90.0625 349.823 89.0449 350.48C88.0498 351.163 87.1181 351.932 86.2608 352.778C84.5589 354.52 83.1479 356.518 82.0807 358.699C79.8424 363.048 78.7266 367.878 78.8327 372.759C78.9549 375.165 79.4352 377.54 80.2579 379.807C80.6692 380.934 81.1694 382.027 81.754 383.076C82.3265 384.1 82.9951 385.069 83.7512 385.969L84.3063 386.594L83.7213 387.244C82.9522 388.126 82.2825 389.088 81.7241 390.113C81.1368 391.152 80.645 392.242 80.2545 393.368C79.4644 395.625 79.0597 397.996 79.0569 400.385C79.0184 402.78 79.3267 405.169 79.9722 407.478C80.5627 409.801 81.4465 412.04 82.6028 414.143C83.7249 416.234 85.1347 418.16 86.7919 419.866C88.4298 421.513 90.3763 422.828 92.5225 423.738C94.677 424.614 96.9848 425.06 99.3138 425.051C100.488 425.052 101.66 424.955 102.818 424.763C103.942 424.58 105.048 424.293 106.118 423.906L107.973 423.23L108.387 425.13C108.671 426.352 109.047 427.552 109.512 428.719C109.983 429.903 110.549 431.048 111.202 432.144C112.444 434.319 114.119 436.222 116.124 437.739C118.117 439.193 120.421 440.173 122.857 440.603L124.71 440.827C125.328 440.859 125.946 440.86 126.564 440.829L127.491 440.831C127.806 440.831 128.121 440.749 128.418 440.704L130.272 440.441C135.451 439.238 140.399 437.213 144.925 434.445C149.542 431.742 153.918 428.655 158.007 425.218L158.648 424.668L159.454 424.734C166.602 425.259 173.737 425.836 180.86 426.465C187.983 427.094 195.109 427.812 202.238 428.618C209.364 429.409 216.471 430.283 223.55 431.331C227.099 431.878 230.647 432.416 234.187 433.091C237.782 433.713 241.342 434.524 244.85 435.521L243.113 437.812L241.347 435.148L239.073 431.713L243.019 432.894C247.216 434.149 251.449 435.33 255.692 436.456C259.935 437.582 264.178 438.68 268.44 439.494L267.454 441.484L262.439 436.778L260.264 434.738L263.22 434.954C270.504 435.488 277.797 435.986 285.081 436.576C292.364 437.165 299.648 437.691 306.932 438.308C306.956 438.31 306.98 438.317 307.001 438.328C307.023 438.34 307.042 438.355 307.057 438.374C307.073 438.393 307.085 438.415 307.091 438.438C307.098 438.461 307.101 438.486 307.098 438.51C307.101 438.535 307.098 438.56 307.09 438.583C307.082 438.607 307.068 438.628 307.05 438.646C307.032 438.664 307.011 438.677 306.987 438.685C306.963 438.693 306.938 438.696 306.912 438.693Z" fill="white"/>
</g>
<g opacity="0.39">
<path d="M1.40165 543.211C1.40165 543.211 8.80354 566.617 42.4737 564.257C42.4737 564.257 45.3098 582.447 65.2418 583.087C85.1738 583.727 106.437 566.524 106.437 566.524C106.437 566.524 161.391 560.226 174.711 564.466L168.394 565.952C168.394 565.952 253.252 572.76 274.664 573.702L270.105 570.662C270.105 570.662 291.848 572.213 300.267 572.226L296.086 580.719L241.911 575.476L227.326 573.699L203.706 572.764L179.512 572.344L137.262 571.37L106.148 571.321L88.4159 582.763L72.267 588.163L57.1989 588.799L49.7018 585.6L42.0659 578.048L38.4947 569.862L32.0428 571.141L21.3434 570.093L11.2325 565.951L7.70902 560.447L4.27978 554.706L1.45374 543.211" fill="#CBCBCB"/>
<path d="M122.121 535.16C121.765 534.07 121.699 532.908 121.928 531.786C122.38 527.464 122.425 523.11 122.064 518.779C121.957 518.187 122.016 517.577 122.233 517.015C123.038 515.377 125.424 515.927 126.798 516.6C128.507 517.405 129.855 518.807 130.584 520.536C130.227 520.262 129.852 520.014 129.46 519.791C130.75 521.579 131.775 523.539 132.504 525.614C132.463 527.426 132.155 529.222 131.589 530.945C131.589 530.945 132.631 530.462 132.841 529.916C132.371 531.309 131.664 532.613 130.751 533.77C129.938 534.752 128.887 535.515 127.697 535.988C126.507 536.46 125.215 536.627 123.942 536.472C123.55 536.427 123.176 536.283 122.857 536.053C122.538 535.823 122.285 535.515 122.121 535.16Z" fill="#CBCBCB"/>
<path d="M35.6822 495.995C26.2148 493.444 16.9807 497.05 15.0573 504.047C13.1339 511.045 19.2496 518.785 28.717 521.336C38.1845 523.886 47.4186 520.28 49.342 513.283C51.2653 506.285 45.1497 498.545 35.6822 495.995Z" fill="white"/>
<path d="M73.0849 476.423C64.4683 472.9 55.2554 475.384 52.5072 481.971C49.7591 488.558 54.5163 496.754 63.1328 500.277C71.7493 503.8 80.9622 501.316 83.7104 494.729C86.4586 488.142 81.7014 479.946 73.0849 476.423Z" fill="white"/>
<path d="M53.1617 526.284C53.1617 526.284 52.2199 535.267 69.3313 540.297C74.9395 542.005 80.0756 544.968 84.3426 548.955C87.5472 551.807 90.5243 553.647 95.3181 553.201C97.835 553.076 100.225 552.071 102.064 550.365C108.681 543.712 102.737 533.862 102.749 526.363C102.761 518.864 108.737 509.022 102.142 502.359C100.313 500.639 97.9237 499.622 95.4049 499.491C90.6125 499.039 87.6295 500.861 84.4157 503.702C80.1358 507.676 74.9902 510.622 69.3766 512.312C52.2489 517.288 53.1617 526.284 53.1617 526.284Z" fill="white"/>
<path d="M49.2555 539.239C47.3548 532.235 38.1324 528.601 28.6567 531.121C19.1811 533.641 13.0404 541.362 14.9412 548.365C16.8419 555.369 26.0644 559.004 35.54 556.484C45.0156 553.963 51.1563 546.243 49.2555 539.239Z" fill="white"/>
<path d="M83.5724 557.914C80.8455 551.318 71.6407 548.805 63.0128 552.301C54.3849 555.797 49.6013 563.977 52.3282 570.573C55.055 577.169 64.2599 579.682 72.8877 576.186C81.5156 572.69 86.2993 564.509 83.5724 557.914Z" fill="white"/>
<path d="M54.1554 573.468C54.1554 573.468 64.3541 574.876 70.4532 572.637C76.5524 570.398 79.2074 565.173 81.787 555.047C81.787 555.047 88.9121 562.733 79.582 571.919C70.252 581.106 57.8473 577.888 54.1554 573.468Z" fill="#CBCBCB"/>
<path d="M18.4123 553.662C18.4123 553.662 28.9238 554.916 36.5666 551.741C44.2094 548.566 48.2304 542.692 48.9046 538.175C48.9046 538.175 52.7448 547.517 41.1576 554.213C29.5705 560.91 20.0559 555.346 18.4123 553.662Z" fill="#CBCBCB"/>
<path d="M28.7984 521.401C31.4649 521.153 34.1091 520.709 36.7091 520.072C39.2558 519.459 41.6457 518.329 43.727 516.752C46.4965 514.355 48.4126 511.139 49.1913 507.58C49.73 509.451 49.732 511.433 49.1972 513.305C48.6623 515.177 47.6117 516.865 46.1629 518.179C42.3747 521.804 36.2145 523.135 30.8085 521.961C30.4648 521.888 30.1315 521.805 29.767 521.712C29.4592 521.567 29.1336 521.462 28.7984 521.401Z" fill="#CBCBCB"/>
<path d="M66.4462 501.369C66.4462 501.369 77.8157 500.428 84.2777 492.887C84.2777 492.887 83.9051 497.766 77.4297 500.706C73.9353 502.088 70.0845 502.32 66.4462 501.369Z" fill="#CBCBCB"/>
<path d="M71.9804 541.156C77.5949 542.197 83.4383 543.516 87.7363 546.803C88.9306 547.893 90.2637 548.825 91.7017 549.574C92.7049 549.986 93.7901 550.164 94.874 550.096C95.9579 550.028 97.0116 549.715 97.9542 549.181C100.551 547.648 101.421 544.658 101.363 541.966C101.296 538.253 99.8845 534.65 99.6196 530.936C99.1506 524.54 102.068 518.346 105.161 512.512C103.335 518.938 102.811 525.657 103.619 532.284C104.217 536.246 105.461 540.198 104.912 544.159C104.655 546.405 103.66 548.505 102.079 550.137C100.001 552.048 97.2918 553.143 94.4571 553.219C91.5774 553.379 88.7375 552.495 86.4692 550.731C82.0639 546.951 77.1961 543.734 71.9804 541.156Z" fill="#CBCBCB"/>
<path d="M65.2709 558.058C63.932 556.576 61.0629 556.954 58.8624 558.903C56.6619 560.851 55.9635 563.632 57.3023 565.114C58.6412 566.596 61.5104 566.218 63.7108 564.269C65.9113 562.321 66.6097 559.54 65.2709 558.058Z" fill="#D6D6D6"/>
<path d="M62.3873 519.877C61.1364 518.984 59.1073 519.653 57.855 521.372C56.6027 523.091 56.6015 525.208 57.8524 526.102C59.1032 526.995 61.1324 526.325 62.3847 524.607C63.6369 522.888 63.6381 520.77 62.3873 519.877Z" fill="#D6D6D6"/>
<path d="M30.2848 538.894C29.5534 537.14 26.645 536.665 23.7887 537.833C20.9324 539.001 19.2098 541.369 19.9413 543.122C20.6727 544.875 23.5811 545.35 26.4374 544.183C29.2937 543.015 31.0162 540.647 30.2848 538.894Z" fill="#D6D6D6"/>
<path d="M24.2102 508.346C22.039 507.589 19.8993 508.043 19.4309 509.359C18.9626 510.676 20.343 512.357 22.5141 513.114C24.6853 513.871 26.825 513.417 27.2933 512.101C27.7617 510.784 26.3813 509.103 24.2102 508.346Z" fill="#D6D6D6"/>
<path d="M66.5423 477.467C64.4884 477.421 62.7982 478.492 62.767 479.859C62.7359 481.226 64.3757 482.371 66.4295 482.417C68.4834 482.463 70.1737 481.392 70.2048 480.025C70.2359 478.658 68.5962 477.513 66.5423 477.467Z" fill="#D6D6D6"/>
<path d="M296.016 580.895C288.098 580.326 280.2 579.653 272.303 579.022L260.436 578.167C256.488 577.872 252.539 577.515 248.591 577.261C240.683 576.754 232.786 576.133 224.867 575.738C220.908 575.526 216.956 575.289 213.011 575.029L201.143 574.422L195.215 574.124L189.276 573.877C185.317 573.716 181.368 573.503 177.409 573.394L165.541 573.014L153.674 572.686C145.765 572.56 137.846 572.444 129.948 572.432C122.05 572.419 114.1 572.407 106.274 572.827L107.108 572.519C101.525 576.494 95.6153 579.998 89.4398 582.992C83.2889 586.093 76.7198 588.302 69.9338 589.553C66.4919 590.144 62.9806 590.229 59.5136 589.804C56.0301 589.361 52.6763 588.211 49.6619 586.426C46.6715 584.615 44.1041 582.195 42.1295 579.328C40.1653 576.495 38.737 573.333 37.9141 569.996L38.7886 570.492C35.8367 571.395 32.7686 571.869 29.6794 571.902C26.5852 571.958 23.5015 571.528 20.5433 570.629C17.5731 569.717 14.7963 568.276 12.3498 566.376C9.92466 564.458 7.81872 562.175 6.10883 559.61C4.34634 557.082 2.94803 554.323 1.95416 551.413C1.46759 549.954 1.08012 548.465 0.794347 546.955C0.525943 545.428 0.382109 543.883 0.364203 542.333C0.328359 539.202 0.8993 536.094 2.04614 533.176C2.62585 531.717 3.34332 530.316 4.18898 528.991C5.04646 527.628 6.06268 526.37 7.21678 525.241L7.21373 527.129C6.08295 525.992 5.08212 524.734 4.22931 523.38C3.38685 522.068 2.66047 520.686 2.05825 519.25C0.858224 516.33 0.206453 513.218 0.134991 510.067C0.0764629 506.92 0.535522 503.786 1.49415 500.785C2.43976 497.81 3.757 494.964 5.41527 492.312C7.95844 488.218 11.5901 484.894 15.9131 482.705C17.354 481.999 18.8498 481.408 20.3861 480.938C23.4168 480.04 26.561 479.573 29.7244 479.55C31.3051 479.545 32.8846 479.634 34.4546 479.815C36.0572 479.997 37.6446 480.293 39.2046 480.699L36.6286 482.14C37.1104 480.427 37.7298 478.755 38.481 477.14C39.2156 475.541 40.0678 473.998 41.0308 472.522C42.9691 469.461 45.5279 466.83 48.5456 464.798C51.6798 462.755 55.3069 461.575 59.0543 461.38C62.5365 461.223 66.0258 461.401 69.4732 461.912C76.3201 462.995 82.9563 465.121 89.146 468.215C92.2174 469.736 95.1947 471.412 98.099 473.19C101.003 474.969 103.782 476.892 106.54 478.846L106.249 478.67L111.392 481.34L110.35 481.07C125.489 481.672 140.67 482.067 155.841 482.359C171.012 482.652 186.183 482.872 201.354 482.844C216.525 482.816 231.697 482.717 246.869 482.235C250.662 482.138 254.444 481.938 258.237 481.81L263.927 481.612L269.617 481.322C277.192 480.984 284.758 480.377 292.334 479.863C292.364 479.86 292.393 479.863 292.422 479.872C292.45 479.881 292.476 479.896 292.499 479.915C292.521 479.934 292.539 479.958 292.552 479.984C292.565 480.011 292.572 480.04 292.573 480.069C292.574 480.124 292.554 480.178 292.517 480.22C292.481 480.261 292.43 480.288 292.375 480.296L281.057 481.65C277.284 482.118 273.491 482.391 269.708 482.767L264.028 483.304L258.338 483.728C254.556 484.001 250.762 484.294 246.959 484.505C239.372 484.936 231.776 485.357 224.179 485.645C216.583 485.932 208.986 486.178 201.38 486.351C186.173 486.657 170.97 486.774 155.772 486.702C140.559 486.595 125.367 486.334 110.145 485.794L109.613 485.793L109.134 485.545L103.991 482.865L103.835 482.782L103.69 482.679C101.025 480.777 98.3085 478.926 95.5397 477.199C92.7708 475.472 89.9079 473.889 87.0031 472.441C81.3012 469.497 75.1808 467.429 68.8513 466.305C65.6959 465.813 62.5004 465.617 59.3077 465.723C56.3419 465.845 53.4628 466.748 50.9677 468.34C45.961 471.54 42.4506 477.352 40.6595 483.116L40.0415 485.105L38.0834 484.556C36.7449 484.203 35.3843 483.939 34.0106 483.765C32.604 483.588 31.1881 483.493 29.7702 483.48C26.9564 483.428 24.1494 483.771 21.4327 484.498C20.1003 484.884 18.8001 485.372 17.5438 485.957C16.3045 486.565 15.1184 487.274 13.9976 488.076C11.7727 489.743 9.85529 491.778 8.32992 494.091C5.16178 498.793 3.38448 504.278 3.19864 509.927C3.16546 512.745 3.66271 515.544 4.66492 518.182C5.16304 519.493 5.77819 520.757 6.50311 521.96C7.19977 523.151 8.02607 524.262 8.96724 525.275L9.91378 526.308L8.92244 527.204C7.90884 528.146 7.01172 529.205 6.24988 530.356C5.43316 531.526 4.73321 532.772 4.1599 534.077C3.0608 536.693 2.47289 539.493 2.42731 542.326C2.41152 543.759 2.51025 545.19 2.72258 546.607C2.96968 548.033 3.31555 549.439 3.75775 550.818C4.61494 553.595 5.86292 556.24 7.46493 558.673C9.05025 561.11 11.0122 563.285 13.2792 565.119C15.5647 566.927 18.1651 568.305 20.952 569.185C26.6017 570.891 32.6353 570.901 38.2905 569.213L38.9889 569.007L39.1754 569.709C40.7479 576.13 44.792 581.689 50.4454 585.2C53.3091 586.83 56.4825 587.857 59.7662 588.216C63.0569 588.566 66.3825 588.407 69.6241 587.747C76.15 586.338 82.4383 584.01 88.2971 580.834C94.2211 577.736 99.8732 574.153 105.195 570.123L105.57 569.845L106.039 569.846C114.032 569.26 121.952 568.922 129.912 568.852C133.882 568.766 137.863 568.782 141.833 568.737L153.753 568.869L165.662 569.167L177.54 569.547C181.499 569.697 185.469 569.941 189.428 570.122C193.387 570.304 197.357 570.568 201.316 570.843C217.173 571.786 232.978 573.276 248.772 574.807C256.669 575.583 264.555 576.492 272.431 577.413C280.307 578.333 288.172 579.387 296.027 580.462C296.086 580.47 296.139 580.5 296.176 580.546C296.213 580.593 296.23 580.651 296.224 580.71C296.215 580.759 296.19 580.804 296.152 580.838C296.114 580.871 296.066 580.892 296.016 580.895Z" fill="white"/>
</g>
<g opacity="0.39">
<path d="M68.6449 63.5473C68.6449 63.5473 74.3818 81.6887 100.478 79.8592C100.478 79.8592 102.676 93.9576 118.125 94.4538C133.573 94.95 150.053 81.6167 150.053 81.6167C150.053 81.6167 192.646 76.7353 202.969 80.0216L198.074 81.1731C198.074 81.1731 263.843 86.4499 280.438 87.1797L276.905 84.8236C276.905 84.8236 293.757 86.0256 300.283 86.0359L297.042 92.6185L255.053 88.5546L243.749 87.1776L225.442 86.453L206.691 86.1275L173.944 85.3721L149.829 85.3339L136.086 94.2024L123.57 98.3879L111.891 98.8811L106.08 96.4015L100.162 90.5479L97.3941 84.2036L92.3935 85.195L84.1008 84.3824L76.2643 81.172L73.5334 76.9064L70.8756 72.4571L68.6852 63.5474" fill="#CBCBCB"/>
<path d="M162.209 57.3101C161.934 56.4657 161.882 55.5653 162.06 54.6956C162.41 51.3456 162.445 47.9707 162.165 44.6143C162.082 44.1553 162.128 43.6827 162.297 43.2474C162.92 41.9772 164.769 42.4039 165.834 42.9252C167.159 43.5494 168.204 44.6357 168.769 45.9759C168.492 45.7639 168.201 45.5711 167.898 45.3989C168.897 46.7841 169.692 48.3038 170.257 49.9117C170.225 51.316 169.986 52.7081 169.547 54.0439C169.547 54.0439 170.356 53.6694 170.518 53.2459C170.154 54.326 169.606 55.3364 168.898 56.2334C168.268 56.9946 167.454 57.5857 166.531 57.9519C165.609 58.318 164.607 58.4473 163.621 58.3277C163.317 58.2927 163.027 58.1807 162.78 58.0024C162.533 57.8241 162.336 57.5857 162.209 57.3101Z" fill="#CBCBCB"/>
<path d="M95.2147 26.9524C87.8769 24.9758 80.7199 27.7702 79.2292 33.1938C77.7385 38.6174 82.4785 44.6164 89.8163 46.593C97.1541 48.5695 104.311 45.7752 105.802 40.3516C107.292 34.928 102.552 28.929 95.2147 26.9524Z" fill="white"/>
<path d="M124.204 11.7787C117.526 9.04813 110.385 10.9733 108.255 16.0786C106.125 21.184 109.813 27.5362 116.491 30.2668C123.169 32.9974 130.31 31.0723 132.44 25.9669C134.57 20.8616 130.883 14.5093 124.204 11.7787Z" fill="white"/>
<path d="M108.762 50.4332C108.762 50.4332 108.032 57.3955 121.295 61.294C125.641 62.6179 129.622 64.9138 132.929 68.0041C135.413 70.2145 137.72 71.6413 141.436 71.2954C143.387 71.1982 145.239 70.4193 146.664 69.0971C151.793 63.9406 147.186 56.3063 147.195 50.4941C147.205 44.6819 151.836 37.0542 146.725 31.8895C145.307 30.5569 143.455 29.7688 141.503 29.6666C137.789 29.317 135.477 30.7284 132.986 32.931C129.669 36.0108 125.681 38.294 121.33 39.6042C108.055 43.4606 108.762 50.4332 108.762 50.4332Z" fill="white"/>
<path d="M105.734 60.4726C104.261 55.0443 97.1127 52.2273 89.7685 54.1806C82.4244 56.1339 77.665 62.1179 79.1382 67.5462C80.6114 72.9745 87.7593 75.7915 95.1035 73.8382C102.448 71.8849 107.207 65.9009 105.734 60.4726Z" fill="white"/>
<path d="M132.333 74.9478C130.219 69.8357 123.085 67.888 116.398 70.5974C109.711 73.3068 106.003 79.6474 108.117 84.7594C110.23 89.8715 117.364 91.8192 124.051 89.1098C130.738 86.4004 134.446 80.0598 132.333 74.9478Z" fill="white"/>
<path d="M109.532 86.9961C109.532 86.9961 117.436 88.088 122.163 86.3526C126.891 84.6172 128.948 80.5671 130.948 72.7194C130.948 72.7194 136.47 78.6763 129.239 85.7962C122.008 92.9161 112.393 90.4224 109.532 86.9961Z" fill="#CBCBCB"/>
<path d="M81.8299 71.6542C81.8299 71.6542 89.9769 72.6265 95.9005 70.1655C101.824 67.7045 104.941 63.1524 105.463 59.6515C105.463 59.6515 108.439 66.8915 99.4588 72.0819C90.4781 77.2723 83.1038 72.9594 81.8299 71.6542Z" fill="#CBCBCB"/>
<path d="M89.8791 46.6417C91.9458 46.4493 93.9952 46.1052 96.0104 45.6121C97.9842 45.137 99.8365 44.2605 101.45 43.0384C103.596 41.1808 105.081 38.6882 105.685 35.9297C106.102 37.3798 106.104 38.9162 105.689 40.3671C105.275 41.8179 104.46 43.1259 103.338 44.1446C100.401 46.9542 95.627 47.9859 91.4371 47.0759C91.1707 47.0195 90.9123 46.9551 90.6298 46.8827C90.3913 46.7702 90.1389 46.6892 89.8791 46.6417Z" fill="#CBCBCB"/>
<path d="M119.058 31.122C119.058 31.122 127.87 30.3924 132.879 24.5482C132.879 24.5482 132.59 28.3292 127.571 30.6078C124.863 31.6789 121.878 31.8592 119.058 31.122Z" fill="#CBCBCB"/>
<path d="M123.347 61.9599C127.699 62.7662 132.228 63.7887 135.559 66.3364C136.485 67.1816 137.518 67.9035 138.632 68.4838C139.41 68.8031 140.251 68.9417 141.091 68.889C141.931 68.8363 142.748 68.5936 143.478 68.1797C145.491 66.9917 146.165 64.6743 146.12 62.5875C146.068 59.7093 144.974 56.9174 144.769 54.039C144.406 49.0816 146.667 44.2803 149.064 39.7591C147.649 44.7391 147.242 49.9471 147.868 55.0832C148.332 58.1539 149.296 61.2175 148.871 64.2868C148.672 66.0278 147.9 67.6558 146.675 68.9203C145.065 70.4013 142.965 71.2507 140.768 71.3094C138.536 71.4333 136.335 70.7477 134.577 69.3808C131.162 66.4512 127.39 63.958 123.347 61.9599Z" fill="#CBCBCB"/>
<path d="M118.148 75.0536C117.11 73.905 114.886 74.198 113.181 75.708C111.475 77.218 110.934 79.3732 111.972 80.5218C113.009 81.6704 115.233 81.3775 116.939 79.8675C118.644 78.3574 119.185 76.2022 118.148 75.0536Z" fill="#D6D6D6"/>
<path d="M115.913 45.4615C114.943 44.7693 113.371 45.288 112.4 46.6202C111.429 47.9524 111.428 49.5935 112.398 50.2857C113.367 50.9779 114.94 50.4591 115.911 49.127C116.881 47.7948 116.882 46.1537 115.913 45.4615Z" fill="#D6D6D6"/>
<path d="M91.0304 60.1995C90.4635 58.8405 88.2093 58.4724 85.9955 59.3774C83.7818 60.2824 82.4467 62.1178 83.0136 63.4768C83.5805 64.8358 85.8347 65.2038 88.0485 64.2988C90.2622 63.3938 91.5973 61.5585 91.0304 60.1995Z" fill="#D6D6D6"/>
<path d="M86.3233 36.524C84.6405 35.9373 82.9821 36.2888 82.6191 37.3092C82.2561 38.3295 83.326 39.6322 85.0088 40.2189C86.6915 40.8056 88.3499 40.4541 88.7129 39.4338C89.0759 38.4134 88.006 37.1107 86.3233 36.524Z" fill="#D6D6D6"/>
<path d="M119.133 12.5991C117.541 12.5636 116.231 13.3936 116.207 14.4531C116.183 15.5125 117.454 16.4001 119.045 16.4357C120.637 16.4712 121.947 15.6412 121.971 14.5817C121.996 13.5223 120.725 12.6347 119.133 12.5991Z" fill="#D6D6D6"/>
<path d="M296.987 92.7566C290.851 92.3152 284.73 91.7938 278.609 91.3044L269.412 90.6423C266.351 90.4136 263.291 90.1369 260.23 89.9402C254.101 89.5467 247.981 89.0653 241.843 88.7598C238.775 88.595 235.712 88.4116 232.654 88.2096L223.456 87.7393L218.861 87.5082L214.258 87.317C211.19 87.1922 208.129 87.0275 205.061 86.9427L195.862 86.6483L186.664 86.3939C180.535 86.2962 174.397 86.2065 168.276 86.1968C162.154 86.1871 155.992 86.1774 149.927 86.5036L150.573 86.2647C146.247 89.3456 141.666 92.0609 136.88 94.3818C132.112 96.7851 127.021 98.4975 121.761 99.4666C119.094 99.9249 116.372 99.9906 113.685 99.6617C110.985 99.3177 108.386 98.4263 106.049 97.0432C103.732 95.6394 101.742 93.7641 100.211 91.5415C98.689 89.3464 97.582 86.8958 96.9442 84.309L97.6219 84.6938C95.3341 85.3931 92.9561 85.761 90.5618 85.786C88.1636 85.8297 85.7736 85.4967 83.4808 84.7994C81.1787 84.0931 79.0265 82.9761 77.1304 81.5034C75.2508 80.0166 73.6185 78.247 72.2933 76.2591C70.9273 74.2997 69.8435 72.1615 69.0732 69.9061C68.6961 68.7755 68.3957 67.6212 68.1743 66.4509C67.9662 65.2676 67.8548 64.0697 67.8409 62.8687C67.8131 60.4422 68.2556 58.0329 69.1445 55.7713C69.5938 54.6409 70.1499 53.555 70.8053 52.5281C71.4699 51.4717 72.2575 50.4962 73.152 49.6217L73.1496 51.0847C72.2732 50.2031 71.4975 49.2286 70.8365 48.1789C70.1836 47.162 69.6206 46.0912 69.1539 44.9783C68.2238 42.7152 67.7186 40.3031 67.6632 37.8605C67.6179 35.4219 67.9737 32.9923 68.7166 30.6668C69.4495 28.3611 70.4705 26.1551 71.7557 24.0999C73.7268 20.9262 76.5416 18.3501 79.8922 16.6536C81.0089 16.1061 82.1682 15.6481 83.3589 15.284C85.708 14.5881 88.1449 14.2259 90.5967 14.2081C91.8218 14.2047 93.046 14.2733 94.2629 14.4138C95.505 14.555 96.7353 14.7841 97.9444 15.0992L95.9478 16.2153C96.3213 14.8877 96.8014 13.5919 97.3835 12.3401C97.9529 11.1009 98.6134 9.90486 99.3598 8.76153C100.862 6.38854 102.845 4.34993 105.184 2.77461C107.613 1.19122 110.425 0.276758 113.329 0.125229C116.028 0.00382464 118.732 0.141981 121.404 0.537761C126.711 1.37734 131.854 3.02519 136.652 5.42278C139.032 6.60179 141.34 7.9006 143.591 9.27929C145.842 10.658 147.996 12.1484 150.133 13.6628L149.907 13.5265L153.894 15.5955L153.086 15.3864C164.82 15.8527 176.586 16.1591 188.344 16.3856C200.102 16.6121 211.861 16.7826 223.619 16.7613C235.378 16.7399 247.137 16.6626 258.896 16.2895C261.836 16.2142 264.767 16.059 267.707 15.9597L272.117 15.8068L276.527 15.5819C282.398 15.3194 288.262 14.849 294.134 14.4505C294.157 14.4484 294.18 14.4509 294.202 14.4578C294.224 14.4648 294.244 14.4762 294.262 14.4911C294.279 14.5061 294.293 14.5245 294.303 14.545C294.313 14.5656 294.319 14.5879 294.32 14.6107C294.32 14.6535 294.304 14.6949 294.276 14.7272C294.248 14.7596 294.209 14.7806 294.166 14.7864L285.394 15.8358C282.47 16.1989 279.53 16.4101 276.598 16.7013L272.195 17.118L267.785 17.4468C264.854 17.6581 261.914 17.8852 258.966 18.0485C253.086 18.3829 247.198 18.7094 241.31 18.9319C235.422 19.1544 229.535 19.345 223.639 19.4796C211.853 19.7167 200.07 19.8073 188.29 19.7514C176.5 19.6687 164.725 19.4662 152.927 19.0478L152.515 19.0471L152.144 18.8547L148.158 16.7777L148.037 16.7135L147.924 16.6334C145.859 15.1591 143.753 13.7247 141.607 12.3861C139.461 11.0476 137.242 9.82087 134.991 8.69802C130.572 6.41688 125.828 4.81352 120.922 3.94279C118.477 3.56094 116 3.40978 113.525 3.49136C111.227 3.58578 108.995 4.28604 107.061 5.51981C103.181 8.00007 100.46 12.5049 99.072 16.9718L98.593 18.514L97.0754 18.0879C96.038 17.8149 94.9835 17.6102 93.9187 17.4753C92.8285 17.338 91.7311 17.2642 90.6322 17.2542C88.4513 17.214 86.2757 17.4798 84.1701 18.0435C83.1375 18.3427 82.1297 18.7207 81.156 19.174C80.1955 19.6453 79.2762 20.1947 78.4075 20.8165C76.6831 22.1086 75.197 23.6858 74.0148 25.4786C71.5593 29.1229 70.1818 33.3741 70.0377 37.7524C70.012 39.9363 70.3974 42.1058 71.1742 44.1501C71.5602 45.1661 72.037 46.1461 72.5989 47.0784C73.1388 48.0013 73.7793 48.8629 74.5087 49.6478L75.2423 50.4484L74.474 51.1428C73.6884 51.8732 72.9931 52.6933 72.4026 53.5859C71.7696 54.4929 71.2271 55.4586 70.7828 56.4695C69.9309 58.4975 69.4752 60.6671 69.4399 62.8632C69.4277 63.9736 69.5042 65.0831 69.6687 66.1815C69.8603 67.2861 70.1283 68.3764 70.4711 69.4446C71.1354 71.5976 72.1027 73.6473 73.3443 75.5333C74.573 77.4218 76.0937 79.1077 77.8507 80.5292C79.6221 81.9302 81.6376 82.9982 83.7976 83.6806C88.1764 85.0027 92.8528 85.0101 97.2359 83.7019L97.7772 83.5428L97.9217 84.0867C99.1406 89.0632 102.275 93.3714 106.657 96.0928C108.876 97.3567 111.336 98.1527 113.881 98.4308C116.431 98.7015 119.009 98.5789 121.521 98.0671C126.579 96.9748 131.453 95.1706 135.994 92.7095C140.585 90.3081 144.966 87.5311 149.09 84.4076L149.381 84.1922L149.745 84.1928C155.94 83.7389 162.078 83.4768 168.248 83.4226C171.325 83.3555 174.41 83.3684 177.487 83.3333L186.726 83.4359L195.956 83.6663L205.162 83.9607C208.231 84.0775 211.307 84.2663 214.376 84.4071C217.445 84.5478 220.521 84.7526 223.59 84.9653C235.88 85.6963 248.13 86.851 260.371 88.0376C266.491 88.6389 272.604 89.3442 278.708 90.0574C284.812 90.7706 290.908 91.5877 296.996 92.4208C297.042 92.4269 297.083 92.4503 297.112 92.4862C297.141 92.5221 297.154 92.5675 297.149 92.6129C297.142 92.6512 297.122 92.6861 297.093 92.7121C297.064 92.7381 297.027 92.7537 296.987 92.7566Z" fill="white"/>
</g>
</svg>
