<svg width="42" height="43" viewBox="0 0 42 43" fill="none" xmlns="http://www.w3.org/2000/svg">
<path fill-rule="evenodd" clip-rule="evenodd" d="M14.1594 3.9789C12.8635 3.9789 11.6207 4.50183 10.7043 5.43267C9.788 6.3635 9.27315 7.626 9.27315 8.94239C9.27315 10.2588 9.788 11.5213 10.7043 12.452C11.6207 13.3829 12.8635 13.9059 14.1594 13.9059H19.0457V3.9789H14.1594ZM8.40087 3.09287C9.9282 1.54148 11.9996 0.669922 14.1594 0.669922H20.6745C21.574 0.669922 22.3033 1.41067 22.3033 2.32441V15.5603C22.3033 16.474 21.574 17.2148 20.6745 17.2148H14.1594C11.9996 17.2148 9.9282 16.3433 8.40087 14.7919C6.87363 13.2405 6.01562 11.1364 6.01562 8.94239C6.01562 6.7484 6.87363 4.64425 8.40087 3.09287Z" fill="white"/>
<path fill-rule="evenodd" clip-rule="evenodd" d="M19.0469 2.32441C19.0469 1.41067 19.8053 0.669922 20.7408 0.669922H27.5164C28.6287 0.669922 29.7301 0.883899 30.7576 1.29962C31.7852 1.71536 32.7189 2.3247 33.5054 3.09287C34.2918 3.86104 34.9157 4.77299 35.3413 5.77668C35.7669 6.78028 35.986 7.85598 35.986 8.94239C35.986 10.0287 35.7669 11.1044 35.3413 12.1081C34.9157 13.1118 34.2918 14.0237 33.5054 14.7919C32.7189 15.56 31.7852 16.1694 30.7576 16.5851C29.7301 17.0008 28.6287 17.2148 27.5164 17.2148H20.7408C19.8053 17.2148 19.0469 16.474 19.0469 15.5603V2.32441ZM22.4347 3.9789V13.9059H27.5164C28.1838 13.9059 28.8446 13.7774 29.4611 13.528C30.0776 13.2786 30.6379 12.9129 31.1098 12.452C31.5816 11.9912 31.956 11.444 32.2114 10.8418C32.4668 10.2396 32.5982 9.59423 32.5982 8.94239C32.5982 8.29055 32.4668 7.64516 32.2114 7.04298C31.956 6.4407 31.5816 5.89358 31.1098 5.43267C30.6379 4.97177 30.0776 4.60617 29.4611 4.35673C28.8446 4.10729 28.1838 3.9789 27.5164 3.9789H22.4347Z" fill="white"/>
<path fill-rule="evenodd" clip-rule="evenodd" d="M27.5164 16.7055C26.8491 16.7055 26.1883 16.8338 25.5718 17.0833C24.9552 17.3327 24.395 17.6983 23.9231 18.1592C23.4513 18.6201 23.0769 19.1672 22.8215 19.7695C22.5661 20.3717 22.4347 21.0171 22.4347 21.6689C22.4347 22.3208 22.5661 22.9662 22.8215 23.5683C23.0769 24.1705 23.4513 24.7178 23.9231 25.1786C24.395 25.6395 24.9552 26.0051 25.5718 26.2546C26.1883 26.504 26.8491 26.6324 27.5164 26.6324C28.1838 26.6324 28.8446 26.504 29.4611 26.2546C30.0776 26.0051 30.6379 25.6395 31.1098 25.1786C31.5816 24.7178 31.956 24.1705 32.2114 23.5683C32.4668 22.9662 32.5982 22.3208 32.5982 21.6689C32.5982 21.0171 32.4668 20.3717 32.2114 19.7695C31.956 19.1672 31.5816 18.6201 31.1098 18.1592C30.6379 17.6983 30.0776 17.3327 29.4611 17.0833C28.8446 16.8338 28.1838 16.7055 27.5164 16.7055ZM24.2753 14.0262C25.3028 13.6105 26.4042 13.3965 27.5164 13.3965C28.6287 13.3965 29.7301 13.6105 30.7576 14.0262C31.7852 14.4419 32.7189 15.0513 33.5054 15.8194C34.2918 16.5876 34.9157 17.4995 35.3413 18.5032C35.7669 19.5068 35.986 20.5825 35.986 21.6689C35.986 22.7552 35.7669 23.8309 35.3413 24.8347C34.9157 25.8384 34.2918 26.7503 33.5054 27.5185C32.7189 28.2866 31.7852 28.896 30.7576 29.3117C29.7301 29.7274 28.6287 29.9414 27.5164 29.9414C26.4042 29.9414 25.3028 29.7274 24.2753 29.3117C23.2477 28.896 22.314 28.2866 21.5275 27.5185C20.7411 26.7503 20.1172 25.8384 19.6916 24.8347C19.266 23.8309 19.0469 22.7552 19.0469 21.6689C19.0469 20.5825 19.266 19.5068 19.6916 18.5032C20.1172 17.4995 20.7411 16.5876 21.5275 15.8194C22.314 15.0513 23.2477 14.4419 24.2753 14.0262Z" fill="white"/>
<path fill-rule="evenodd" clip-rule="evenodd" d="M14.1594 29.9434C12.8635 29.9434 11.6207 30.4462 10.7043 31.3412C9.788 32.2363 9.27315 33.4502 9.27315 34.716C9.27315 35.9818 9.788 37.1957 10.7043 38.0907C11.6207 38.9857 12.8635 39.4886 14.1594 39.4886C15.4554 39.4886 16.6982 38.9857 17.6146 38.0907C18.5309 37.1957 19.0457 35.9818 19.0457 34.716V29.9434H14.1594ZM8.40087 29.0914C9.9282 27.5998 11.9996 26.7617 14.1594 26.7617H20.6745C21.574 26.7617 22.3033 27.4739 22.3033 28.3526V34.716C22.3033 36.8256 21.4453 38.8488 19.918 40.3406C18.3907 41.8323 16.3193 42.6703 14.1594 42.6703C11.9996 42.6703 9.9282 41.8323 8.40087 40.3406C6.87363 38.8488 6.01562 36.8256 6.01562 34.716C6.01562 32.6064 6.87363 30.5831 8.40087 29.0914Z" fill="white"/>
<path fill-rule="evenodd" clip-rule="evenodd" d="M14.1594 16.7055C12.8635 16.7055 11.6207 17.2283 10.7043 18.1592C9.788 19.0901 9.27315 20.3525 9.27315 21.6689C9.27315 22.9853 9.788 24.2478 10.7043 25.1786C11.6207 26.1094 12.8635 26.6324 14.1594 26.6324H19.0457V16.7055H14.1594ZM8.40087 15.8194C9.9282 14.268 11.9996 13.3965 14.1594 13.3965H20.6745C21.574 13.3965 22.3033 14.1372 22.3033 15.051V28.2869C22.3033 29.2006 21.574 29.9414 20.6745 29.9414H14.1594C11.9996 29.9414 9.9282 29.0698 8.40087 27.5185C6.87363 25.967 6.01562 23.8629 6.01562 21.6689C6.01562 19.475 6.87363 17.3708 8.40087 15.8194Z" fill="white"/>
</svg>
