<svg width="16" height="15" viewBox="0 0 16 15" fill="none" xmlns="http://www.w3.org/2000/svg">
<path d="M2.974 14.1667L12.4021 4.73863L12.4021 10.9423C12.4014 11.1183 12.4355 11.2927 12.5025 11.4555C12.5696 11.6183 12.6681 11.7661 12.7926 11.8906C12.9171 12.0151 13.0649 12.1136 13.2277 12.1807C13.3905 12.2477 13.5649 12.2818 13.7409 12.2811C14.0931 12.2801 14.4306 12.1397 14.6797 11.8906C14.9288 11.6415 15.0692 11.304 15.0702 10.9517L15.0608 2.85302C15.0629 2.14691 14.7849 1.46879 14.2877 0.967399C13.7871 0.47597 13.113 0.201594 12.4115 0.203723L4.31279 0.194295C4.1376 0.194914 3.96424 0.230033 3.80262 0.297649C3.641 0.365265 3.49428 0.464051 3.37084 0.588369C3.2474 0.712687 3.14965 0.860103 3.08318 1.0222C3.01671 1.18429 2.98281 1.35789 2.98343 1.53308C2.98405 1.70828 3.01917 1.88163 3.08679 2.04325C3.1544 2.20487 3.25319 2.35159 3.37751 2.47504C3.50182 2.59848 3.64924 2.69623 3.81133 2.7627C3.97343 2.82917 4.14703 2.86306 4.32222 2.86244L10.5165 2.85302L1.08838 12.2811C0.838335 12.5312 0.697859 12.8703 0.697859 13.2239C0.69786 13.5775 0.838335 13.9167 1.08838 14.1667C1.33843 14.4168 1.67757 14.5572 2.03119 14.5573C2.38481 14.5573 2.72395 14.4168 2.974 14.1667Z" fill="white"/>
</svg>
