<svg width="17" height="17" viewBox="0 0 17 17" fill="none" xmlns="http://www.w3.org/2000/svg">
<g clip-path="url(#clip0_3949_6871)">
<path d="M14.5831 5.70503V3.47199C14.5831 3.14099 14.315 2.87235 13.9834 2.87235C13.6517 2.87235 13.3836 3.14099 13.3836 3.47199V4.89072L10.2631 2.78541C9.24416 2.09822 7.92712 2.09822 6.90815 2.78541L2.70992 5.61808C1.88286 6.17634 1.38867 7.10518 1.38867 8.10357V13.6658C1.38867 15.319 2.73391 16.664 4.38741 16.664H6.18665C6.51831 16.664 6.7864 16.3953 6.7864 16.0643V11.2672C6.7864 10.9368 7.05509 10.6676 7.38615 10.6676H9.78514C10.1162 10.6676 10.3849 10.9368 10.3849 11.2672V16.0643C10.3849 16.3953 10.653 16.664 10.9846 16.664H12.7839C14.4374 16.664 15.7826 15.319 15.7826 13.6658V8.10357C15.7826 7.15555 15.3364 6.26989 14.5831 5.70503ZM14.5831 13.6658C14.5831 14.6576 13.7759 15.4647 12.7839 15.4647H11.5844V11.2672C11.5844 10.2754 10.7771 9.46834 9.78514 9.46834H7.38615C6.39416 9.46834 5.5869 10.2754 5.5869 11.2672V15.4647H4.38741C3.39543 15.4647 2.58817 14.6576 2.58817 13.6658V8.10357C2.58817 7.50453 2.88444 6.94687 3.38103 6.61228L7.57927 3.7796C8.19101 3.36705 8.98027 3.36705 9.59142 3.7796L13.7896 6.61228C14.2862 6.94687 14.5825 7.50453 14.5825 8.10357L14.5831 13.6658Z" fill="white"/>
</g>
<defs>
<clipPath id="clip0_3949_6871">
<rect width="15.8333" height="15.8333" fill="white" transform="translate(0.669922 0.830566)"/>
</clipPath>
</defs>
</svg>
