<svg width="18" height="18" viewBox="0 0 18 18" fill="none" xmlns="http://www.w3.org/2000/svg">
<path d="M16.5 4.29247V1.49947C16.5 1.08547 16.1647 0.749469 15.75 0.749469C15.3352 0.749469 15 1.08547 15 1.49947V3.27397L11.0977 0.640719C9.8235 -0.218781 8.1765 -0.218781 6.90225 0.640719L1.65225 4.18372C0.618 4.88197 0 6.04372 0 7.29247V14.2495C0 16.3172 1.68225 17.9995 3.75 17.9995H5.25C5.66475 17.9995 6 17.6635 6 17.2495V10.4995C6 10.0862 6.336 9.74947 6.75 9.74947H11.25C11.664 9.74947 12 10.0862 12 10.4995V17.2495C12 17.6635 12.3352 17.9995 12.75 17.9995H14.25C16.3177 17.9995 18 16.3172 18 14.2495V7.29247C18 6.10672 17.442 4.99897 16.5 4.29247Z" fill="white"/>
</svg>
