<svg width="42" height="43" viewBox="0 0 42 43" fill="none" xmlns="http://www.w3.org/2000/svg">
<path d="M28.9715 14.2639C27.973 14.2639 27.0253 14.5399 26.1713 14.9662L26.2532 14.592H24.1797H17.8347H17.7279H16.7457C17.6451 13.8359 18.2295 12.7065 18.2295 11.3957C18.2295 8.99241 16.2638 7.1995 13.9949 7.1995C11.7261 7.1995 9.76054 8.99242 9.76054 11.3957C9.76054 12.7064 10.3449 13.8359 11.2443 14.592H8.5242H7.24745L6.91344 15.8243L6.0079 19.1652L5.43721 21.2706H7.61865H8.47244L7.05387 27.0659L7.05205 27.0734L7.05029 27.0808C6.87039 27.8462 6.77961 28.667 6.77961 29.362C6.77961 30.7639 7.16234 32.1575 8.16961 33.2056C9.18865 34.266 10.6181 34.7354 12.2216 34.7354C13.0184 34.7354 13.7618 34.6029 14.4508 34.3619L14.4226 34.4752H16.5583H20.7838H22.0877L22.4031 33.2101L24.8182 23.5241L24.8194 23.5191C25.0839 22.444 25.4299 21.8195 25.7473 21.4832C26.0167 21.1977 26.3111 21.0637 26.7456 21.0637C27.0934 21.0637 27.1975 21.1644 27.214 21.1811C27.2324 21.1998 27.3407 21.3178 27.3407 21.6963C27.3407 22.0052 27.3127 22.2811 27.2256 22.5645L27.2194 22.5847L27.2137 22.6051L25.9712 27.047C25.734 27.8579 25.6429 28.6569 25.6429 29.3932C25.6429 30.7714 26.053 32.1467 27.0666 33.1827C28.0891 34.2278 29.5237 34.7218 31.1599 34.7218C32.6662 34.7218 34.0814 34.2226 35.2554 33.1274C36.394 32.0653 37.2035 30.5398 37.7449 28.6444L38.1638 27.1783L36.7414 26.6291L35.0815 25.9882L34.0772 25.6005L34.4997 24.083C34.8445 22.915 34.9795 21.8563 34.9795 20.871C34.9795 18.9079 34.3797 17.2325 33.2423 16.0355C32.1048 14.8385 30.5644 14.2639 28.9715 14.2639ZM14.4811 27.8946L16.151 21.2706H16.8223H17.7039L16.4014 26.4859C15.8504 27.6383 15.1475 28.1444 14.6279 28.3821C14.5298 28.427 14.4353 28.4636 14.3463 28.4932C14.3777 28.3209 14.4202 28.1262 14.4768 27.9112L14.479 27.9029L14.4811 27.8946ZM14.2681 29.2314C14.2682 29.2325 14.2682 29.2331 14.2682 29.2331L14.2681 29.2314ZM33.1737 29.2222C33.1735 29.2223 33.1728 29.2188 33.1719 29.211C33.1734 29.2182 33.1739 29.222 33.1737 29.2222ZM38.1927 2.3388C39.3737 2.3388 40.3311 3.29622 40.3311 4.47724V38.8626C40.3311 40.0436 39.3737 41.001 38.1927 41.001H3.80732C2.6263 41.001 1.66887 40.0436 1.66887 38.8626V4.47724C1.66887 3.29622 2.6263 2.3388 3.80732 2.3388H38.1927Z" stroke="white" stroke-width="3.33775"/>
</svg>
