<svg width="20" height="20" viewBox="0 0 20 20" fill="none" xmlns="http://www.w3.org/2000/svg">
<path d="M2.52344 0C1.95985 0 1.41935 0.232405 1.02084 0.646088C0.622321 1.05977 0.398438 1.62085 0.398438 2.20588C0.398438 2.79092 0.622321 3.35199 1.02084 3.76568C1.41935 4.17936 1.95985 4.41176 2.52344 4.41176C3.08702 4.41176 3.62752 4.17936 4.02604 3.76568C4.42455 3.35199 4.64844 2.79092 4.64844 2.20588C4.64844 1.62085 4.42455 1.05977 4.02604 0.646088C3.62752 0.232405 3.08702 0 2.52344 0ZM0.523438 6.22837C0.490285 6.22837 0.458491 6.24204 0.435049 6.26638C0.411607 6.29071 0.398438 6.32372 0.398438 6.35813V19.8529C0.398438 19.9246 0.454438 19.9827 0.523438 19.9827H4.52344C4.55659 19.9827 4.58838 19.969 4.61183 19.9447C4.63527 19.9204 4.64844 19.8874 4.64844 19.8529V6.35813C4.64844 6.32372 4.63527 6.29071 4.61183 6.26638C4.58838 6.24204 4.55659 6.22837 4.52344 6.22837H0.523438ZM7.02344 6.22837C6.99029 6.22837 6.95849 6.24204 6.93505 6.26638C6.91161 6.29071 6.89844 6.32372 6.89844 6.35813V19.8529C6.89844 19.9246 6.95444 19.9827 7.02344 19.9827H11.0234C11.0566 19.9827 11.0884 19.969 11.1118 19.9447C11.1353 19.9204 11.1484 19.8874 11.1484 19.8529V12.5865C11.1484 12.0703 11.346 11.5752 11.6976 11.2102C12.0492 10.8452 12.5262 10.6401 13.0234 10.6401C13.5207 10.6401 13.9976 10.8452 14.3493 11.2102C14.7009 11.5752 14.8984 12.0703 14.8984 12.5865V19.8529C14.8984 19.9246 14.9544 19.9827 15.0234 19.9827H19.0234C19.0566 19.9827 19.0884 19.969 19.1118 19.9447C19.1353 19.9204 19.1484 19.8874 19.1484 19.8529V10.9048C19.1484 8.38547 17.0384 6.41522 14.6234 6.64256C13.8762 6.71317 13.1443 6.90513 12.4544 7.21142L11.1484 7.79273V6.35813C11.1484 6.32372 11.1353 6.29071 11.1118 6.26638C11.0884 6.24204 11.0566 6.22837 11.0234 6.22837H7.02344Z" fill="white"/>
</svg>
