<svg width="20" height="20" viewBox="0 0 20 20" fill="none" xmlns="http://www.w3.org/2000/svg">
<path d="M18.75 8.75H1.25C0.559648 8.75 0 9.30965 0 10C0 10.6904 0.559648 11.25 1.25 11.25H18.75C19.4404 11.25 20 10.6904 20 10C20 9.30965 19.4404 8.75 18.75 8.75Z" fill="white"/>
<path d="M1.25 5.41406H18.75C19.4404 5.41406 20 4.85441 20 4.16406C20 3.47371 19.4404 2.91406 18.75 2.91406H1.25C0.559648 2.91406 0 3.47371 0 4.16406C0 4.85441 0.559648 5.41406 1.25 5.41406Z" fill="white"/>
<path d="M18.75 14.5781H1.25C0.559648 14.5781 0 15.1378 0 15.8281C0 16.5185 0.559648 17.0781 1.25 17.0781H18.75C19.4404 17.0781 20 16.5185 20 15.8281C20 15.1378 19.4404 14.5781 18.75 14.5781Z" fill="white"/>
</svg>
