<svg width="14" height="21" viewBox="0 0 14 21" fill="none" xmlns="http://www.w3.org/2000/svg">
<path d="M9.16667 20.1228H4.16667C1.86917 20.1228 0 18.2586 0 15.9672V4.33141C0 2.03999 1.86917 0.175781 4.16667 0.175781H9.16667C11.4642 0.175781 13.3333 2.03999 13.3333 4.33141V15.9672C13.3333 18.2586 11.4642 20.1228 9.16667 20.1228ZM4.16667 1.83803C2.78833 1.83803 1.66667 2.95673 1.66667 4.33141V15.9672C1.66667 17.3418 2.78833 18.4605 4.16667 18.4605H9.16667C10.545 18.4605 11.6667 17.3418 11.6667 15.9672V4.33141C11.6667 2.95673 10.545 1.83803 9.16667 1.83803H4.16667ZM8.33333 15.9672C8.33333 15.5084 7.96 15.136 7.5 15.136H5.83333C5.37333 15.136 5 15.5084 5 15.9672C5 16.4259 5.37333 16.7983 5.83333 16.7983H7.5C7.96 16.7983 8.33333 16.4259 8.33333 15.9672Z" fill="#F2F2F2"/>
</svg>
