<svg width="25" height="20" viewBox="0 0 25 20" fill="none" xmlns="http://www.w3.org/2000/svg">
<path d="M19.2494 19.6797C17.4334 19.6382 16.0815 18.9529 15.1937 17.624C14.3462 16.295 13.9225 14.7376 13.9225 12.9518C13.9225 10.9584 14.3462 9.13106 15.1937 7.46985C16.0412 5.80865 17.1308 4.39663 18.4625 3.23379C19.7942 2.02942 21.1864 1.17805 22.6392 0.679688L25 4.3551C24.4754 4.64581 23.8499 5.10264 23.1235 5.72559C22.3971 6.34854 21.7312 7.01302 21.1259 7.71903C20.5206 8.38351 20.117 9.02723 19.9153 9.65018C20.7224 9.73324 21.4487 9.98242 22.0944 10.3977C22.7805 10.7715 23.3253 11.3114 23.7288 12.0174C24.1324 12.7234 24.3341 13.5748 24.3341 14.5715C24.3341 16.2742 23.8095 17.5617 22.7603 18.4338C21.7514 19.2644 20.5811 19.6797 19.2494 19.6797ZM5.32688 19.6797C3.5109 19.6382 2.159 18.9529 1.27119 17.624C0.423729 16.295 0 14.7376 0 12.9518C0 10.9584 0.423729 9.13106 1.27119 7.46985C2.11864 5.80865 3.20823 4.39663 4.53995 3.23379C5.87167 2.02942 7.2841 1.17805 8.77724 0.679688L11.138 4.3551C10.5327 4.64581 9.86683 5.10264 9.14044 5.72559C8.4544 6.34854 7.80872 7.01302 7.20339 7.71903C6.59806 8.38351 6.19451 9.02723 5.99274 9.65018C6.84019 9.73324 7.58676 9.98242 8.23244 10.3977C8.87813 10.7715 9.40274 11.3114 9.8063 12.0174C10.2098 12.7234 10.4116 13.5748 10.4116 14.5715C10.4116 16.2742 9.88701 17.5617 8.83777 18.4338C7.82889 19.2644 6.6586 19.6797 5.32688 19.6797Z" fill="#D4D4D4"/>
</svg>
