<svg width="20" height="24" viewBox="0 0 20 24" fill="none" xmlns="http://www.w3.org/2000/svg">
<path d="M19 23C19 23.553 18.552 24 18 24C17.448 24 17 23.553 17 23C17 20.794 15.206 19 13 19H7C4.794 19 3 20.794 3 23C3 23.553 2.552 24 2 24C1.448 24 1 23.553 1 23C1 19.691 3.691 17 7 17H13C16.309 17 19 19.691 19 23ZM20 7.5V9.5C20 10.327 19.327 11 18.5 11H18C18 13.206 16.206 15 14 15H6C3.794 15 2 13.206 2 11H1.5C0.673 11 0 10.327 0 9.5V7.5C0 6.673 0.673 6 1.5 6H2C2 3.794 3.794 2 6 2H9V1C9 0.447 9.448 0 10 0C10.552 0 11 0.447 11 1V2H14C16.206 2 18 3.794 18 6H18.5C19.327 6 20 6.673 20 7.5ZM16 6C16 4.897 15.103 4 14 4H6C4.897 4 4 4.897 4 6V11C4 12.103 4.897 13 6 13H14C15.103 13 16 12.103 16 11V6ZM7.5 7C6.672 7 6 7.672 6 8.5C6 9.328 6.672 10 7.5 10C8.328 10 9 9.328 9 8.5C9 7.672 8.328 7 7.5 7ZM12.5 7C11.672 7 11 7.672 11 8.5C11 9.328 11.672 10 12.5 10C13.328 10 14 9.328 14 8.5C14 7.672 13.328 7 12.5 7Z" fill="#574966"/>
</svg>
