<svg width="26" height="26" viewBox="0 0 26 26" fill="none" xmlns="http://www.w3.org/2000/svg">
<path d="M22.6849 4.31355C23.2178 4.31355 23.6502 3.88829 23.6502 3.36127C23.6502 2.83425 23.2178 2.40898 22.6849 2.40898C22.152 2.40898 21.7195 2.83425 21.7195 3.36127C21.7195 3.88843 22.156 4.31355 22.6849 4.31355ZM22.6849 3.15239C22.8047 3.15239 22.9014 3.2487 22.9014 3.36508C22.9014 3.48146 22.8047 3.57777 22.6849 3.57777C22.5612 3.57777 22.4684 3.48526 22.4684 3.36508C22.4684 3.24536 22.5646 3.15239 22.6849 3.15239Z" fill="#75717A" stroke="#75717A" stroke-width="0.1"/>
<mask id="path-2-outside-1_7662_17208" maskUnits="userSpaceOnUse" x="0" y="0" width="26" height="26" fill="black">
<rect fill="white" width="26" height="26"/>
<path d="M23.7023 1H4.88542C4.1709 1 3.58771 1.57487 3.58771 2.27919V4.23223H2.29771C1.5832 4.23223 1 4.80711 1 5.51142V21.5508C1 22.2551 1.5832 22.83 2.29771 22.83H10.9221V24.6802C10.9221 24.8553 11.0689 25 11.2465 25H17.3412C17.5188 25 17.6656 24.8553 17.6656 24.6802V22.83H21.1146C21.8291 22.83 22.4123 22.2551 22.4123 21.5508V19.5977H23.7023C24.4168 19.5977 25 19.0228 25 18.3185V2.27919C25 1.57487 24.4168 1 23.7023 1ZM4.23656 2.27919C4.23656 1.92513 4.53009 1.63959 4.88542 1.63959H23.7023C24.0615 1.63959 24.3511 1.92893 24.3511 2.27919V5.08503H12.0383L10.59 3.60406C10.478 3.48985 10.3235 3.42513 10.1651 3.42513H6.9749C6.65047 3.42513 6.38397 3.68782 6.38397 4.00761V5.08503H4.23656V2.27919ZM2.29771 22.1942C1.93853 22.1942 1.64886 21.9048 1.64886 21.5546V5.51142C1.64886 5.15736 1.94239 4.87183 2.29771 4.87183H3.58771V18.3223C3.58771 19.0267 4.1709 19.6015 4.88542 19.6015H11.9302C12.0576 19.8452 12.1155 20.1193 12.0924 20.401H11.5903C11.2195 20.401 10.9221 20.698 10.9221 21.0596V22.1942H2.29771ZM13.9733 15.4975C14.0389 15.3833 14.1587 15.3109 14.2939 15.3109C14.4947 15.3109 14.6569 15.4708 14.6569 15.6688C14.6569 15.7982 14.5874 15.9162 14.4754 15.981C14.3518 16.0533 14.205 16.0457 14.0544 15.9619C14.0351 15.9505 14.0158 15.9353 14.008 15.9162C13.8845 15.7221 13.9347 15.5698 13.9733 15.4975ZM13.9694 14.7322C13.7338 14.8122 13.533 14.9683 13.4094 15.1891C13.224 15.5165 13.2472 15.9162 13.4635 16.2589C13.533 16.3655 13.6257 16.453 13.7377 16.5178C13.9154 16.6168 14.1085 16.6701 14.2977 16.6701C14.4754 16.6701 14.6492 16.6244 14.8037 16.5368C15.1126 16.3579 15.3058 16.0267 15.3058 15.6726C15.3058 15.2348 15.0161 14.8655 14.6183 14.7322V13.0876L17.4879 18.1929C17.4841 18.1967 17.4802 18.2043 17.4686 18.2081C16.4528 18.467 15.7885 19.4036 15.8426 20.401H12.749C12.8069 19.3997 12.1387 18.4632 11.1036 18.1777L13.9694 13.0876V14.7322ZM17.0167 24.3604H11.571L11.5903 21.0368H16.9974C17.009 21.0368 17.0167 21.0444 17.0167 21.0558V24.3604ZM21.7634 21.5508C21.7634 21.9048 21.4699 22.1904 21.1146 22.1904H17.6656V21.0558C17.6656 20.6904 17.3643 20.3972 16.9974 20.3972H16.4953C16.4722 20.1155 16.534 19.8414 16.6575 19.5977H21.7634V21.5508ZM23.7023 18.9619H17.2871C17.3914 18.9048 17.5034 18.8553 17.627 18.8249C17.8317 18.7716 17.9977 18.6307 18.0827 18.4404C18.1638 18.2538 18.1522 18.0444 18.0518 17.8655L14.7303 11.9683C14.6453 11.8122 14.4792 11.7132 14.2977 11.7132C14.1123 11.717 13.9463 11.8084 13.8574 11.9645L10.532 17.8655C10.4316 18.0444 10.4239 18.2576 10.505 18.4442C10.5861 18.6345 10.7522 18.7716 10.9569 18.8249C11.0805 18.8553 11.1886 18.9048 11.2967 18.9619H4.88542C4.52623 18.9619 4.23656 18.6726 4.23656 18.3223V5.72462H6.43804C6.76247 5.72462 7.02897 5.46193 7.02897 5.14213V4.06472H10.1381L11.5864 5.54569C11.6984 5.6599 11.8529 5.72462 12.0113 5.72462H24.3511V18.3185C24.3511 18.6726 24.0615 18.9619 23.7023 18.9619Z"/>
</mask>
<path d="M23.7023 1H4.88542C4.1709 1 3.58771 1.57487 3.58771 2.27919V4.23223H2.29771C1.5832 4.23223 1 4.80711 1 5.51142V21.5508C1 22.2551 1.5832 22.83 2.29771 22.83H10.9221V24.6802C10.9221 24.8553 11.0689 25 11.2465 25H17.3412C17.5188 25 17.6656 24.8553 17.6656 24.6802V22.83H21.1146C21.8291 22.83 22.4123 22.2551 22.4123 21.5508V19.5977H23.7023C24.4168 19.5977 25 19.0228 25 18.3185V2.27919C25 1.57487 24.4168 1 23.7023 1ZM4.23656 2.27919C4.23656 1.92513 4.53009 1.63959 4.88542 1.63959H23.7023C24.0615 1.63959 24.3511 1.92893 24.3511 2.27919V5.08503H12.0383L10.59 3.60406C10.478 3.48985 10.3235 3.42513 10.1651 3.42513H6.9749C6.65047 3.42513 6.38397 3.68782 6.38397 4.00761V5.08503H4.23656V2.27919ZM2.29771 22.1942C1.93853 22.1942 1.64886 21.9048 1.64886 21.5546V5.51142C1.64886 5.15736 1.94239 4.87183 2.29771 4.87183H3.58771V18.3223C3.58771 19.0267 4.1709 19.6015 4.88542 19.6015H11.9302C12.0576 19.8452 12.1155 20.1193 12.0924 20.401H11.5903C11.2195 20.401 10.9221 20.698 10.9221 21.0596V22.1942H2.29771ZM13.9733 15.4975C14.0389 15.3833 14.1587 15.3109 14.2939 15.3109C14.4947 15.3109 14.6569 15.4708 14.6569 15.6688C14.6569 15.7982 14.5874 15.9162 14.4754 15.981C14.3518 16.0533 14.205 16.0457 14.0544 15.9619C14.0351 15.9505 14.0158 15.9353 14.008 15.9162C13.8845 15.7221 13.9347 15.5698 13.9733 15.4975ZM13.9694 14.7322C13.7338 14.8122 13.533 14.9683 13.4094 15.1891C13.224 15.5165 13.2472 15.9162 13.4635 16.2589C13.533 16.3655 13.6257 16.453 13.7377 16.5178C13.9154 16.6168 14.1085 16.6701 14.2977 16.6701C14.4754 16.6701 14.6492 16.6244 14.8037 16.5368C15.1126 16.3579 15.3058 16.0267 15.3058 15.6726C15.3058 15.2348 15.0161 14.8655 14.6183 14.7322V13.0876L17.4879 18.1929C17.4841 18.1967 17.4802 18.2043 17.4686 18.2081C16.4528 18.467 15.7885 19.4036 15.8426 20.401H12.749C12.8069 19.3997 12.1387 18.4632 11.1036 18.1777L13.9694 13.0876V14.7322ZM17.0167 24.3604H11.571L11.5903 21.0368H16.9974C17.009 21.0368 17.0167 21.0444 17.0167 21.0558V24.3604ZM21.7634 21.5508C21.7634 21.9048 21.4699 22.1904 21.1146 22.1904H17.6656V21.0558C17.6656 20.6904 17.3643 20.3972 16.9974 20.3972H16.4953C16.4722 20.1155 16.534 19.8414 16.6575 19.5977H21.7634V21.5508ZM23.7023 18.9619H17.2871C17.3914 18.9048 17.5034 18.8553 17.627 18.8249C17.8317 18.7716 17.9977 18.6307 18.0827 18.4404C18.1638 18.2538 18.1522 18.0444 18.0518 17.8655L14.7303 11.9683C14.6453 11.8122 14.4792 11.7132 14.2977 11.7132C14.1123 11.717 13.9463 11.8084 13.8574 11.9645L10.532 17.8655C10.4316 18.0444 10.4239 18.2576 10.505 18.4442C10.5861 18.6345 10.7522 18.7716 10.9569 18.8249C11.0805 18.8553 11.1886 18.9048 11.2967 18.9619H4.88542C4.52623 18.9619 4.23656 18.6726 4.23656 18.3223V5.72462H6.43804C6.76247 5.72462 7.02897 5.46193 7.02897 5.14213V4.06472H10.1381L11.5864 5.54569C11.6984 5.6599 11.8529 5.72462 12.0113 5.72462H24.3511V18.3185C24.3511 18.6726 24.0615 18.9619 23.7023 18.9619Z" fill="#75717A"/>
<path d="M23.7023 1H4.88542C4.1709 1 3.58771 1.57487 3.58771 2.27919V4.23223H2.29771C1.5832 4.23223 1 4.80711 1 5.51142V21.5508C1 22.2551 1.5832 22.83 2.29771 22.83H10.9221V24.6802C10.9221 24.8553 11.0689 25 11.2465 25H17.3412C17.5188 25 17.6656 24.8553 17.6656 24.6802V22.83H21.1146C21.8291 22.83 22.4123 22.2551 22.4123 21.5508V19.5977H23.7023C24.4168 19.5977 25 19.0228 25 18.3185V2.27919C25 1.57487 24.4168 1 23.7023 1ZM4.23656 2.27919C4.23656 1.92513 4.53009 1.63959 4.88542 1.63959H23.7023C24.0615 1.63959 24.3511 1.92893 24.3511 2.27919V5.08503H12.0383L10.59 3.60406C10.478 3.48985 10.3235 3.42513 10.1651 3.42513H6.9749C6.65047 3.42513 6.38397 3.68782 6.38397 4.00761V5.08503H4.23656V2.27919ZM2.29771 22.1942C1.93853 22.1942 1.64886 21.9048 1.64886 21.5546V5.51142C1.64886 5.15736 1.94239 4.87183 2.29771 4.87183H3.58771V18.3223C3.58771 19.0267 4.1709 19.6015 4.88542 19.6015H11.9302C12.0576 19.8452 12.1155 20.1193 12.0924 20.401H11.5903C11.2195 20.401 10.9221 20.698 10.9221 21.0596V22.1942H2.29771ZM13.9733 15.4975C14.0389 15.3833 14.1587 15.3109 14.2939 15.3109C14.4947 15.3109 14.6569 15.4708 14.6569 15.6688C14.6569 15.7982 14.5874 15.9162 14.4754 15.981C14.3518 16.0533 14.205 16.0457 14.0544 15.9619C14.0351 15.9505 14.0158 15.9353 14.008 15.9162C13.8845 15.7221 13.9347 15.5698 13.9733 15.4975ZM13.9694 14.7322C13.7338 14.8122 13.533 14.9683 13.4094 15.1891C13.224 15.5165 13.2472 15.9162 13.4635 16.2589C13.533 16.3655 13.6257 16.453 13.7377 16.5178C13.9154 16.6168 14.1085 16.6701 14.2977 16.6701C14.4754 16.6701 14.6492 16.6244 14.8037 16.5368C15.1126 16.3579 15.3058 16.0267 15.3058 15.6726C15.3058 15.2348 15.0161 14.8655 14.6183 14.7322V13.0876L17.4879 18.1929C17.4841 18.1967 17.4802 18.2043 17.4686 18.2081C16.4528 18.467 15.7885 19.4036 15.8426 20.401H12.749C12.8069 19.3997 12.1387 18.4632 11.1036 18.1777L13.9694 13.0876V14.7322ZM17.0167 24.3604H11.571L11.5903 21.0368H16.9974C17.009 21.0368 17.0167 21.0444 17.0167 21.0558V24.3604ZM21.7634 21.5508C21.7634 21.9048 21.4699 22.1904 21.1146 22.1904H17.6656V21.0558C17.6656 20.6904 17.3643 20.3972 16.9974 20.3972H16.4953C16.4722 20.1155 16.534 19.8414 16.6575 19.5977H21.7634V21.5508ZM23.7023 18.9619H17.2871C17.3914 18.9048 17.5034 18.8553 17.627 18.8249C17.8317 18.7716 17.9977 18.6307 18.0827 18.4404C18.1638 18.2538 18.1522 18.0444 18.0518 17.8655L14.7303 11.9683C14.6453 11.8122 14.4792 11.7132 14.2977 11.7132C14.1123 11.717 13.9463 11.8084 13.8574 11.9645L10.532 17.8655C10.4316 18.0444 10.4239 18.2576 10.505 18.4442C10.5861 18.6345 10.7522 18.7716 10.9569 18.8249C11.0805 18.8553 11.1886 18.9048 11.2967 18.9619H4.88542C4.52623 18.9619 4.23656 18.6726 4.23656 18.3223V5.72462H6.43804C6.76247 5.72462 7.02897 5.46193 7.02897 5.14213V4.06472H10.1381L11.5864 5.54569C11.6984 5.6599 11.8529 5.72462 12.0113 5.72462H24.3511V18.3185C24.3511 18.6726 24.0615 18.9619 23.7023 18.9619Z" stroke="#75717A" stroke-width="0.2" mask="url(#path-2-outside-1_7662_17208)"/>
<path d="M20.4779 4.31355C21.0107 4.31355 21.4432 3.88829 21.4432 3.36127C21.4432 2.83425 21.0107 2.40898 20.4779 2.40898C19.945 2.40898 19.5125 2.83425 19.5125 3.36127C19.5125 3.88829 19.945 4.31355 20.4779 4.31355ZM20.4779 3.15239C20.5977 3.15239 20.6943 3.2487 20.6943 3.36508C20.6943 3.48146 20.5977 3.57777 20.4779 3.57777C20.3542 3.57777 20.2614 3.48526 20.2614 3.36508C20.2614 3.24536 20.3575 3.15239 20.4779 3.15239Z" fill="#75717A" stroke="#75717A" stroke-width="0.1"/>
<path d="M18.263 4.31355C18.7959 4.31355 19.2284 3.88829 19.2284 3.36127C19.2284 2.83425 18.7959 2.40898 18.263 2.40898C17.7301 2.40898 17.2977 2.83425 17.2977 3.36127C17.2977 3.88829 17.7301 4.31355 18.263 4.31355ZM18.263 3.15239C18.3828 3.15239 18.4795 3.2487 18.4795 3.36508C18.4795 3.48146 18.3828 3.57777 18.263 3.57777C18.1393 3.57777 18.0465 3.48526 18.0465 3.36508C18.0465 3.24536 18.1427 3.15239 18.263 3.15239Z" fill="#75717A" stroke="#75717A" stroke-width="0.1"/>
<path d="M20.5124 8.47613L20.5125 8.47599C21.015 7.98466 21.8836 7.98162 22.4085 8.47137L22.4098 8.47264L22.4098 8.47266C22.8232 8.88805 22.9149 9.47831 22.655 10.0182L22.6099 9.99651L22.655 10.0182C22.542 10.2529 22.3525 10.4437 22.1225 10.559M20.5124 8.47613L20.5629 10.2935M20.5124 8.47613C20.3259 8.66 20.2044 8.89001 20.1512 9.1356L20.5124 8.47613ZM22.1225 10.559L22.1008 10.5157L22.1226 10.559C22.1226 10.559 22.1225 10.559 22.1225 10.559ZM22.1225 10.559C21.9109 10.6652 21.687 10.7166 21.4667 10.7166C21.1182 10.7166 20.7808 10.5862 20.5276 10.3288M20.5276 10.3288C20.5277 10.3289 20.5278 10.329 20.5278 10.3291L20.5629 10.2935M20.5276 10.3288C20.5275 10.3287 20.5274 10.3286 20.5273 10.3285L20.5629 10.2935M20.5276 10.3288C20.3957 10.1987 20.2956 10.0442 20.2307 9.87519M20.5629 10.2935C20.4278 10.1602 20.3274 10.0003 20.2656 9.82519M20.2307 9.87519H20.2656V9.82519M20.2307 9.87519H17.3219M20.2307 9.87519C20.2264 9.86413 20.2224 9.85301 20.2184 9.84183L20.2656 9.82519M20.2656 9.82519L17.3219 9.87519M17.3219 9.87519C18.9361 10.7156 20.1519 12.2151 20.5983 14.0087H21.0882C21.4627 14.0087 21.7678 14.3083 21.7678 14.6793V16.1221C21.7678 16.4931 21.4627 16.7927 21.0882 16.7927H19.6244C19.2499 16.7927 18.9449 16.4931 18.9449 16.1221V14.6793C18.9449 14.3083 19.2499 14.0087 19.6244 14.0087H19.8252C19.2743 12.0667 17.6948 10.5432 15.7156 10.0488V10.1221C15.7156 10.4931 15.4106 10.7927 15.0361 10.7927H13.5723C13.1977 10.7927 12.8927 10.4931 12.8927 10.1221V10.0487C10.9098 10.5432 9.33021 12.0667 8.78307 14.0087H9.01097C9.3855 14.0087 9.69051 14.3083 9.69051 14.6793V16.1221C9.69051 16.4931 9.3855 16.7927 9.01097 16.7927H7.54718C7.17264 16.7927 6.86763 16.4931 6.86763 16.1221V14.6793C6.86763 14.3083 7.17264 14.0087 7.54718 14.0087H8.00998C8.45286 12.2147 9.66892 10.7186 11.2868 9.87519H8.38596C8.3686 9.92284 8.34868 9.97042 8.3262 10.0179L8.32606 10.0182C8.21307 10.2529 8.02355 10.4436 7.79362 10.559C7.79362 10.559 7.79361 10.559 7.7936 10.559L7.77119 10.5143C7.56649 10.6171 7.3502 10.6666 7.13778 10.6666C6.80176 10.6666 6.47733 10.5409 6.23401 10.2935C5.99455 10.0612 5.85938 9.74143 5.85938 9.4026C5.85938 9.06758 5.99069 8.75159 6.23401 8.51174C6.71293 8.03966 7.55104 8.03204 8.04154 8.50793L17.3219 9.87519ZM7.45169 9.89836L7.45149 9.89846C7.13665 10.0554 6.87022 9.95507 6.7257 9.80566L6.72572 9.80563L6.72427 9.80424C6.61467 9.69969 6.55437 9.55678 6.55437 9.4026C6.55437 9.25279 6.6143 9.10922 6.72514 8.99631C6.8354 8.88777 6.98099 8.82824 7.13778 8.82824C7.29107 8.82824 7.44037 8.88801 7.5465 8.99245C7.73075 9.18132 7.76811 9.44346 7.64517 9.7042C7.60331 9.7864 7.53376 9.85791 7.45169 9.89836ZM21.769 9.89836L21.7688 9.89846C21.454 10.0554 21.1876 9.95507 21.043 9.80566L21.0431 9.80563L21.0416 9.80424C20.932 9.69969 20.8717 9.55678 20.8717 9.4026C20.8717 9.25279 20.9317 9.10922 21.0425 8.99631C21.1527 8.88777 21.2983 8.82824 21.4551 8.82824C21.6084 8.82824 21.7577 8.88801 21.8638 8.99245C22.0481 9.18131 22.0855 9.44346 21.9625 9.7042C21.9207 9.7864 21.8511 9.85791 21.769 9.89836ZM8.93462 14.7483L8.95256 16.0538L7.60808 16.0715L7.59014 14.7483H8.93462ZM21.008 14.7483L21.0259 16.0538L19.6815 16.0715L19.6635 14.7483H21.008ZM13.6331 10.0754L13.6262 9.65114L13.6297 9.53966C13.6294 9.54122 13.6291 9.54223 13.6291 9.54223C13.6291 9.54223 13.6294 9.54141 13.6302 9.53942C13.6302 9.53941 13.6302 9.53939 13.6302 9.53938C13.6303 9.53916 13.6304 9.5389 13.6305 9.53862C13.6325 9.53396 13.6377 9.5212 13.6377 9.50539C13.6377 9.48902 13.6344 9.47522 13.6313 9.46492C13.6292 9.45803 13.628 9.45454 13.6271 9.45189C13.6267 9.45073 13.6264 9.44972 13.626 9.44866L13.6153 8.7559H14.9598L14.9705 9.4507C14.9699 9.4533 14.9691 9.45583 14.9682 9.459C14.9674 9.46171 14.9664 9.46489 14.9653 9.46899C14.9624 9.47908 14.959 9.49284 14.959 9.5092C14.959 9.52381 14.9628 9.53727 14.9659 9.54612C14.9594 9.59663 14.9633 9.64388 14.9746 9.68753L14.9813 10.0613L13.6331 10.0754Z" fill="#75717A" stroke="#75717A" stroke-width="0.1"/>
</svg>
