<svg width="24" height="24" viewBox="0 0 24 24" fill="none" xmlns="http://www.w3.org/2000/svg">
<path d="M23.5403 18.2869H0.459322C0.356283 18.2869 0.258346 18.2484 0.186844 18.1812C0.115504 18.1142 0.0763892 18.0243 0.0763892 17.9316C0.0763892 17.839 0.115504 17.7491 0.186844 17.6821C0.258346 17.6149 0.356283 17.5764 0.459322 17.5764H23.5403C23.6433 17.5764 23.7412 17.6149 23.8127 17.6821C23.8841 17.7491 23.9232 17.839 23.9232 17.9316C23.9232 18.0243 23.8841 18.1142 23.8127 18.1812C23.7412 18.2484 23.6433 18.2869 23.5403 18.2869Z" fill="white" stroke="white" stroke-width="0.152778"/>
<path d="M16.6728 19.574H16.0257C15.9227 19.574 15.8248 19.5355 15.7533 19.4683C15.6819 19.4013 15.6428 19.3114 15.6428 19.2188C15.6428 19.1261 15.6819 19.0362 15.7533 18.9692C15.8248 18.902 15.9227 18.8635 16.0257 18.8635H16.6728C16.7758 18.8635 16.8738 18.902 16.9453 18.9692C17.0166 19.0362 17.0557 19.1261 17.0557 19.2188C17.0557 19.3114 17.0166 19.4013 16.9453 19.4683C16.8738 19.5355 16.7758 19.574 16.6728 19.574Z" fill="white" stroke="white" stroke-width="0.152778"/>
<path d="M19.0205 19.574H18.3734C18.2703 19.574 18.1724 19.5355 18.1009 19.4683C18.0296 19.4013 17.9905 19.3114 17.9905 19.2188C17.9905 19.1261 18.0296 19.0362 18.1009 18.9692C18.1724 18.902 18.2703 18.8635 18.3734 18.8635H19.0205C19.1235 18.8635 19.2214 18.902 19.2929 18.9692C19.3643 19.0362 19.4034 19.1261 19.4034 19.2188C19.4034 19.3114 19.3643 19.4013 19.2929 19.4683C19.2214 19.5355 19.1235 19.574 19.0205 19.574Z" fill="white" stroke="white" stroke-width="0.152778"/>
<path d="M21.3666 19.574H20.6742C20.5711 19.574 20.4732 19.5355 20.4017 19.4683C20.3303 19.4013 20.2912 19.3114 20.2912 19.2188C20.2912 19.1261 20.3303 19.0362 20.4017 18.9692C20.4732 18.902 20.5711 18.8635 20.6742 18.8635H21.3666C21.4696 18.8635 21.5676 18.902 21.6391 18.9692L21.689 18.9161L21.6391 18.9692C21.7104 19.0362 21.7495 19.1261 21.7495 19.2188C21.7495 19.3114 21.7104 19.4013 21.6391 19.4683C21.5676 19.5355 21.4696 19.574 21.3666 19.574Z" fill="white" stroke="white" stroke-width="0.152778"/>
<path d="M9.75753 23.6688L10.5372 20.6085C10.5656 20.4971 10.5458 20.3798 10.4821 20.2822C10.4184 20.1846 10.3161 20.1148 10.1976 20.0881C10.0791 20.0614 9.95424 20.08 9.85039 20.1399C9.74654 20.1997 9.67224 20.2959 9.64384 20.4072L9.71786 20.4261M9.75753 23.6688L8.98342 23.7525C8.9312 23.6726 8.91522 23.5772 8.93817 23.4869C8.93817 23.4869 8.93817 23.4869 8.93818 23.4869L9.71786 20.4261M9.75753 23.6688C9.72919 23.7801 9.65497 23.8763 9.55117 23.9362C9.44737 23.9961 9.32251 24.0148 9.20404 23.9882L9.75753 23.6688ZM9.71786 20.4261C9.74093 20.3357 9.80167 20.2561 9.88854 20.206C9.97553 20.1559 10.0808 20.1401 10.1808 20.1626C10.2808 20.1851 10.3658 20.2437 10.4181 20.3239C10.4703 20.4039 10.4862 20.4993 10.4632 20.5896L10.4632 20.5896L9.6835 23.6499L9.6835 23.65C9.66048 23.7404 9.59981 23.82 9.51299 23.8701C9.42605 23.9202 9.32082 23.9362 9.22079 23.9137L9.71786 20.4261Z" fill="white" stroke="white" stroke-width="0.152778"/>
<path d="M14.4012 20.438L14.4012 20.438L15.0655 23.4983C15.0853 23.5894 15.0659 23.6844 15.0107 23.7629C14.9553 23.8416 14.8679 23.8976 14.767 23.917C14.666 23.9363 14.5612 23.917 14.4761 23.8641C14.391 23.8113 14.3332 23.7298 14.3134 23.6386L13.6503 20.5777C13.6503 20.5777 13.6503 20.5777 13.6503 20.5777C13.6405 20.5326 13.6403 20.4862 13.6497 20.441C13.659 20.3957 13.6778 20.3524 13.7052 20.3136C13.7605 20.235 13.8477 20.1791 13.9485 20.1599C14.0494 20.1406 14.154 20.1599 14.239 20.2127C14.3238 20.2655 14.3815 20.3469 14.4012 20.438Z" fill="white" stroke="white" stroke-width="0.152778"/>
<path d="M16.548 23.9236H7.42417C7.32113 23.9236 7.22319 23.8851 7.15169 23.8179C7.08035 23.7509 7.04123 23.661 7.04123 23.5684C7.04123 23.4757 7.08035 23.3859 7.15169 23.3188C7.22319 23.2516 7.32113 23.2131 7.42417 23.2131H16.548C16.6511 23.2131 16.749 23.2516 16.8205 23.3188C16.8919 23.3859 16.931 23.4757 16.931 23.5684C16.931 23.661 16.8919 23.7509 16.8205 23.8179C16.749 23.8851 16.6511 23.9236 16.548 23.9236Z" fill="white" stroke="white" stroke-width="0.152778"/>
<path d="M22.7373 20.8636H22.7368L1.26346 20.8635L1.26205 20.8636C1.10457 20.8665 0.948189 20.8394 0.802361 20.7841C0.656538 20.7288 0.524444 20.6464 0.413911 20.5422C0.303389 20.4381 0.21673 20.3142 0.158883 20.1783C0.101043 20.0424 0.0731318 19.897 0.0766915 19.751H0.0767142V19.7491V7.40095C0.0767142 6.76525 0.595202 6.26389 1.26633 6.26389H3.78572C3.88876 6.26389 3.98669 6.3024 4.05819 6.36959C4.12953 6.43663 4.16865 6.52651 4.16865 6.61914C4.16865 6.71177 4.12953 6.80165 4.05819 6.86869C3.98669 6.93589 3.88876 6.97439 3.78572 6.97439H1.26346C1.10254 6.97439 0.992639 7.0405 0.925369 7.13179C0.860816 7.21938 0.83971 7.32408 0.83971 7.40095V19.7491C0.83971 19.8046 0.848852 19.9048 0.909192 19.9929C0.973089 20.0862 1.08528 20.153 1.26346 20.153H22.7357C22.7912 20.1546 22.8465 20.1455 22.8984 20.1262C22.9507 20.1068 22.9984 20.0773 23.0386 20.0394C23.0788 20.0015 23.1106 19.956 23.1316 19.9055C23.1525 19.8554 23.1624 19.8018 23.1605 19.7478V7.40095C23.1605 7.19571 22.9929 6.97439 22.7368 6.97439H20.2168C20.1138 6.97439 20.0159 6.93589 19.9444 6.86869C19.873 6.80165 19.8339 6.71177 19.8339 6.61914C19.8339 6.52651 19.873 6.43663 19.9444 6.36959C20.0159 6.3024 20.1138 6.26389 20.2168 6.26389H22.7363C23.0559 6.2679 23.36 6.39073 23.5821 6.60416C23.8042 6.81753 23.9264 7.10387 23.9235 7.40022V7.40095L23.9235 19.7491L23.9235 19.75C23.9252 19.8957 23.896 20.0404 23.8375 20.1757C23.7789 20.3109 23.6921 20.4342 23.5819 20.5381C23.4717 20.642 23.3402 20.7245 23.1951 20.7805C23.0501 20.8364 22.8944 20.8647 22.7373 20.8636Z" fill="white" stroke="white" stroke-width="0.152778"/>
<path d="M4.24286 4.06922L4.16647 4.06923V4.14561L4.16647 13.4351L4.16647 13.4351C4.16664 13.6832 4.27155 13.9201 4.45648 14.0941C4.64126 14.268 4.89091 14.3651 5.15046 14.3656H5.1506H18.8499H18.85C19.1096 14.3651 19.3592 14.268 19.544 14.0941C19.7289 13.9201 19.8338 13.6832 19.834 13.4351V13.4351V4.14453V4.06814L19.7576 4.06814L4.24286 4.06922ZM18.8498 15.0761H5.15071C4.68511 15.0754 4.23969 14.9012 3.91192 14.593C3.58431 14.2849 3.40104 13.8684 3.40061 13.435L3.40061 3.71289C3.40061 3.62026 3.43972 3.53038 3.51106 3.46334C3.58256 3.39615 3.6805 3.35764 3.78354 3.35764H20.2169C20.32 3.35764 20.4179 3.39615 20.4894 3.46334C20.5608 3.53038 20.5999 3.62026 20.5999 3.71289V13.435C20.5994 13.8684 20.4162 14.2849 20.0886 14.593C19.7608 14.9012 19.3154 15.0754 18.8498 15.0761Z" fill="white" stroke="white" stroke-width="0.152778"/>
<path d="M19.834 1.71578V1.71557C19.8333 1.46778 19.7282 1.23136 19.5433 1.05773C19.3586 0.884252 19.1093 0.787355 18.85 0.786895H18.8499L5.1506 0.786895L5.15046 0.786895C4.89091 0.787357 4.64126 0.884493 4.45648 1.05835C4.27155 1.23236 4.16664 1.46924 4.16647 1.71734V1.7174V3.71374C4.16647 3.80637 4.12736 3.89625 4.05602 3.96329C3.98452 4.03048 3.88658 4.06899 3.78354 4.06899C3.6805 4.06899 3.58256 4.03048 3.51106 3.96329C3.43972 3.89625 3.40061 3.80637 3.40061 3.71374V1.71743C3.40105 1.28409 3.58431 0.86757 3.91192 0.559518C4.23969 0.251306 4.68511 0.0770756 5.15071 0.0763891L18.8498 0.0763892C19.3154 0.0770893 19.7608 0.251319 20.0886 0.559518C20.4162 0.867579 20.5994 1.28412 20.5999 1.71747V3.71343C20.5995 3.80584 20.5602 3.89539 20.4889 3.96215C20.4175 4.02905 20.3197 4.06737 20.2169 4.06737C20.1139 4.06737 20.016 4.02886 19.9445 3.96167C19.8731 3.89463 19.834 3.80475 19.834 3.71212V1.71578Z" fill="white" stroke="white" stroke-width="0.152778"/>
<path d="M18.5958 2.42752H17.432C17.3289 2.42752 17.231 2.38901 17.1595 2.32182C17.0882 2.25478 17.049 2.1649 17.049 2.07227C17.049 1.97963 17.0882 1.88976 17.1595 1.82272C17.231 1.75552 17.3289 1.71701 17.432 1.71701H18.5958C18.6988 1.71701 18.7968 1.75552 18.8683 1.82272L18.9206 1.76705L18.8683 1.82272C18.9396 1.88976 18.9787 1.97963 18.9787 2.07227C18.9787 2.1649 18.9396 2.25478 18.8683 2.32182C18.7968 2.38901 18.6988 2.42752 18.5958 2.42752Z" fill="white" stroke="white" stroke-width="0.152778"/>
<path d="M15.9897 2.42752H14.8265C14.7235 2.42752 14.6255 2.38901 14.554 2.32182C14.4827 2.25478 14.4436 2.1649 14.4436 2.07227C14.4436 1.97963 14.4827 1.88976 14.554 1.82272C14.6255 1.75552 14.7235 1.71701 14.8265 1.71701H15.9897C16.0928 1.71701 16.1907 1.75552 16.2622 1.82272L16.3122 1.76958L16.2622 1.82272C16.3336 1.88976 16.3727 1.97963 16.3727 2.07227C16.3727 2.1649 16.3336 2.25478 16.2622 2.32182C16.1907 2.38901 16.0928 2.42752 15.9897 2.42752Z" fill="white" stroke="white" stroke-width="0.152778"/>
<path d="M12.5695 2.42752H5.40463C5.3016 2.42752 5.20366 2.38901 5.13216 2.32182C5.06082 2.25478 5.0217 2.1649 5.0217 2.07227C5.0217 1.97963 5.06082 1.88976 5.13216 1.82272C5.20366 1.75552 5.3016 1.71701 5.40463 1.71701H12.5695C12.6725 1.71701 12.7705 1.75552 12.842 1.82272C12.9133 1.88976 12.9524 1.97963 12.9524 2.07227C12.9524 2.1649 12.9133 2.25478 12.842 2.32182C12.7705 2.38901 12.6725 2.42752 12.5695 2.42752Z" fill="white" stroke="white" stroke-width="0.152778"/>
<path d="M9.82864 8.86515H14.2105C14.2105 8.86515 14.2105 8.86515 14.2105 8.86515C14.5649 8.86501 14.904 8.73262 15.1533 8.49841C15.4025 8.26434 15.5416 7.94795 15.5419 7.61903V6.14777C15.5419 6.14776 15.5419 6.14775 15.5419 6.14774C15.5418 5.8187 15.4027 5.50213 15.1535 5.26787C14.9042 5.03347 14.5651 4.90089 14.2105 4.90061C14.2104 4.90061 14.2104 4.90061 14.2104 4.90061L14.2105 4.82422L9.82864 8.86515ZM9.82864 8.86515C9.47436 8.86475 9.13561 8.73223 8.8865 8.49805C8.63756 8.26401 8.49855 7.94777 8.49826 7.61903M9.82864 8.86515L8.49826 7.61903M8.49826 7.61903L8.49826 6.14777C8.49826 6.14776 8.49826 6.14775 8.49826 6.14774C8.49842 5.81887 8.63735 5.50246 8.88629 5.26823C9.1354 5.03385 9.47424 4.90115 9.82867 4.90061L8.49826 7.61903ZM9.82857 5.61111V5.61111L9.82747 5.61112C9.68011 5.61319 9.53853 5.66914 9.43305 5.76839C9.32741 5.86777 9.26623 6.00296 9.26414 6.14554L9.26413 6.14554V6.14666L9.26413 7.6191L9.26413 7.61919C9.26431 7.76263 9.32502 7.89912 9.43125 7.99906C9.53732 8.09886 9.6802 8.15432 9.82838 8.15465H9.82855H14.2105L14.2106 8.15465C14.3588 8.15448 14.5018 8.09907 14.608 7.99922C14.7142 7.89922 14.7749 7.76261 14.7749 7.6191L14.7749 6.14774L14.7749 6.14671C14.773 6.00405 14.7118 5.86875 14.6061 5.76932C14.5006 5.67002 14.3589 5.61412 14.2115 5.6122V5.61219L14.2105 5.61219L9.82857 5.61111Z" fill="white" stroke="white" stroke-width="0.152778"/>
<path d="M12.4008 9.76638V9.84277H12.4772H16.3189C16.4219 9.84277 16.5199 9.88128 16.5914 9.94848C16.6627 10.0155 16.7018 10.1054 16.7018 10.198C16.7018 10.2907 16.6627 10.3805 16.5914 10.4476C16.5199 10.5148 16.4219 10.5533 16.3189 10.5533H12.0179C11.9149 10.5533 11.8169 10.5148 11.7454 10.4476C11.6741 10.3805 11.635 10.2907 11.635 10.198V8.50977C11.635 8.41713 11.6741 8.32726 11.7454 8.26022C11.8169 8.19302 11.9149 8.15451 12.0179 8.15451C12.121 8.15451 12.2189 8.19302 12.2904 8.26022C12.3617 8.32726 12.4008 8.41713 12.4008 8.50977V9.76638Z" fill="white" stroke="white" stroke-width="0.152778"/>
<path d="M12.0198 10.5525H7.71713C7.6141 10.5525 7.51616 10.514 7.44466 10.4468C7.37332 10.3798 7.3342 10.2899 7.3342 10.1973C7.3342 10.1046 7.37332 10.0148 7.44466 9.94772C7.51616 9.88052 7.6141 9.84201 7.71713 9.84201H12.0198C12.1229 9.84201 12.2208 9.88052 12.2923 9.94772C12.3637 10.0148 12.4028 10.1046 12.4028 10.1973C12.4028 10.2899 12.3637 10.3798 12.2923 10.4468C12.2208 10.514 12.1229 10.5525 12.0198 10.5525Z" fill="white" stroke="white" stroke-width="0.152778"/>
<path d="M7.71713 11.9327C7.6141 11.9327 7.51616 11.8942 7.44466 11.827C7.37332 11.76 7.3342 11.6701 7.3342 11.5774V10.1973C7.3342 10.1046 7.37332 10.0148 7.44466 9.94772C7.51616 9.88052 7.6141 9.84201 7.71713 9.84201C7.82017 9.84201 7.91811 9.88052 7.98961 9.94772C8.06095 10.0148 8.10007 10.1046 8.10007 10.1973V11.5774C8.10007 11.6701 8.06095 11.76 7.98961 11.827C7.91811 11.8942 7.82017 11.9327 7.71713 11.9327Z" fill="white" stroke="white" stroke-width="0.152778"/>
<path d="M16.3226 11.9327C16.2196 11.9327 16.1216 11.8942 16.0501 11.827C15.9788 11.76 15.9397 11.6701 15.9397 11.5774V10.1973C15.9397 10.1046 15.9788 10.0148 16.0501 9.94772C16.1216 9.88052 16.2196 9.84201 16.3226 9.84201C16.4256 9.84201 16.5236 9.88052 16.5951 9.94772C16.6664 10.0148 16.7055 10.1046 16.7055 10.1973V11.5774C16.7055 11.6701 16.6664 11.76 16.5951 11.827C16.5236 11.8942 16.4256 11.9327 16.3226 11.9327Z" fill="white" stroke="white" stroke-width="0.152778"/>
<path d="M8.53016 13.5305H8.5298H6.83432C6.73128 13.5305 6.63335 13.4919 6.56184 13.4248C6.4905 13.3577 6.45139 13.2678 6.45139 13.1752V11.5781C6.45139 11.4855 6.4905 11.3956 6.56184 11.3286C6.63335 11.2614 6.73128 11.2229 6.83432 11.2229H8.53209C8.63513 11.2229 8.73307 11.2614 8.80457 11.3286C8.87591 11.3956 8.91503 11.4855 8.91503 11.5781V13.1752C8.91503 13.2213 8.90534 13.2671 8.88637 13.31C8.8674 13.3529 8.83946 13.3921 8.8039 13.4254C8.76833 13.4586 8.72586 13.4852 8.67882 13.5033C8.63178 13.5214 8.58124 13.5307 8.53016 13.5305ZM7.21496 12.7433L7.21472 12.8199H7.29135H8.07047H8.14686V12.7436V12.0098V11.9334H8.07047H7.29364H7.21749L7.21726 12.0095L7.21496 12.7433Z" fill="white" stroke="white" stroke-width="0.152778"/>
<path d="M15.8517 12.7433L15.8514 12.8199H15.9281H16.7072H16.7836V12.7436V12.0098V11.9334H16.7072H15.9304H15.8542L15.854 12.0095L15.8517 12.7433ZM17.1665 13.5305H15.471C15.368 13.5305 15.2701 13.4919 15.1986 13.4248C15.1272 13.3577 15.0881 13.2678 15.0881 13.1752V11.5781C15.0881 11.4855 15.1272 11.3956 15.1986 11.3286C15.2701 11.2614 15.368 11.2229 15.471 11.2229H17.1665C17.2696 11.2229 17.3675 11.2614 17.439 11.3286C17.5103 11.3956 17.5494 11.4855 17.5494 11.5781V13.1752C17.5494 13.2678 17.5103 13.3577 17.439 13.4248C17.3675 13.4919 17.2696 13.5305 17.1665 13.5305Z" fill="white" stroke="white" stroke-width="0.152778"/>
<path d="M12.0179 11.9327C11.9149 11.9327 11.8169 11.8942 11.7454 11.827C11.6741 11.76 11.635 11.6701 11.635 11.5774V10.1973C11.635 10.1046 11.6741 10.0148 11.7454 9.94772C11.8169 9.88052 11.9149 9.84201 12.0179 9.84201C12.121 9.84201 12.2189 9.88052 12.2904 9.94772C12.3617 10.0148 12.4008 10.1046 12.4008 10.1973V11.5774C12.4008 11.6701 12.3617 11.76 12.2904 11.827C12.2189 11.8942 12.121 11.9327 12.0179 11.9327Z" fill="white" stroke="white" stroke-width="0.152778"/>
<path d="M11.5532 12.7436V12.8199H11.6296H12.4076H12.4839V12.7436V12.0098V11.9334H12.4076H11.6296H11.5532V12.0098V12.7436ZM12.8669 13.5305H11.1703C11.0672 13.5305 10.9693 13.4919 10.8978 13.4248C10.8264 13.3577 10.7873 13.2678 10.7873 13.1752V11.5781C10.7873 11.4855 10.8264 11.3956 10.8978 11.3286C10.9693 11.2614 11.0672 11.2229 11.1703 11.2229H12.8669C12.9699 11.2229 13.0679 11.2614 13.1394 11.3286C13.2107 11.3956 13.2498 11.4855 13.2498 11.5781V13.1752C13.2498 13.2678 13.2107 13.3577 13.1394 13.4248C13.0679 13.4919 12.9699 13.5305 12.8669 13.5305Z" fill="white" stroke="white" stroke-width="0.152778"/>
<path d="M13.5243 7.23807H10.514C10.411 7.23807 10.313 7.19956 10.2415 7.13236C10.1702 7.06532 10.1311 6.97545 10.1311 6.88281C10.1311 6.79018 10.1702 6.70031 10.2415 6.63326C10.313 6.56607 10.411 6.52756 10.514 6.52756H13.5243C13.6273 6.52756 13.7253 6.56607 13.7968 6.63326C13.8681 6.70031 13.9072 6.79018 13.9072 6.88281C13.9072 6.97545 13.8681 7.06532 13.7968 7.13236C13.7253 7.19956 13.6273 7.23807 13.5243 7.23807Z" fill="white" stroke="white" stroke-width="0.152778"/>
</svg>
