<svg width="24" height="24" viewBox="0 0 24 24" fill="none" xmlns="http://www.w3.org/2000/svg">
<mask id="mask0_7662_17288" style="mask-type:luminance" maskUnits="userSpaceOnUse" x="0" y="0" width="24" height="24">
<path d="M23.5 23.5V0.5H0.5V23.5H23.5Z" fill="white" stroke="white"/>
</mask>
<g mask="url(#mask0_7662_17288)">
<path d="M0.46875 7.28125H7.8232H21.8212" stroke="#75717A" stroke-miterlimit="10" stroke-linecap="round" stroke-linejoin="round"/>
<path d="M4.383 5.28711C4.99688 5.28711 5.49778 4.7878 5.49778 4.17425C5.49778 3.5607 4.99688 3.06139 4.383 3.06139C3.77048 3.06139 3.26953 3.5607 3.26953 4.17425C3.26953 4.7878 3.77048 5.28711 4.383 5.28711Z" stroke="#75717A" stroke-miterlimit="10" stroke-linecap="round" stroke-linejoin="round"/>
<path d="M14.0627 3.06139H18.2561C18.8686 3.06139 19.3696 3.56206 19.3696 4.17425C19.3696 4.78648 18.8686 5.28711 18.2561 5.28711H14.0627C13.4502 5.28711 12.9492 4.78648 12.9492 4.17425C12.9492 3.56206 13.4502 3.06139 14.0627 3.06139Z" stroke="#75717A" stroke-miterlimit="10" stroke-linecap="round" stroke-linejoin="round"/>
<path d="M8.49628 5.28711C9.11016 5.28711 9.61106 4.7878 9.61106 4.17425C9.61106 3.5607 9.11016 3.06139 8.49628 3.06139C7.88377 3.06139 7.38281 3.5607 7.38281 4.17425C7.38281 4.7878 7.88377 5.28711 8.49628 5.28711Z" stroke="#75717A" stroke-miterlimit="10" stroke-linecap="round" stroke-linejoin="round"/>
<path d="M7.61389 10.8869L6.67578 14.8125" stroke="#75717A" stroke-miterlimit="10" stroke-linecap="round" stroke-linejoin="round"/>
<path d="M9.77344 14.457L11.1008 12.967C11.1592 12.9019 11.1592 12.7957 11.1008 12.7306L9.77344 11.2406" stroke="#75717A" stroke-miterlimit="10" stroke-linecap="round" stroke-linejoin="round"/>
<path d="M4.51577 14.457L3.18841 12.967C3.12991 12.9019 3.12991 12.7957 3.18841 12.7306L4.51577 11.2406" stroke="#75717A" stroke-miterlimit="10" stroke-linecap="round" stroke-linejoin="round"/>
<path d="M18.9637 12.9581C19.4765 13.0724 19.9562 13.2742 20.388 13.5451L20.772 13.1626C20.9992 12.9342 21.3726 12.9342 21.6012 13.1626L22.2057 13.7669C22.4342 13.9953 22.4342 14.3685 22.2057 14.5956L21.823 14.9794C22.0928 15.407 22.2921 15.8825 22.4077 16.3897H22.9458C23.2687 16.3897 23.5331 16.654 23.5331 16.9754V17.832C23.5331 18.1533 23.2687 18.4176 22.9458 18.4176H22.405C22.2894 18.9223 22.0901 19.395 21.823 19.82L22.2057 20.2025C22.4342 20.4309 22.4342 20.8041 22.2057 21.0312L21.6012 21.6367C21.3726 21.8652 20.9992 21.8652 20.772 21.6367L20.388 21.2542C19.9615 21.5225 19.4872 21.7217 18.9796 21.8373V22.3817C18.9796 22.7045 18.7152 22.9688 18.3937 22.9688H17.5366C17.215 22.9688 16.9507 22.7045 16.9507 22.3817V21.836C16.4457 21.7217 15.9714 21.5212 15.5448 21.2542L15.1622 21.6367C14.9336 21.8652 14.5603 21.8652 14.3331 21.6367L13.7272 21.0312C13.5 20.8041 13.5 20.4309 13.7272 20.2025L14.1112 19.82C13.8428 19.395 13.6435 18.9223 13.5279 18.4176H12.9844C12.6616 18.4176 12.3984 18.1533 12.3984 17.832V16.9754C12.3984 16.654 12.6616 16.3897 12.9844 16.3897H13.5266C13.6408 15.8878 13.8375 15.4177 14.1019 14.994L13.7166 14.6076C13.488 14.3805 13.488 14.0073 13.7166 13.7789L14.3211 13.1746C14.5497 12.9462 14.923 12.9462 15.1502 13.1746L15.5316 13.5544C15.9568 13.2848 16.4298 13.0843 16.9347 12.9661V12.4256C16.9347 12.1029 17.1978 11.8386 17.5207 11.8386H18.3764C18.6992 11.8386 18.9637 12.1029 18.9637 12.4256V12.9581Z" stroke="#75717A" stroke-miterlimit="10" stroke-linecap="round" stroke-linejoin="round"/>
<path d="M17.9638 14.9884C19.2979 14.9884 20.3795 16.0694 20.3795 17.404C20.3795 18.7374 19.2979 19.8184 17.9638 19.8184C16.6285 19.8184 15.5469 18.7374 15.5469 17.404C15.5469 16.0694 16.6285 14.9884 17.9638 14.9884Z" stroke="#75717A" stroke-miterlimit="10" stroke-linecap="round" stroke-linejoin="round"/>
<path d="M4.98905 18.418H2.21466C1.25541 18.418 0.46875 17.4791 0.46875 16.333V3.11656C0.46875 1.9692 1.254 1.03161 2.21466 1.03161H4.23698H20.0753C21.036 1.03161 21.8212 1.97051 21.8212 3.11656V13.3848M12.9826 18.418H9.1785" stroke="#75717A" stroke-miterlimit="10" stroke-linecap="round" stroke-linejoin="round"/>
<path d="M7.08984 18.418H7.10025" stroke="#75717A" stroke-miterlimit="10" stroke-linecap="round" stroke-linejoin="round"/>
</g>
</svg>
