<svg width="24" height="24" viewBox="0 0 24 24" fill="none" xmlns="http://www.w3.org/2000/svg">
<path d="M4.79924 11.2756H4.87563V11.1992V7.99922V7.92283H4.79924H3.99923H3.92284V7.99922V11.1992V11.2756H3.99923H4.79924ZM3.37039 7.37039C3.43108 7.3097 3.5134 7.27561 3.59922 7.27561H5.19925C5.28508 7.27561 5.36739 7.3097 5.42808 7.37039C5.48877 7.43108 5.52287 7.51339 5.52287 7.59922V11.5992C5.52287 11.685 5.48877 11.7674 5.42808 11.828C5.36739 11.8887 5.28508 11.9228 5.19925 11.9228H3.59922C3.5134 11.9228 3.43108 11.8887 3.37039 11.828C3.3097 11.7674 3.27561 11.685 3.27561 11.5992V7.59922C3.27561 7.51339 3.3097 7.43108 3.37039 7.37039Z" fill="#75717A" stroke="#75717A" stroke-width="0.152778"/>
<path d="M1.60002 11.276H1.67641V11.1996V8.39961V8.32322H1.60002H0.800012H0.723623V8.39961V11.1996V11.276H0.800012H1.60002ZM0.171174 7.77078C0.231864 7.71009 0.314177 7.676 0.400006 7.676H2.00003C2.08586 7.676 2.16817 7.71009 2.22886 7.77078C2.28955 7.83147 2.32365 7.91378 2.32365 7.99961V11.5996C2.32365 11.6854 2.28955 11.7677 2.22886 11.8284C2.16817 11.8891 2.08586 11.9232 2.00003 11.9232H0.400006C0.314177 11.9232 0.231864 11.8891 0.171174 11.8284C0.110484 11.7677 0.0763892 11.6854 0.0763892 11.5996V7.99961C0.0763892 7.91378 0.110484 7.83147 0.171174 7.77078Z" fill="#75717A" stroke="#75717A" stroke-width="0.152778"/>
<path d="M3.99145 23.2531L4.07645 23.2627V23.1772V19.9992V19.9228H4.00006H0.822063H0.736521L0.74616 20.0078C0.840093 20.8361 1.2122 21.6081 1.80167 22.1976C2.39115 22.787 3.16312 23.1591 3.99145 23.2531ZM0.400006 19.2756H4.40007C4.4859 19.2756 4.56821 19.3097 4.6289 19.3704C4.68959 19.4311 4.72368 19.5134 4.72368 19.5992V23.5992C4.72368 23.685 4.68959 23.7674 4.6289 23.828C4.56823 23.8887 4.48595 23.9228 4.40015 23.9228C3.25382 23.9215 2.15481 23.4656 1.34423 22.655C0.533645 21.8444 0.0776896 20.7454 0.0763892 19.5991L0 19.5992H0.0763892C0.0763892 19.5134 0.110484 19.4311 0.171174 19.3704C0.231864 19.3097 0.314177 19.2756 0.400006 19.2756Z" fill="#75717A" stroke="#75717A" stroke-width="0.152778"/>
<mask id="path-4-inside-1_7662_17266" fill="white">
<path d="M23.598 16C23.7041 16 23.8058 15.9578 23.8808 15.8828C23.9559 15.8078 23.998 15.7061 23.998 15.6V0.399999C23.998 0.293913 23.9559 0.192172 23.8808 0.117157C23.8058 0.0421427 23.7041 0 23.598 0H13.1978C13.0917 0 12.99 0.0421427 12.915 0.117157C12.84 0.192172 12.7978 0.293913 12.7978 0.399999V8.11329C12.5269 8.16488 12.2597 8.23406 11.9978 8.32039V3.99999C11.9978 3.89391 11.9557 3.79217 11.8807 3.71715C11.8056 3.64214 11.7039 3.6 11.5978 3.6H9.99779C9.8917 3.6 9.78995 3.64214 9.71494 3.71715C9.63992 3.79217 9.59778 3.89391 9.59778 3.99999V9.75679C9.30283 10.0364 9.03497 10.3433 8.79777 10.6734V6.79999C8.79777 6.6939 8.75562 6.59216 8.68061 6.51715C8.60559 6.44213 8.50385 6.39999 8.39776 6.39999H6.79774C6.69165 6.39999 6.5899 6.44213 6.51489 6.51715C6.43987 6.59216 6.39773 6.6939 6.39773 6.79999V11.6C6.39773 11.7061 6.43987 11.8078 6.51489 11.8828C6.5899 11.9578 6.69165 12 6.79774 12H8.06516C7.81769 12.6091 7.66632 13.2529 7.61645 13.9085C6.94912 13.6445 6.22734 13.5477 5.51403 13.6266C4.80072 13.7055 4.11753 13.9576 3.52402 14.3611C2.93052 14.7646 2.44471 15.3071 2.10894 15.9413C1.77317 16.5756 1.59765 17.2823 1.59766 18C1.59766 18.1061 1.6398 18.2078 1.71482 18.2828C1.78983 18.3578 1.89157 18.4 1.99766 18.4H5.59772V22C5.59772 22.1061 5.63986 22.2078 5.71488 22.2828C5.78989 22.3578 5.89164 22.4 5.99772 22.4C6.90126 22.3978 7.78237 22.1184 8.52214 21.5997C9.26191 21.0809 9.82473 20.3477 10.1346 19.499C11.2398 20.3385 12.5883 20.7951 13.9761 20.7999C15.3639 20.8047 16.7155 20.3574 17.8264 19.5255L21.9494 23.6485C22.0609 23.76 22.1931 23.8483 22.3387 23.9087C22.4843 23.969 22.6404 24 22.798 24C22.9556 24 23.1116 23.969 23.2572 23.9087C23.4028 23.8483 23.5351 23.76 23.6465 23.6485C23.758 23.5371 23.8464 23.4048 23.9067 23.2592C23.967 23.1136 23.998 22.9576 23.998 22.8C23.998 22.6424 23.967 22.4863 23.9067 22.3407C23.8464 22.1951 23.758 22.0629 23.6465 21.9514L19.4474 17.7524C19.7833 17.2091 20.0354 16.6183 20.1954 16H23.598ZM7.99775 11.2H7.19774V7.19999H7.99775V11.2ZM13.5978 0.799999H23.198V15.2H20.3479C20.3812 14.9346 20.3979 14.6674 20.3979 14.4H21.998C22.1041 14.4 22.2058 14.3578 22.2808 14.2828C22.3558 14.2078 22.398 14.1061 22.398 14C22.398 13.8939 22.3558 13.7922 22.2808 13.7171C22.2058 13.6421 22.1041 13.6 21.998 13.6H20.3473C20.3135 13.3303 20.2625 13.0631 20.1946 12.8H21.998C22.1041 12.8 22.2058 12.7578 22.2808 12.6828C22.3558 12.6078 22.398 12.5061 22.398 12.4C22.398 12.2939 22.3558 12.1922 22.2808 12.1171C22.2058 12.0421 22.1041 12 21.998 12H19.9301C19.8182 11.7245 19.6871 11.4572 19.5378 11.2H21.998C22.1041 11.2 22.2058 11.1578 22.2808 11.0828C22.3558 11.0078 22.398 10.9061 22.398 10.8C22.398 10.6939 22.3558 10.5922 22.2808 10.5171C22.2058 10.4421 22.1041 10.4 21.998 10.4H18.9898C18.4671 9.74889 17.823 9.2055 17.0932 8.79999H17.5979C17.704 8.79999 17.8057 8.75785 17.8808 8.68283C17.9558 8.60782 17.9979 8.50608 17.9979 8.39999C17.9979 8.2939 17.9558 8.19216 17.8808 8.11715C17.8057 8.04213 17.704 7.99999 17.5979 7.99999H13.9978C13.8635 7.99999 13.7302 8.00464 13.5978 8.01284V0.799999ZM10.3978 4.39999H11.1978V8.64589C10.9203 8.78152 10.6529 8.93706 10.3978 9.11129V4.39999ZM2.41972 17.6C2.49516 16.9246 2.76117 16.2846 3.18668 15.7547L5.03201 17.6H2.41972ZM6.39773 21.5776V18C6.39779 17.9474 6.38747 17.8954 6.36737 17.8469C6.34726 17.7983 6.31777 17.7542 6.28058 17.7171L3.75234 15.1889C4.28892 14.7593 4.93743 14.4924 5.62103 14.42C6.30462 14.3476 6.99465 14.4726 7.60935 14.7803C7.70181 16.3446 8.36656 17.8201 9.47693 18.9258C9.28892 19.6257 8.89473 20.2529 8.3456 20.7258C7.79646 21.1987 7.11777 21.4955 6.39773 21.5776ZM23.0808 22.5172C23.1189 22.5541 23.1492 22.5982 23.17 22.647C23.1908 22.6958 23.2018 22.7482 23.2021 22.8012C23.2025 22.8542 23.1924 22.9068 23.1722 22.9558C23.1521 23.0049 23.1225 23.0495 23.085 23.087C23.0475 23.1244 23.0029 23.1541 22.9538 23.1742C22.9048 23.1943 22.8522 23.2045 22.7992 23.2041C22.7462 23.2037 22.6938 23.1928 22.645 23.1719C22.5962 23.1511 22.5521 23.1208 22.5152 23.0828L18.4375 19.005C18.6297 18.8195 18.8103 18.6222 18.9782 18.4144L23.0808 22.5172ZM13.9978 20C12.8903 20 11.8075 19.6715 10.8866 19.0562C9.96568 18.4409 9.2479 17.5663 8.82404 16.543C8.40019 15.5197 8.28928 14.3938 8.50537 13.3075C8.72145 12.2212 9.2548 11.2234 10.038 10.4402C10.8212 9.65702 11.819 9.12367 12.9053 8.90759C13.9916 8.69151 15.1176 8.80241 16.1409 9.22626C17.1642 9.65011 18.0388 10.3679 18.6541 11.2888C19.2695 12.2097 19.5979 13.2924 19.5979 14.4C19.5963 15.8847 19.0057 17.3081 17.9558 18.3579C16.906 19.4078 15.4826 19.9983 13.9978 20Z"/>
</mask>
<path d="M23.598 16C23.7041 16 23.8058 15.9578 23.8808 15.8828C23.9559 15.8078 23.998 15.7061 23.998 15.6V0.399999C23.998 0.293913 23.9559 0.192172 23.8808 0.117157C23.8058 0.0421427 23.7041 0 23.598 0H13.1978C13.0917 0 12.99 0.0421427 12.915 0.117157C12.84 0.192172 12.7978 0.293913 12.7978 0.399999V8.11329C12.5269 8.16488 12.2597 8.23406 11.9978 8.32039V3.99999C11.9978 3.89391 11.9557 3.79217 11.8807 3.71715C11.8056 3.64214 11.7039 3.6 11.5978 3.6H9.99779C9.8917 3.6 9.78995 3.64214 9.71494 3.71715C9.63992 3.79217 9.59778 3.89391 9.59778 3.99999V9.75679C9.30283 10.0364 9.03497 10.3433 8.79777 10.6734V6.79999C8.79777 6.6939 8.75562 6.59216 8.68061 6.51715C8.60559 6.44213 8.50385 6.39999 8.39776 6.39999H6.79774C6.69165 6.39999 6.5899 6.44213 6.51489 6.51715C6.43987 6.59216 6.39773 6.6939 6.39773 6.79999V11.6C6.39773 11.7061 6.43987 11.8078 6.51489 11.8828C6.5899 11.9578 6.69165 12 6.79774 12H8.06516C7.81769 12.6091 7.66632 13.2529 7.61645 13.9085C6.94912 13.6445 6.22734 13.5477 5.51403 13.6266C4.80072 13.7055 4.11753 13.9576 3.52402 14.3611C2.93052 14.7646 2.44471 15.3071 2.10894 15.9413C1.77317 16.5756 1.59765 17.2823 1.59766 18C1.59766 18.1061 1.6398 18.2078 1.71482 18.2828C1.78983 18.3578 1.89157 18.4 1.99766 18.4H5.59772V22C5.59772 22.1061 5.63986 22.2078 5.71488 22.2828C5.78989 22.3578 5.89164 22.4 5.99772 22.4C6.90126 22.3978 7.78237 22.1184 8.52214 21.5997C9.26191 21.0809 9.82473 20.3477 10.1346 19.499C11.2398 20.3385 12.5883 20.7951 13.9761 20.7999C15.3639 20.8047 16.7155 20.3574 17.8264 19.5255L21.9494 23.6485C22.0609 23.76 22.1931 23.8483 22.3387 23.9087C22.4843 23.969 22.6404 24 22.798 24C22.9556 24 23.1116 23.969 23.2572 23.9087C23.4028 23.8483 23.5351 23.76 23.6465 23.6485C23.758 23.5371 23.8464 23.4048 23.9067 23.2592C23.967 23.1136 23.998 22.9576 23.998 22.8C23.998 22.6424 23.967 22.4863 23.9067 22.3407C23.8464 22.1951 23.758 22.0629 23.6465 21.9514L19.4474 17.7524C19.7833 17.2091 20.0354 16.6183 20.1954 16H23.598ZM7.99775 11.2H7.19774V7.19999H7.99775V11.2ZM13.5978 0.799999H23.198V15.2H20.3479C20.3812 14.9346 20.3979 14.6674 20.3979 14.4H21.998C22.1041 14.4 22.2058 14.3578 22.2808 14.2828C22.3558 14.2078 22.398 14.1061 22.398 14C22.398 13.8939 22.3558 13.7922 22.2808 13.7171C22.2058 13.6421 22.1041 13.6 21.998 13.6H20.3473C20.3135 13.3303 20.2625 13.0631 20.1946 12.8H21.998C22.1041 12.8 22.2058 12.7578 22.2808 12.6828C22.3558 12.6078 22.398 12.5061 22.398 12.4C22.398 12.2939 22.3558 12.1922 22.2808 12.1171C22.2058 12.0421 22.1041 12 21.998 12H19.9301C19.8182 11.7245 19.6871 11.4572 19.5378 11.2H21.998C22.1041 11.2 22.2058 11.1578 22.2808 11.0828C22.3558 11.0078 22.398 10.9061 22.398 10.8C22.398 10.6939 22.3558 10.5922 22.2808 10.5171C22.2058 10.4421 22.1041 10.4 21.998 10.4H18.9898C18.4671 9.74889 17.823 9.2055 17.0932 8.79999H17.5979C17.704 8.79999 17.8057 8.75785 17.8808 8.68283C17.9558 8.60782 17.9979 8.50608 17.9979 8.39999C17.9979 8.2939 17.9558 8.19216 17.8808 8.11715C17.8057 8.04213 17.704 7.99999 17.5979 7.99999H13.9978C13.8635 7.99999 13.7302 8.00464 13.5978 8.01284V0.799999ZM10.3978 4.39999H11.1978V8.64589C10.9203 8.78152 10.6529 8.93706 10.3978 9.11129V4.39999ZM2.41972 17.6C2.49516 16.9246 2.76117 16.2846 3.18668 15.7547L5.03201 17.6H2.41972ZM6.39773 21.5776V18C6.39779 17.9474 6.38747 17.8954 6.36737 17.8469C6.34726 17.7983 6.31777 17.7542 6.28058 17.7171L3.75234 15.1889C4.28892 14.7593 4.93743 14.4924 5.62103 14.42C6.30462 14.3476 6.99465 14.4726 7.60935 14.7803C7.70181 16.3446 8.36656 17.8201 9.47693 18.9258C9.28892 19.6257 8.89473 20.2529 8.3456 20.7258C7.79646 21.1987 7.11777 21.4955 6.39773 21.5776ZM23.0808 22.5172C23.1189 22.5541 23.1492 22.5982 23.17 22.647C23.1908 22.6958 23.2018 22.7482 23.2021 22.8012C23.2025 22.8542 23.1924 22.9068 23.1722 22.9558C23.1521 23.0049 23.1225 23.0495 23.085 23.087C23.0475 23.1244 23.0029 23.1541 22.9538 23.1742C22.9048 23.1943 22.8522 23.2045 22.7992 23.2041C22.7462 23.2037 22.6938 23.1928 22.645 23.1719C22.5962 23.1511 22.5521 23.1208 22.5152 23.0828L18.4375 19.005C18.6297 18.8195 18.8103 18.6222 18.9782 18.4144L23.0808 22.5172ZM13.9978 20C12.8903 20 11.8075 19.6715 10.8866 19.0562C9.96568 18.4409 9.2479 17.5663 8.82404 16.543C8.40019 15.5197 8.28928 14.3938 8.50537 13.3075C8.72145 12.2212 9.2548 11.2234 10.038 10.4402C10.8212 9.65702 11.819 9.12367 12.9053 8.90759C13.9916 8.69151 15.1176 8.80241 16.1409 9.22626C17.1642 9.65011 18.0388 10.3679 18.6541 11.2888C19.2695 12.2097 19.5979 13.2924 19.5979 14.4C19.5963 15.8847 19.0057 17.3081 17.9558 18.3579C16.906 19.4078 15.4826 19.9983 13.9978 20Z" fill="#75717A" stroke="#75717A" stroke-width="0.305557" mask="url(#path-4-inside-1_7662_17266)"/>
<path d="M13.9993 18.476H13.9994C15.0801 18.4748 16.1162 18.0449 16.8804 17.2807C17.6447 16.5165 18.0745 15.4804 18.0757 14.3997V14.3996C18.0757 13.5934 17.8367 12.8052 17.3887 12.1349C16.9408 11.4645 16.3042 10.942 15.5593 10.6335C14.8144 10.325 13.9948 10.2443 13.204 10.4015C12.4133 10.5588 11.6869 10.9471 11.1168 11.5172C10.5467 12.0873 10.1585 12.8136 10.0012 13.6043C9.84388 14.3951 9.92461 15.2147 10.2331 15.9596C10.5417 16.7044 11.0642 17.3411 11.7345 17.789C12.4049 18.2369 13.193 18.476 13.9993 18.476ZM11.375 10.4721C12.1517 9.95304 13.065 9.67601 13.9992 9.676C15.2516 9.67742 16.4523 10.1755 17.3379 11.0611C18.2234 11.9466 18.7216 13.1473 18.723 14.3997C18.723 15.3339 18.4459 16.2471 17.9269 17.0239C17.4079 17.8007 16.6701 18.4061 15.807 18.7636C14.9438 19.1212 13.9941 19.2147 13.0777 19.0324C12.1614 18.8502 11.3198 18.4003 10.6591 17.7397C9.99853 17.0791 9.54864 16.2374 9.36637 15.3211C9.18411 14.4048 9.27765 13.4551 9.63518 12.592C9.9927 11.7288 10.5981 10.9911 11.375 10.4721Z" fill="#75717A" stroke="#75717A" stroke-width="0.152778"/>
<path d="M21.9986 2.32322H14.7984C14.7126 2.32322 14.6303 2.28912 14.5696 2.22844C14.5089 2.16775 14.4748 2.08544 14.4748 1.99961C14.4748 1.91378 14.5089 1.83147 14.5696 1.77078C14.6303 1.71009 14.7126 1.676 14.7984 1.676H21.9986C22.0844 1.676 22.1667 1.71009 22.2274 1.77078C22.2881 1.83147 22.3222 1.91378 22.3222 1.99961C22.3222 2.08544 22.2881 2.16775 22.2274 2.22844C22.1667 2.28912 22.0844 2.32322 21.9986 2.32322Z" fill="#75717A" stroke="#75717A" stroke-width="0.152778"/>
<path d="M21.9986 3.92283H14.7984C14.7126 3.92283 14.6303 3.88873 14.5696 3.82804C14.5089 3.76736 14.4748 3.68504 14.4748 3.59922C14.4748 3.51339 14.5089 3.43108 14.5696 3.37039C14.6303 3.3097 14.7126 3.27561 14.7984 3.27561H21.9986C22.0844 3.27561 22.1667 3.3097 22.2274 3.37039C22.2881 3.43108 22.3222 3.51339 22.3222 3.59922C22.3222 3.68504 22.2881 3.76736 22.2274 3.82804C22.1667 3.88873 22.0844 3.92283 21.9986 3.92283Z" fill="#75717A" stroke="#75717A" stroke-width="0.152778"/>
<path d="M17.5985 5.52439H14.7984C14.7126 5.52439 14.6303 5.4903 14.5696 5.42961C14.5089 5.36892 14.4748 5.28661 14.4748 5.20078C14.4748 5.11495 14.5089 5.03264 14.5696 4.97195C14.6303 4.91127 14.7126 4.87717 14.7984 4.87717H17.5985C17.6843 4.87717 17.7666 4.91127 17.8273 4.97195C17.888 5.03264 17.9221 5.11495 17.9221 5.20078C17.9221 5.28661 17.888 5.36892 17.8273 5.42961C17.7666 5.4903 17.6843 5.52439 17.5985 5.52439Z" fill="#75717A" stroke="#75717A" stroke-width="0.152778"/>
<path d="M17.5985 7.124H14.7984C14.7126 7.124 14.6303 7.08991 14.5696 7.02922C14.5089 6.96853 14.4748 6.88622 14.4748 6.80039C14.4748 6.71456 14.5089 6.63225 14.5696 6.57156C14.6303 6.51087 14.7126 6.47678 14.7984 6.47678H17.5985C17.6843 6.47678 17.7666 6.51087 17.8273 6.57156C17.888 6.63225 17.9221 6.71456 17.9221 6.80039C17.9221 6.88622 17.888 6.96853 17.8273 7.02922C17.7666 7.08991 17.6843 7.124 17.5985 7.124Z" fill="#75717A" stroke="#75717A" stroke-width="0.152778"/>
<path d="M21.6008 8.87717H21.6772V8.80078V5.60078V5.52439H21.6008H19.6008H19.5244V5.60078V8.80078V8.87717H19.6008H21.6008ZM19.2008 4.87717H22.0008C22.0867 4.87717 22.169 4.91127 22.2297 4.97195C22.2904 5.03264 22.3244 5.11495 22.3244 5.20078V9.20078C22.3244 9.2866 22.2904 9.36891 22.2297 9.4296C22.169 9.49029 22.0867 9.52439 22.0008 9.52439H19.2008C19.115 9.52439 19.0326 9.49029 18.972 9.4296C18.9113 9.36891 18.8772 9.2866 18.8772 9.20078V5.20078C18.8772 5.11495 18.9113 5.03264 18.972 4.97195C19.0326 4.91127 19.115 4.87717 19.2008 4.87717Z" fill="#75717A" stroke="#75717A" stroke-width="0.152778"/>
<path d="M0.400119 6.7236H0.400018C0.336001 6.72361 0.273421 6.70462 0.220196 6.66905C0.16697 6.63348 0.12549 6.58293 0.101002 6.52378C0.076514 6.46463 0.0701187 6.39955 0.082625 6.33677C0.0951312 6.27399 0.125977 6.21633 0.171261 6.17108L0.171281 6.17106L0.971294 5.37106L1.00958 5.33278L0.986137 5.28397C0.919998 5.14627 0.882634 4.99653 0.876327 4.84389C0.87002 4.69126 0.894904 4.53895 0.949457 4.39626C1.00401 4.25357 1.08709 4.1235 1.19361 4.01401C1.30013 3.90451 1.42787 3.81789 1.569 3.75943C1.71014 3.70097 1.86171 3.6719 2.01446 3.674C2.16721 3.67611 2.31793 3.70933 2.4574 3.77166C2.59688 3.83398 2.72218 3.92409 2.82565 4.03647C2.92912 4.14886 3.00858 4.28116 3.05919 4.4253L3.07712 4.47638H3.13126H4.46888H4.52293L4.54092 4.42542C4.59336 4.27684 4.67649 4.14095 4.78489 4.02659C4.8933 3.91223 5.02455 3.82197 5.17013 3.76166C5.3157 3.70135 5.47234 3.67234 5.62986 3.67653C5.78737 3.68072 5.94225 3.718 6.08441 3.78597L6.13316 3.80927L6.17137 3.77106L6.97139 2.97106L7.00967 2.93278L6.98623 2.88397C6.92009 2.74627 6.88272 2.59653 6.87642 2.4439C6.87011 2.29127 6.89499 2.13895 6.94955 1.99626C7.0041 1.85357 7.08718 1.72351 7.1937 1.61401C7.30022 1.50452 7.42796 1.41789 7.56909 1.35943C7.71023 1.30097 7.8618 1.2719 8.01455 1.27401C8.16731 1.27611 8.31802 1.30934 8.4575 1.37166C8.59697 1.43398 8.72227 1.52409 8.82574 1.63648C8.92921 1.74886 9.00867 1.88117 9.05928 2.0253L9.07721 2.07639H9.13135H9.80791H9.84463L9.86756 2.04772L10.8276 0.84772L10.9269 0.72361H10.7679H10.4002C10.3143 0.72361 10.232 0.689515 10.1713 0.628826C10.1107 0.568138 10.0766 0.485826 10.0766 0.4C10.0766 0.314173 10.1107 0.231861 10.1713 0.171173C10.232 0.110484 10.3143 0.0763892 10.4002 0.0763892H11.6002C11.686 0.0763892 11.7683 0.110484 11.829 0.171173C11.8897 0.231862 11.9238 0.314173 11.9238 0.4V1.6C11.9238 1.68582 11.8897 1.76814 11.829 1.82882C11.7683 1.88951 11.686 1.92361 11.6002 1.92361C11.5144 1.92361 11.432 1.88951 11.3714 1.82882C11.3107 1.76814 11.2766 1.68582 11.2766 1.6V1.5403V1.32251L11.1405 1.49258L10.2529 2.60225C10.2226 2.64013 10.1841 2.67071 10.1404 2.69171C10.0966 2.71272 10.0487 2.72362 10.0002 2.72361H10.0002H9.13135H9.07731L9.05932 2.77457C9.00687 2.92316 8.92375 3.05904 8.81534 3.1734C8.70694 3.28776 8.57568 3.37802 8.43011 3.43833C8.28453 3.49865 8.1279 3.52765 7.97038 3.52346C7.81286 3.51927 7.65799 3.48199 7.51582 3.41403L7.46707 3.39072L7.42886 3.42893L6.62885 4.22893L6.59057 4.26721L6.61401 4.31602C6.68015 4.45372 6.71751 4.60346 6.72382 4.75609C6.73013 4.90873 6.70524 5.06104 6.65069 5.20373C6.59614 5.34642 6.51306 5.47649 6.40654 5.58598C6.30001 5.69548 6.17228 5.7821 6.03114 5.84056C5.89001 5.89902 5.73843 5.92809 5.58568 5.92598C5.43293 5.92388 5.28221 5.89065 5.14274 5.82833C5.00327 5.76601 4.87797 5.6759 4.7745 5.56352C4.67103 5.45113 4.59156 5.31883 4.54096 5.17469L4.52302 5.1236H4.46888H3.13126H3.07722L3.05923 5.17456C3.00677 5.32313 2.92364 5.45899 2.81524 5.57333C2.70684 5.68767 2.57559 5.77792 2.43003 5.83822C2.28447 5.89852 2.12785 5.92752 1.97035 5.92333C1.81284 5.91915 1.65798 5.88187 1.51583 5.81392L1.46708 5.79062L1.42887 5.82883L0.62886 6.62883L0.628795 6.62889C0.598796 6.65896 0.563151 6.68281 0.523907 6.69906C0.484664 6.71532 0.442595 6.72366 0.400119 6.7236ZM0.117267 6.11704C0.0612934 6.17297 0.0231662 6.24425 0.0077077 6.32185C-0.00775076 6.39945 0.000154164 6.47989 0.0304226 6.553C0.060691 6.62611 0.111963 6.6886 0.177752 6.73257C0.243542 6.77653 0.320893 6.8 0.400021 6.79999C0.452561 6.80006 0.504596 6.78974 0.553138 6.76964C0.601679 6.74954 0.645769 6.72004 0.682875 6.68284L0.117267 6.11704ZM8.00014 1.92361L8.00005 1.92361C7.87377 1.92375 7.7527 1.97398 7.66341 2.06327C7.57411 2.15256 7.52388 2.27363 7.52374 2.39991V2.4C7.52374 2.49422 7.55168 2.58632 7.60403 2.66467C7.65638 2.74301 7.73078 2.80407 7.81783 2.84012C7.90488 2.87618 8.00067 2.88561 8.09308 2.86723C8.18549 2.84885 8.27037 2.80348 8.337 2.73686C8.40362 2.67023 8.449 2.58535 8.46738 2.49294C8.48576 2.40053 8.47633 2.30474 8.44027 2.21769C8.40421 2.13064 8.34315 2.05624 8.26481 2.00389C8.18646 1.95155 8.09436 1.92361 8.00014 1.92361ZM5.6001 4.32361H5.60002C5.47373 4.32375 5.35266 4.37398 5.26337 4.46327C5.17408 4.55256 5.12385 4.67363 5.1237 4.79991V4.79999C5.1237 4.89422 5.15165 4.98632 5.20399 5.06466C5.25634 5.143 5.33074 5.20406 5.41779 5.24012C5.50484 5.27618 5.60063 5.28561 5.69304 5.26723C5.78545 5.24885 5.87034 5.20348 5.93696 5.13685C6.00359 5.07023 6.04896 4.98534 6.06734 4.89293C6.08572 4.80052 6.07629 4.70474 6.04023 4.61769C6.00418 4.53064 5.94311 4.45624 5.86477 4.40389C5.78643 4.35155 5.69432 4.32361 5.6001 4.32361ZM2.00005 4.32361H1.99996C1.87368 4.32375 1.75261 4.37398 1.66331 4.46327C1.57402 4.55256 1.52379 4.67363 1.52365 4.79991V4.79999C1.52365 4.89422 1.55159 4.98632 1.60394 5.06466C1.65628 5.143 1.73069 5.20406 1.81774 5.24012C1.90479 5.27618 2.00057 5.28561 2.09299 5.26723C2.1854 5.24885 2.27028 5.20348 2.33691 5.13685C2.40353 5.07023 2.4489 4.98534 2.46729 4.89293C2.48567 4.80052 2.47623 4.70474 2.44018 4.61769C2.40412 4.53064 2.34306 4.45624 2.26472 4.40389C2.18637 4.35155 2.09427 4.32361 2.00005 4.32361Z" fill="#75717A" stroke="#75717A" stroke-width="0.152778"/>
</svg>
