<svg width="25" height="25" viewBox="0 0 25 25" fill="none" xmlns="http://www.w3.org/2000/svg">
<g clip-path="url(#clip0_3061_4598)">
<path d="M25 12.5781C25 18.8167 20.4229 23.9885 14.4479 24.9271V16.2156H17.3531L17.9062 12.6115H14.4479V10.2729C14.4479 9.28646 14.9312 8.32604 16.4792 8.32604H18.051V5.25729C18.051 5.25729 16.624 5.01354 15.2604 5.01354C12.4125 5.01354 10.5521 6.73958 10.5521 9.86354V12.6104H7.38646V16.2146H10.5521V24.926C4.57812 23.9865 0 18.8156 0 12.5781C0 5.675 5.59687 0.078125 12.5 0.078125C19.4031 0.078125 25 5.67396 25 12.5781Z" fill="#5B6167"/>
</g>
<defs>
<clipPath id="clip0_3061_4598">
<rect width="25" height="25" fill="white"/>
</clipPath>
</defs>
</svg>
