<svg width="24" height="24" viewBox="0 0 24 24" fill="none" xmlns="http://www.w3.org/2000/svg">
<g clip-path="url(#clip0_3061_4594)">
<path fill-rule="evenodd" clip-rule="evenodd" d="M20.4607 3.488C18.2147 1.24 15.2287 0.001 12.0477 0C5.49269 0 0.157688 5.334 0.154688 11.892C0.153688 13.988 0.701687 16.034 1.74269 17.838L0.0546875 24L6.35869 22.346C8.09569 23.294 10.0517 23.793 12.0417 23.794H12.0467C18.6007 23.794 23.9367 18.459 23.9397 11.901C23.9417 8.724 22.7057 5.735 20.4607 3.488ZM12.0477 21.785H12.0437C10.2697 21.785 8.53069 21.308 7.01269 20.407L6.65169 20.193L2.91069 21.174L3.90969 17.526L3.67469 17.152C2.68469 15.578 2.16269 13.759 2.16369 11.892C2.16569 6.442 6.60069 2.008 12.0527 2.008C14.6927 2.008 17.1747 3.038 19.0407 4.906C20.9067 6.775 21.9337 9.258 21.9327 11.899C21.9297 17.351 17.4957 21.785 12.0477 21.785ZM17.4697 14.382C17.1727 14.233 15.7117 13.514 15.4387 13.415C15.1667 13.316 14.9687 13.266 14.7697 13.563C14.5707 13.86 14.0027 14.53 13.8287 14.729C13.6557 14.927 13.4817 14.952 13.1847 14.803C12.8877 14.654 11.9297 14.341 10.7947 13.328C9.91169 12.54 9.31469 11.567 9.14169 11.269C8.96869 10.971 9.12369 10.811 9.27169 10.663C9.40569 10.53 9.56869 10.316 9.71769 10.142C9.86769 9.97 9.91669 9.846 10.0167 9.647C10.1157 9.449 10.0667 9.275 9.99169 9.126C9.91669 8.978 9.32269 7.515 9.07569 6.92C8.83469 6.34 8.58969 6.419 8.40669 6.41C8.23369 6.401 8.03569 6.4 7.83669 6.4C7.63869 6.4 7.31669 6.474 7.04469 6.772C6.77269 7.07 6.00469 7.789 6.00469 9.251C6.00469 10.714 7.06969 12.127 7.21769 12.325C7.36569 12.523 9.31269 15.525 12.2937 16.812C13.0027 17.118 13.5567 17.301 13.9877 17.438C14.6997 17.664 15.3477 17.632 15.8597 17.556C16.4307 17.471 17.6177 16.837 17.8657 16.143C18.1137 15.449 18.1137 14.853 18.0387 14.73C17.9647 14.605 17.7667 14.531 17.4697 14.382Z" fill="#5B6167"/>
</g>
<defs>
<clipPath id="clip0_3061_4594">
<rect width="24" height="24" fill="white"/>
</clipPath>
</defs>
</svg>
