<svg width="24" height="24" viewBox="0 0 24 24" fill="none" xmlns="http://www.w3.org/2000/svg">
<path d="M20.4504 20.4505H16.8939V14.8811C16.8939 13.5529 16.8703 11.8439 15.0442 11.8439C13.192 11.8439 12.9082 13.2904 12.9082 14.7853V20.4505H9.35293V8.99709H12.7674V10.5618H12.8147C13.5114 9.37202 14.8053 8.6612 16.1831 8.71206C19.788 8.71206 20.4515 11.0834 20.4515 14.1668L20.4504 20.4505ZM5.33997 7.43118C4.19983 7.43118 3.27613 6.50747 3.27613 5.36733C3.27613 4.22719 4.19983 3.30349 5.33997 3.30349C6.48011 3.30349 7.40381 4.22719 7.40381 5.36733C7.40381 6.50747 6.48011 7.43118 5.33997 7.43118ZM7.11759 20.4505H3.55761V8.99709H7.11759V20.4505ZM22.2233 0.00134427H1.77053C0.804248 -0.00930019 0.0118272 0.76538 0 1.73166V22.2684C0.0118272 23.2358 0.804248 24.0105 1.77053 23.9999H22.2233C23.1919 24.0117 23.9879 23.237 24.0009 22.2684V1.73048C23.9867 0.761831 23.1907 -0.0128484 22.2233 0.000161495" fill="#5B6167"/>
</svg>
