<svg width="20" height="20" viewBox="0 0 20 20" fill="none" xmlns="http://www.w3.org/2000/svg">
<path d="M13.3333 0H6.66667C4.36917 0 2.5 1.86917 2.5 4.16667V15.8333C2.5 18.1308 4.36917 20 6.66667 20H13.3333C15.6308 20 17.5 18.1308 17.5 15.8333V4.16667C17.5 1.86917 15.6308 0 13.3333 0ZM15.8333 15.8333C15.8333 17.2117 14.7117 18.3333 13.3333 18.3333H6.66667C5.28833 18.3333 4.16667 17.2117 4.16667 15.8333V4.16667C4.16667 2.78833 5.28833 1.66667 6.66667 1.66667H13.3333C14.7117 1.66667 15.8333 2.78833 15.8333 4.16667V15.8333ZM11.6667 15.8333C11.6667 16.2933 11.2942 16.6667 10.8333 16.6667H9.16667C8.70667 16.6667 8.33333 16.2933 8.33333 15.8333C8.33333 15.3733 8.70667 15 9.16667 15H10.8333C11.2942 15 11.6667 15.3733 11.6667 15.8333Z" fill="white"/>
</svg>
