<svg width="23" height="24" viewBox="0 0 23 24" fill="none" xmlns="http://www.w3.org/2000/svg">
<path d="M11.5 23.5C17.8497 23.5 23 18.3497 23 12C23 5.65034 17.8497 0.5 11.5 0.5C5.15034 0.5 0 5.65034 0 12C0 18.3497 5.15034 23.5 11.5 23.5ZM10.6785 5.42858C10.6785 4.97678 11.0482 4.60713 11.5 4.60713C11.9518 4.60713 12.3215 4.97678 12.3215 5.42858V11.6057L16.1206 14.645C16.4738 14.9284 16.5313 15.4459 16.2479 15.7991C16.0877 16.0004 15.8495 16.1071 15.6071 16.1071C15.4264 16.1071 15.2457 16.0496 15.0938 15.9264L10.9866 12.6407C10.7936 12.4846 10.6786 12.2506 10.6786 12V5.42858H10.6785Z" fill="white"/>
</svg>
