<svg width="24" height="24" viewBox="0 0 24 24" fill="none" xmlns="http://www.w3.org/2000/svg">
<g clip-path="url(#clip0_4322_7091)">
<path d="M19 5.99991H14.135L17.768 1.63991C18.122 1.21591 18.064 0.584909 17.64 0.231909C17.216 -0.121091 16.586 -0.0640909 16.232 0.359909L12 5.43791L7.768 0.359909C7.414 -0.0640909 6.784 -0.122091 6.36 0.231909C5.936 0.585909 5.879 1.21591 6.232 1.63991L9.865 5.99991H5C2.243 5.99991 0 8.24291 0 10.9999V18.9999C0 21.7569 2.243 23.9999 5 23.9999H19C21.757 23.9999 24 21.7569 24 18.9999V10.9999C24 8.24291 21.757 5.99991 19 5.99991ZM22 18.9999C22 20.6539 20.654 21.9999 19 21.9999H5C3.346 21.9999 2 20.6539 2 18.9999V10.9999C2 9.34591 3.346 7.99991 5 7.99991H19C20.654 7.99991 22 9.34591 22 10.9999V18.9999ZM13 9.99991H6C4.897 9.99991 4 10.8969 4 11.9999V17.9999C4 19.1029 4.897 19.9999 6 19.9999H13C14.103 19.9999 15 19.1029 15 17.9999V11.9999C15 10.8969 14.103 9.99991 13 9.99991ZM6 17.9999V11.9999H13V17.9999H6ZM20 12.4999C20 13.3279 19.328 13.9999 18.5 13.9999C17.672 13.9999 17 13.3279 17 12.4999C17 11.6719 17.672 10.9999 18.5 10.9999C19.328 10.9999 20 11.6719 20 12.4999ZM20 17.4999C20 18.3279 19.328 18.9999 18.5 18.9999C17.672 18.9999 17 18.3279 17 17.4999C17 16.6719 17.672 15.9999 18.5 15.9999C19.328 15.9999 20 16.6719 20 17.4999Z" fill="white"/>
</g>
<defs>
<clipPath id="clip0_4322_7091">
<rect width="24" height="24" fill="white"/>
</clipPath>
</defs>
</svg>
