<svg width="42" height="43" viewBox="0 0 42 43" fill="none" xmlns="http://www.w3.org/2000/svg">
<path d="M37.01 0.669922H4.98996C4.33464 0.669814 3.68572 0.79881 3.08026 1.04954C2.4748 1.30027 1.92467 1.66783 1.46129 2.13121C0.997903 2.59459 0.63035 3.14472 0.379619 3.75018C0.128888 4.35564 -0.000107689 5.00456 6.7455e-08 5.65988V37.68C-0.000107689 38.3353 0.128888 38.9842 0.379619 39.5897C0.63035 40.1951 0.997903 40.7453 1.46129 41.2086C1.92467 41.672 2.4748 42.0396 3.08026 42.2903C3.68572 42.541 4.33464 42.67 4.98996 42.6699H37.01C37.6654 42.67 38.3143 42.541 38.9197 42.2903C39.5252 42.0396 40.0753 41.672 40.5387 41.2086C41.0021 40.7453 41.3696 40.1951 41.6204 39.5897C41.8711 38.9842 42.0001 38.3353 42 37.68V5.65988C42.0001 5.00456 41.8711 4.35564 41.6204 3.75018C41.3696 3.14472 41.0021 2.59459 40.5387 2.13121C40.0753 1.66783 39.5252 1.30027 38.9197 1.04954C38.3143 0.79881 37.6654 0.669814 37.01 0.669922ZM39.5391 37.68C39.5384 38.3505 39.2718 38.9934 38.7976 39.4675C38.3235 39.9417 37.6806 40.2083 37.01 40.209H4.98996C4.31942 40.2083 3.67653 39.9417 3.20239 39.4675C2.72825 38.9934 2.46159 38.3505 2.46094 37.68V5.65988C2.46159 4.98934 2.72825 4.34646 3.20239 3.87231C3.67653 3.39817 4.31942 3.13151 4.98996 3.13086H37.01C37.6806 3.13151 38.3235 3.39817 38.7976 3.87231C39.2718 4.34646 39.5384 4.98934 39.5391 5.65988V37.68Z" fill="white"/>
<path d="M17.1709 21.9891L21.8188 14.3848C21.8926 14.2371 21.868 14.1387 21.7203 14.1387H18.9641C18.8996 14.1318 18.8348 14.1477 18.7808 14.1837C18.7269 14.2196 18.6872 14.2734 18.6688 14.3355C17.5367 16.3535 16.3801 18.3715 15.2973 20.4141H15.2727C14.1653 18.3715 12.9348 16.3535 11.8512 14.3109C11.7782 14.1633 11.7035 14.1387 11.5558 14.1387H8.5535C8.52627 14.1346 8.49846 14.139 8.47377 14.1512C8.44908 14.1633 8.42869 14.1828 8.41532 14.2068C8.40195 14.2309 8.39624 14.2585 8.39894 14.2859C8.40165 14.3133 8.41264 14.3392 8.43046 14.3602L13.1555 22.1859L8.33202 30.0609C8.25819 30.1594 8.25819 30.307 8.43046 30.307H11.3098C11.4574 30.307 11.5321 30.2578 11.6051 30.1102C12.7625 28.0922 13.9192 26.0004 15.0266 23.9332H15.0512C16.2571 26.0496 17.4629 28.0922 18.6442 30.1102C18.718 30.2578 18.8164 30.307 19.0133 30.307H22.0403C22.1633 30.2824 22.2371 30.184 22.1387 30.0609L17.1709 21.9891ZM33.6099 27.7969V12.9328C33.6099 12.8344 33.6099 12.7852 33.4869 12.7852H30.8045C30.706 12.7852 30.6568 12.8344 30.6568 12.9574V18.0023C30.306 17.9558 29.9525 17.9311 29.5986 17.9285C25.2674 17.9285 22.6096 20.7832 22.6096 24.3516C22.6096 28.4859 25.3412 30.5531 28.9096 30.5531C30.5093 30.5554 32.0925 30.2287 33.5607 29.5934C33.6092 29.5827 33.6517 29.5537 33.6792 29.5124C33.7067 29.4711 33.7172 29.4207 33.7084 29.3719C33.6592 28.9289 33.6099 28.2891 33.6099 27.7969ZM30.6568 27.7969C30.1945 27.9379 29.7127 28.0043 29.2295 27.9938C27.2607 27.9938 25.6611 26.8863 25.6611 24.2039C25.6611 21.8168 27.31 20.4141 29.5002 20.4141C29.8929 20.4016 30.2847 20.4599 30.6568 20.5863V27.7969Z" fill="white"/>
</svg>
